<svg aria-hidden="true" style="width:0;height:0;position:absolute;overflow:hidden" xmlns="http://www.w3.org/2000/svg"><defs><symbol id="icon-phone" fill="#fff" viewBox="0 0 32 32"><path d="M11.748 5.773S11.418 5 10.914 5c-.496 0-.754.229-.926.387S6.938 7.91 6.938 7.91s-.837.731-.773 2.106c.054 1.375.323 3.332 1.719 6.058 1.386 2.72 4.855 6.876 7.047 8.337 0 0 2.031 1.558 3.921 2.191.549.173 1.647.398 1.903.398.26 0 .719 0 1.246-.385.536-.389 3.543-2.807 3.543-2.807s.736-.665-.119-1.438c-.859-.773-3.467-2.492-4.025-2.944-.559-.459-1.355-.257-1.699.054-.343.313-.956.828-1.031.893-.112.086-.419.365-.763.226-.438-.173-2.234-1.148-3.899-3.426-1.655-2.276-1.837-3.02-2.084-3.824a.559.559 0 0 1 .223-.656l.002-.001c.248-.172 1.161-.933 1.161-.933s.591-.583.344-1.27-1.906-4.716-1.906-4.716z"/></symbol><symbol id="icon-triangle" fill="#000" viewBox="0 0 32 32"><path d="M16 2.5a4.2 4.2 0 0 0-3.56 1.974l-.01.018 1.28.784-1.284-.776L1.064 23.266a4.087 4.087 0 0 0-.565 2.086 4.13 4.13 0 0 0 2.048 3.568l.02.011c.628.366 1.34.562 2.068.57h22.732a4.202 4.202 0 0 0 3.571-2.07l.011-.02a4.083 4.083 0 0 0 .552-2.062c0-.767-.209-1.486-.574-2.101l.011.019L19.572 4.493a4.171 4.171 0 0 0-3.555-1.992h-.016.001z"/></symbol><symbol id="icon-hand" fill="#fff" viewBox="0 0 32 32"><path d="M1.254 21.083c.469-.013.804-.375.817-.857C2.218 14.4 5.218 10.088 9.772 8.4l3.121 8.571c.027.067.013.12-.054.147-.054.027-.094 0-.134-.04l-1.58-1.714c-1.031-1.112-2.344-1.192-3.362-.335-1.152.978-1.165 2.438-.04 3.817l4.487 5.424c3.388 4.098 7.366 5.37 11.812 3.75 5.317-1.929 7.58-6.804 5.437-12.696l-1.004-2.746c-1.044-2.906-3.04-4.098-5.384-3.281-.629-.817-1.594-1.098-2.638-.723-.362.134-.71.335-1.045.589-.683-.884-1.741-1.205-2.839-.817a3.697 3.697 0 0 0-.844.455l-1.527-4.178c-.576-1.594-2.022-2.263-3.509-1.728-1.5.549-2.17 1.982-1.594 3.576l.107.295C3.999 8.708.396 13.704.396 20.199c0 .482.402.897.857.884zm22.192 5.183c-3.509 1.286-6.804.63-9.897-3.107l-4.487-5.397c-.482-.562-.482-1.112-.054-1.487.402-.362.951-.241 1.393.214l3.094 3.201c.522.536.978.589 1.42.429.522-.188.75-.75.536-1.326L10.71 5.748c-.201-.536.04-1.045.549-1.232.522-.188 1.005.067 1.205.603l3.388 9.308c.161.442.656.643 1.098.482a.825.825 0 0 0 .496-1.058l-1.219-3.362a2.22 2.22 0 0 1 .696-.442c.63-.228 1.152.054 1.393.71l1.071 2.933c.161.455.656.63 1.085.469.415-.147.683-.589.509-1.058l-.871-2.37c.188-.188.442-.362.696-.455.63-.228 1.152.054 1.393.71l.71 1.955c.174.469.67.643 1.098.482a.826.826 0 0 0 .509-1.058l-.536-1.446c1.125-.402 2.183.509 2.906 2.518l.844 2.29c1.835 5.063.161 8.92-4.286 10.54z"/></symbol><symbol id="icon-burger-menu" fill="#91bd17" viewBox="0 0 32 32"><path d="M28.8 25.6H3.2c-1.766 0-3.2 1.434-3.2 3.2S1.434 32 3.2 32h25.6c1.766 0 3.2-1.434 3.2-3.2s-1.434-3.2-3.2-3.2zm0-12.8H3.2C1.434 12.8 0 14.234 0 16s1.434 3.2 3.2 3.2h25.6c1.766 0 3.2-1.434 3.2-3.2s-1.434-3.2-3.2-3.2zM3.2 6.4h25.6c1.766 0 3.2-1.434 3.2-3.2S30.566 0 28.8 0H3.2C1.434 0 0 1.434 0 3.2s1.434 3.2 3.2 3.2z"/></symbol><symbol id="icon-line" viewBox="0 0 32 32"><path d="M2.667 16c0-.736.597-1.333 1.333-1.333h24a1.333 1.333 0 0 1 0 2.666H4A1.333 1.333 0 0 1 2.667 16z"/></symbol><symbol id="icon-right" fill="#fff" viewBox="0 0 32 32"><path d="m13.103 8.275-1.931 1.931L16.966 16l-5.794 5.794 1.931 1.931L20.828 16z"/></symbol><symbol id="icon-left" fill="#fff" viewBox="0 0 32 32"><path d="m18.897 23.725 1.931-1.931L15.034 16l5.794-5.794-1.931-1.931L11.172 16z"/></symbol><symbol id="icon-close" viewBox="0 0 32 32"><path d="M6.1 6.1c.362-.362.862-.586 1.414-.586s1.052.224 1.414.586L16 13.172 23.072 6.1a2 2 0 0 1 2.827 2.829l.001-.001L18.828 16l7.072 7.072a2 2 0 0 1-2.829 2.827l.001.001L16 18.828 8.928 25.9a2 2 0 0 1-2.827-2.829l-.001.001L13.172 16 6.1 8.928c-.362-.362-.586-.862-.586-1.414S5.738 6.462 6.1 6.1z"/></symbol><symbol id="icon-wheat" viewBox="0 0 26 32"><path d="m12.773 13.93.905-.905c.462-.46.748-1.097.748-1.801v-.009.001-.009c0-.704-.286-1.341-.748-1.801l-.905-.905-.905.905a2.533 2.533 0 0 0-.748 1.801v.009-.001.009c0 .704.286 1.341.748 1.801zm-.543-4.163.543-.543.543.543c.369.368.598.877.598 1.44v.016c0 .563-.229 1.072-.598 1.44l-.543.543-.543-.543a2.03 2.03 0 0 1-.598-1.441v-.015c0-.563.229-1.073.598-1.441zM9.984 4.348h.512v7.969h-.512zm5.12 0h.512v7.969h-.512zm-2.56-1.02h.512v4.589h-.512zm-1.28.512h.512v5.116h-.512zm2.56 0h.512v5.101h-.512z"/><path d="M12.8 14.763a2.56 2.56 0 0 0-2.304-1.451h-1.28v1.28c0 .723.3 1.375.783 1.839l.001.001h-.784v1.28c0 .748.324 1.42.837 1.888h-.837v1.28c0 .756.332 1.435.855 1.904h-.855v1.28a2.562 2.562 0 0 0 2.56 2.56h.768v1.792h.512v-1.792h.768a2.562 2.562 0 0 0 2.56-2.56v-1.28h-.855a2.551 2.551 0 0 0 .855-1.904V19.6h-.837a2.55 2.55 0 0 0 .837-1.888v-1.28H15.6a2.542 2.542 0 0 0 .784-1.84v-1.28h-1.28a2.56 2.56 0 0 0-2.304 1.451zm-3.072-.171v-.768h.768a2.05 2.05 0 0 1 2.048 2.048v.768h-.768c-.122 0-.24-.013-.356-.033a2.394 2.394 0 0 0-.423-.125l-.016-.003a2.051 2.051 0 0 1-1.252-1.887zm3.328 2.56h.272c-.213.206-.39.448-.521.716l-.007.015a2.596 2.596 0 0 0-.527-.731l-.001-.001h.272zm-3.328.56v-.768h.768c.122 0 .24.013.356.033.124.05.271.095.423.125l.016.003a2.05 2.05 0 0 1 1.252 1.887v.768h-.768a2.05 2.05 0 0 1-2.048-2.048zm3.328 2.56h.325a2.596 2.596 0 0 0-.575.764l-.007.015a2.59 2.59 0 0 0-.579-.778l-.002-.002h.325zm-3.328.608v-.768h.768a2.05 2.05 0 0 1 2.048 2.048v.768h-.768a2.05 2.05 0 0 1-2.048-2.048zm3.328 2.56h.343c-.245.22-.446.484-.592.78l-.007.015a2.574 2.574 0 0 0-.596-.793l-.002-.002h.343zm-.512 2.672h-.768a2.05 2.05 0 0 1-2.048-2.048v-.768h.768a2.05 2.05 0 0 1 2.048 2.048zm3.328-2.048a2.05 2.05 0 0 1-2.048 2.048h-.768v-.768a2.05 2.05 0 0 1 2.048-2.048h.768zm0-3.184a2.05 2.05 0 0 1-2.048 2.048h-.768v-.768a2.05 2.05 0 0 1 2.048-2.048h.768zm-.768-3.936h.768v.768a2.05 2.05 0 0 1-2.048 2.048h-.768v-.768a2.05 2.05 0 0 1 1.253-1.887 2.54 2.54 0 0 0 .456-.134l-.017.006c.107-.021.23-.033.356-.033zm.768-2.352a2.05 2.05 0 0 1-1.253 1.887 2.551 2.551 0 0 0-.457.134l.017-.006c-.116.02-.234.033-.356.033h-.768v-.768a2.05 2.05 0 0 1 2.048-2.048h.768zm-11.547 2.41.905-.905c.462-.46.748-1.097.748-1.801v-.018c0-.704-.286-1.341-.748-1.801l-.905-.905-.905.905a2.563 2.563 0 0 0 0 3.62zm-.543-4.163.543-.543.543.543c.369.368.598.878.598 1.441v.008c0 .548-.212 1.062-.598 1.448l-.543.543-.543-.543a2.027 2.027 0 0 1-.598-1.44v-.008c0-.548.212-1.063.598-1.448zM1.536 7.42h.512v7.969h-.512zm5.12 0h.512v7.969h-.512zM4.096 6.4h.512v4.589h-.512zm-1.28.539h.512v5.089h-.512zm2.56-.027h.512v5.095h-.512z"/><path d="M4.352 17.836a2.561 2.561 0 0 0-2.304-1.452H.768v1.28c0 .781.351 1.481.904 1.949l.004.003H.768v1.28c0 .74.317 1.404.82 1.872h-.82v1.28a2.562 2.562 0 0 0 2.56 2.56h.768v1.691h.512v-1.676h.768a2.562 2.562 0 0 0 2.56-2.56v-1.28h-.837a2.55 2.55 0 0 0 .837-1.888v-1.28h-.908a2.549 2.549 0 0 0 .908-1.952v-1.28h-1.28a2.56 2.56 0 0 0-2.304 1.452zm.004 6.392a2.588 2.588 0 0 0-.566-.77l-.002-.001h1.145a2.553 2.553 0 0 0-.577.772zM1.28 17.664v-.768h.768a2.05 2.05 0 0 1 2.048 2.048v.768h-.768a2.05 2.05 0 0 1-2.048-2.048zm3.328 2.56h.396c-.27.23-.489.511-.645.828l-.007.015a2.592 2.592 0 0 0-.648-.841l-.004-.003h.396zm-3.328.672v-.768h.768a2.05 2.05 0 0 1 2.048 2.048v.768h-.768a2.05 2.05 0 0 1-2.048-2.048zm2.048 5.2a2.05 2.05 0 0 1-2.048-2.048v-.768h.768a2.05 2.05 0 0 1 2.048 2.048v.768zm4.096-2.032a2.05 2.05 0 0 1-2.048 2.048h-.768v-.768a2.05 2.05 0 0 1 2.048-2.048h.768zm0-3.168a2.05 2.05 0 0 1-2.048 2.048h-.768v-.768a2.05 2.05 0 0 1 2.048-2.048h.768zm0-3.232a2.05 2.05 0 0 1-2.048 2.048h-.768v-.768a2.05 2.05 0 0 1 2.048-2.048h.768zm13.797-.662.905-.905a2.563 2.563 0 0 0 0-3.62l-.905-.905-.905.905a2.533 2.533 0 0 0-.748 1.801v.01-.001.009c0 .704.286 1.34.748 1.801zm-.543-4.163.543-.543.543.543c.369.368.598.878.598 1.441v.008c0 .548-.212 1.062-.598 1.448l-.543.543-.543-.543a2.03 2.03 0 0 1-.598-1.44v-.008c0-.548.212-1.062.598-1.448zM18.432 7.42h.512v7.969h-.512zm5.12 0h.512v7.969h-.512zm-2.56-1.02h.512v4.589h-.512zm-1.28.512h.512v5.116h-.512zm2.56 0h.512v5.102h-.512z"/><path d="M24.832 17.664v-1.28h-1.28a2.56 2.56 0 0 0-2.304 1.452 2.561 2.561 0 0 0-2.304-1.452h-1.28v1.28c0 .749.325 1.422.84 1.891h-.84v1.28c0 .759.334 1.44.861 1.909h-.861v1.28a2.562 2.562 0 0 0 2.56 2.56h.768v1.715h.512v-1.715h.768a2.562 2.562 0 0 0 2.56-2.56v-1.28h-.861a2.55 2.55 0 0 0 .861-1.909v-1.28h-.84c.514-.468.84-1.142.84-1.891zm-1.28-.768h.768v.768a2.05 2.05 0 0 1-2.048 2.048h-.768v-.768a2.05 2.05 0 0 1 2.048-2.048zm-1.72 3.328a2.598 2.598 0 0 0-.577.767l-.007.015a2.607 2.607 0 0 0-.582-.78l-.002-.002h.84zm-3.656-2.56v-.768h.768a2.05 2.05 0 0 1 2.048 2.048v.768h-.768a2.05 2.05 0 0 1-2.048-2.048zm0 3.171v-.768h.768a2.05 2.05 0 0 1 2.048 2.048v.768h-.768a2.05 2.05 0 0 1-2.048-2.047zm3.328 2.56h.349a2.584 2.584 0 0 0-.598.786l-.007.015a2.605 2.605 0 0 0-.602-.799l-.003-.002h.349zm-.512 2.677h-.768a2.05 2.05 0 0 1-2.048-2.048v-.768h.768a2.05 2.05 0 0 1 2.048 2.048zm3.328-2.048a2.05 2.05 0 0 1-2.048 2.048h-.768v-.768a2.05 2.05 0 0 1 2.048-2.048h.768zm0-3.189a2.05 2.05 0 0 1-2.048 2.047h-.768v-.768a2.05 2.05 0 0 1 2.048-2.048h.768z"/></symbol><symbol id="icon-sunflower" viewBox="0 0 26 32"><path d="M14.568 8.545c.602-.82 1.277-1.945 1.261-2.997-.54.131-1.193 1.023-1.955 2.673.247.084.47.192.694.324zm-4.321 8.494c-.653-.203-2.27-.201-3.143-.122 1.552-.334 2.48-.323 3.48-.083-.267-1.289-3.633-.134-4.357.233 1.41.116 2.598.365 4.021-.027zm.622-.021c.313.405.503.955.632 1.448.05-1.299.096-2.6.187-3.897-.302.358-.564.752-.829 1.137 0-.607.001-1.17.128-1.771-.536.027-1.115.402-1.539.718-.004-.563.018-.848.393-1.416-1.061.171-1.457.307-2.173 1.128.031-1.053.274-1.505 1.056-2.181-.775.308-1.431.509-2.247.668.38-.711.778-1.231 1.413-1.751-.794-.063-1.481-.216-2.123-.702.716-.46 1.334-.491 2.172-.438-.693-.259-1.461-.288-2.207-.546.486-.307.84-.481 1.417-.614-.323-.343-.55-.615-.93-.903.535-.308.95-.41 1.562-.303-.173-.428-.484-.762-.785-1.103.502.025 1.05.03 1.538.159-.272-.43-.389-.78-.32-1.284.509-.065.867.032 1.295.323.068-.459-.032-.907-.12-1.355.447.293.988.612 1.335 1.009.071-.525.146-.947.396-1.42.63.207.823.473.921 1.107.098-.366.212-.724.333-1.084.48.257.694.509.851 1.049.131-.34.281-.561.495-.843.28.48.395.813.368 1.37.171-.238.34-.394.565-.574.213.257.36.455.423.788.321-.328.557-.479 1.011-.483.035.442.008.785-.114 1.218.458-.316.779-.455 1.329-.505-.066.509-.159.923-.379 1.394.385-.13.708-.066 1.084.037-.157.459-.344.935-.682 1.293.64.065 1.116.398 1.589.803-.086.076-.172.153-.263.224.418.257.693.466.812.954-.421.105-.842.209-1.27.283.811.281 1.303.754 1.697 1.502-.508.314-.904.402-1.488.334.484.361.719.686.761 1.285-.534.035-.902.002-1.389-.214.442.593.524.889.599 1.583-.263-.252-.523-.508-.802-.744.241.467.343.765.193 1.268a12.554 12.554 0 0 0-1.15-.746c-.031.135-.07.262-.115.392a9.204 9.204 0 0 1-1.736-1.163c.136.576.165.955.05 1.537-.806-.243-2.25-.567-1.967-1.704a2.776 2.776 0 0 1-.085-.147 612.41 612.41 0 0 0-.3 5.069c.161-.215.359-.384.516-.495.07-2.62 2.943-.895 4.449-2.418-.981 1.34-2.466 2.943-4.305 2.653-.327.235-.645.598-.689 1.013h-.001a95.116 95.116 0 0 0-.046 4.473c.405-1.239 1.042-1.346 1.572-2.369 1.05-3.011 4.718-.716 6.407.415-3.179-.67-7.529-1.032-7.942 3.149.035.762.083 1.795.313 2.525-.385-.052-.866-.063-1.235.057-.158-1.257-.191-2.52-.194-3.786-.021-1.264-.441-3.315-2.066-3.295l-.011.001v-.004c-1.123.21-2.486.322-2.811-1.05 1.244-.515 2.495-.071 3.626.518 1.232-.639 1.309.955 1.152 1.739.047.112.09.229.129.354.02-.965.055-2.038.105-3.217-.116-.705-.331-1.696-.771-2.275-1.788.613-3.672.224-5.492-.004.982-.427 5.689-2.477 5.7-.177zm4.855-5.819-.126.194.088.055a1.47 1.47 0 0 0 .07-.229zm-.276.424-.12.186.098.062a1.38 1.38 0 0 0 .134-.178zm-.27.417-.063.097c.035-.023.069-.047.102-.072zm-.53.312.059-.091-.101-.063-.1.155.041.027zm.209-.322.088-.136-.102-.064-.088.137zm.238-.367.12-.185-.104-.064-.119.185zm.269-.415.124-.192-.106-.064-.123.191zm.274-.422.126-.194-.109-.063-.125.193zm-1.5 1.616c-.037-.026-.073-.048-.111-.072l-.05.076c.055 0 .107-.004.161-.004zm.138-.238.097-.15-.098-.06-.097.148zm.245-.381.089-.138-.094-.059-.091.138zm.238-.37.118-.184-.09-.056-.12.182zm.266-.414.121-.188-.086-.052-.122.186zm.27-.42.123-.191-.083-.048-.124.188zm.272-.421.058-.09a1.765 1.765 0 0 0-.045-.099l-.093.142zm-1.868 2.172.098-.149-.152-.098-.096.146zm.248-.378.094-.143-.155-.096-.092.141zm.245-.373.092-.139-.154-.096-.092.14zm.243-.368.119-.181-.155-.095-.119.18zm.27-.411.121-.184-.155-.094-.119.182zm.272-.413.122-.185-.157-.092-.12.183zm.273-.415.097-.148-.157-.091-.097.148zm-1.93 2.104.093-.141-.187-.12-.093.136zm.244-.37.09-.136-.183-.113-.09.131zm.241-.366.093-.141-.175-.109-.096.141zm.244-.371.118-.179-.168-.104-.121.176zm.269-.409.118-.179-.161-.097-.12.175zm.268-.409.118-.18-.155-.091-.12.176zm.27-.409.096-.146-.149-.086-.098.144zm.247-.376.033-.047a2.252 2.252 0 0 0-.117-.121l-.001-.001-.059.086zm-2.124 2.811-.024.035c.053.02.105.038.158.055zm-.282-.075.054-.079-.126-.085-.065.094.137.07zm.209-.305.09-.132-.128-.083-.088.129zm.245-.358.086-.127-.13-.08-.085.125zm.241-.354.097-.142-.129-.081-.098.142zm.253-.369.12-.175-.13-.08-.119.175zm.275-.402.118-.172-.131-.079-.117.171zm.274-.4.118-.173-.132-.077-.117.171zm.273-.4.097-.142-.132-.076-.096.141zm.252-.368.092-.134c-.039-.032-.08-.063-.12-.094l-.104.152zm-2.397 2.747.074-.109-.135-.09-.073.107c.044.031.088.062.134.091zm.229-.334.085-.125-.136-.088-.083.122zm.24-.352.082-.12-.138-.085-.08.117zm.238-.347.099-.144-.137-.086-.099.145zm.254-.37.119-.174-.138-.085-.119.173zm.274-.401.115-.168-.139-.084-.114.167zm.27-.396.115-.168-.14-.082-.113.166zm.271-.395.095-.139-.141-.081-.095.138zm.25-.366.116-.168c-.047-.028-.093-.056-.14-.082l-.116.17zm-2.377 2.7.063-.091-.148-.099-.047.07c.043.041.087.081.133.121zm.217-.317.08-.118-.151-.097-.079.115zm.236-.345.077-.113-.154-.095-.075.111zm.233-.339.1-.146-.154-.096-.1.147zm.255-.374.118-.172-.156-.096-.117.171zm.273-.398.112-.165-.158-.095-.111.163zm.268-.392.111-.163-.16-.094-.11.161zm.267-.39.094-.138-.162-.093-.093.136zm.248-.364.108-.157a2.388 2.388 0 0 0-.156-.066l-.022-.007-.093.137zm-2.325 2.595.014-.019-.068-.046zm.168-.246.075-.111-.142-.092-.072.109zm.23-.338.072-.106-.147-.091-.07.104zm.227-.334.101-.148-.15-.094-.1.151zm.256-.375.116-.171-.154-.096-.114.171zm.27-.398.109-.16-.159-.096-.106.159zm.264-.388.107-.158-.164-.096-.105.157zm.262-.385.092-.135-.169-.097-.089.135zm.247-.362.061-.09a3.029 3.029 0 0 0-.204-.05l-.028.042zm-2.123 2.333.069-.104-.199-.128-.069.099zm.222-.333.067-.1-.196-.121-.066.095zm.219-.328.101-.152-.189-.118-.104.151zm.253-.38.113-.17-.183-.113-.116.168zm.266-.399.104-.156-.178-.107-.106.153zm.258-.385.103-.154-.174-.102-.104.15zm.255-.383.089-.133-.168-.096-.09.13zm-1.677 1.601.063-.091-.109-.067-.057.092zm.219-.318.105-.152-.129-.08-.097.158zm.261-.378.115-.166-.15-.093-.106.171zm.271-.392.104-.151-.172-.103-.094.153zm.261-.377.102-.147-.194-.113-.092.149zm.257-.374.05-.072-.137.021zM10.782 9.64c-1.381-.74-2.865-.995-4.349-.311.868.144 1.551.275 2.341.719l1.058.155v.002a2.55 2.55 0 0 1 .973.075 1.78 1.78 0 0 1-.024-.64zm.322.072.098-.159-.11-.069a1.448 1.448 0 0 0-.038.19l-.001.008zm.243-.394.104-.17-.162-.101a1.414 1.414 0 0 0-.095.164l-.004.009zm.249-.403.093-.151-.086-.052a1.439 1.439 0 0 0-.137.122zM7.534 7.843a1.85 1.85 0 0 0-.821.107c.264.253.499.534.758.79a5.535 5.535 0 0 1 1.121-.07 21.842 21.842 0 0 1-1.399-.646zm1.302-.776c-.364-.2-.807-.236-1.214-.264.189.245.366.524.461.82.444-.124.863-.096 1.304.03a6.782 6.782 0 0 1-.551-.586zm2.897 20.81c.212-.03.43-.034.643-.026-.532-2.364-.165-9.813.126-13.927a1.444 1.444 0 0 0-.525.337l.011.001c-.306 3.839-.617 11.085-.255 13.615zm-1.057-6.379c-.125-.271-.323-.489-.637-.58-.06.04-.054.041-.122.058.278.104.534.278.758.522zm-.399-.706c.363.155.588.44.721.793-.009-.437-.136-1.029-.721-.793zm-3.209-.403c.558-.136 1.314.056 2.425.242-.82-.375-1.859-.695-2.748-.385.325 1.019 1.97.725 2.752.547-.651-.132-1.938-.434-2.429-.405zm6.197-2.031c.69-.533 1.897-.461 2.785-.98-.876.649-2.268.875-2.739 1.317 1.158.099 2.381-.739 3.129-1.56-1.009.396-2.991-.144-3.174 1.223zm1.105 3.334c1.337-1.033 2.8-.464 4.236.112-.704-.134-2.715-1.3-4.532.594 1.467-.774 3.534-.645 5.12-.413-1.148-.763-3.941-1.998-4.823-.292zM13.303 7.998c.067-.656.19-1.22.371-1.689.149-.524.222-1.116.012-1.634-.445.734-.573 1.842-.383 3.323zm1.53-1.982a1.21 1.21 0 0 0-.22-.674c-.723.67-.961 1.85-1.046 2.791l.042.01c.431-.938.839-1.646 1.224-2.127zm-1.8 2.036c-.127-.982-.119-1.812.026-2.49h-.004c-.069-.578-.245-.979-.529-1.202-.327 1.01-.832 2.79-.239 3.745.247-.053.494-.069.746-.053zm-1.019.129c-.337-.607-.299-1.439-.195-2.113.007-.564.064-1.531-.562-1.802-.328.766-.36 2.145-.361 2.972.222.34.446.727.672 1.16.137-.089.287-.162.447-.217zm-1.388-1.336c.008-.401.027-.767.056-1.096-.212-.347-.577-.604-.908-.829a2.77 2.77 0 0 1-.019.957c.331.277.619.62.872.968zm.392 2.117c-.39-.275-.74-.54-1.049-.795-.76-.349-1.388-.5-2.169-.147 1.001.463 2.061.848 3.041 1.342.042-.142.102-.272.177-.399zm.328-.394c-.488-.942-1.626-2.98-2.883-2.947-.019 1.13 1.897 2.542 2.715 3.119.052-.061.108-.119.168-.172zm-2.221 1.807c-.99-.146-2.123-.275-2.846.044.526.285 1.365.418 1.954.424.276-.19.577-.353.892-.469zm2.221 1.042c-.581.029-1.119.187-1.664.39l.005.009c-.636.408-1.439 1.031-1.669 1.79.559-.441 1.376-.586 2.062-.681.415-.481 1.058-.916 1.675-1.077a3.377 3.377 0 0 1-.409-.431zm-.456-.822c-1.502-.531-3.084.674-3.874 1.867 1.4-.332 2.748-1.18 4.145-1.307a2.663 2.663 0 0 1-.271-.561zm-1.128 3.503c.363-.221.864-.443 1.292-.438.161-.585.48-1.242 1.007-1.571l-.026-.018c-.953.116-2.065 1.083-2.273 2.027zm2.566-1.839c-.832.339-1.131 1.755-1.181 2.558.709-.962 1.02-1.071 1.383-1.195-.141-.423-.175-.845-.037-1.273a8.735 8.735 0 0 1-.166-.089zm.765 2.393c.076.584 1.039.843 1.507.988.065-.493-.076-1.081-.217-1.547l-.101-.11c-.04.582-.246.939-.797 1.149a7.522 7.522 0 0 1-.392-.48zm-.348-2.187c-.251.852.289 1.713.818 2.338.421-.22.469-.741.444-1.164-.22-.317-.35-.631-.386-.94a3.33 3.33 0 0 1-.876-.233zm3.921 2.476c.308.169.608.356.898.553-.055-.409-.354-.916-.601-1.234a2.853 2.853 0 0 0-.335-.17c.063.268.075.554.038.85zm-2.764-2.222c.165 1.05 1.589 2.005 2.434 2.496.313-1.274-.354-2.171-1.523-2.628a2.559 2.559 0 0 1-.911.132zm1.252-.284c.595.278 1.111.705 1.367 1.322.548.18.985.516 1.41.895-.406-.919-1.603-1.964-2.451-2.448a1.79 1.79 0 0 1-.326.23zm.522-.434a7.976 7.976 0 0 1 1.62 1.303l.001-.002c.513.302.951.528 1.561.519-.242-1.014-2.276-1.639-3.133-1.881zm.198-.304c.661.19 1.221.392 1.681.606l.001-.002c.621.223 1.35.373 1.967.057-.731-1.234-2.142-1.442-3.461-1.339a1.757 1.757 0 0 1-.187.678zm.187-.953a6.644 6.644 0 0 1 1.176.008l.001-.005c.503.07 1.375-.147 1.872-.268-.141-.237-.471-.451-.703-.585-.702.454-1.544.622-2.37.646.012.068.02.136.024.204zm-.571-1.392c.472-.385.942-.604 1.411-.657.36-.234.601-.713.748-1.104-.349-.066-.672-.015-.957.204a5.734 5.734 0 0 1-1.294 1.445c.032.037.063.074.092.112zm.483.915c.89-.018 1.802-.208 2.515-.769-.937-.733-1.884-.707-2.839.078a2.78 2.78 0 0 1 .323.691zm1.006-3.981c-.416.099-.834.383-1.163.646-.246.623-.624 1.224-1.019 1.763.149.106.286.222.411.344.883-.715 1.566-1.62 1.77-2.754z"/></symbol><symbol id="icon-rye" viewBox="0 0 32 32"><path d="M27.352 32a.614.614 0 0 0 0-1.228h-7.209l1.385-3.231a2.05 2.05 0 0 0 .463-.004 2.116 2.116 0 0 0 1.051-.43l-.005.004 2.986-2.167c.456-.331.755-.825.84-1.389a2.166 2.166 0 0 0-.318-1.486l1.052-.787a2.14 2.14 0 0 0 .515-2.87l1.052-.787a2.12 2.12 0 0 0 .833-1.407 2.13 2.13 0 0 0-.191-1.239l1.813-4.231a.614.614 0 0 0-.318-.805l-.004-.002a.614.614 0 0 0-.805.318l-.002.004-1.611 3.758a2.13 2.13 0 0 0-.681-.222l-.012-.001a2.14 2.14 0 0 0-.798.034l.015-.003 2.412-5.634a.614.614 0 0 0-1.127-.487l-.002.004-2.413 5.636a2.167 2.167 0 0 0-.515-.589l-.005-.003a2.125 2.125 0 0 0-.624-.343l-.015-.005 1.611-3.759a.614.614 0 0 0-1.127-.487l-.002.004-1.813 4.232a2.142 2.142 0 0 0-1.474 2.29l.156 1.305a2.14 2.14 0 0 0-1.723 2.353l.156 1.305a2.14 2.14 0 0 0-1.723 2.353l.437 3.665c.066.555.342 1.053.778 1.405l-1.585 3.699h-2.191v-9.094a2.12 2.12 0 0 0 1.268-.985l1.845-3.196c.285-.493.36-1.069.212-1.622a2.127 2.127 0 0 0-.869-1.22l.657-1.138a2.14 2.14 0 0 0-.657-2.841l.657-1.138a2.142 2.142 0 0 0-.452-2.685V2.25a.614.614 0 0 0-1.228 0v4.089a2.132 2.132 0 0 0-.739.072l.015-.004c-.271.074-.507.19-.715.342l.006-.004V.615a.614.614 0 0 0-1.228 0v6.13a2.13 2.13 0 0 0-1.441-.405h.008V2.251a.614.614 0 0 0-1.228 0v4.604a2.141 2.141 0 0 0-.452 2.685l.657 1.138a2.14 2.14 0 0 0-.657 2.841l.657 1.138c-.43.29-.746.735-.878 1.241a2.087 2.087 0 0 0 .225 1.608l1.888 3.163c.191.339.461.613.786.803l.01.005c.121.071.262.135.409.182l.015.004v9.111h-2.196l-1.586-3.699c.435-.353.712-.85.778-1.405l.437-3.665a2.14 2.14 0 0 0-1.723-2.353l.156-1.305a2.14 2.14 0 0 0-1.723-2.353l.156-1.305a2.14 2.14 0 0 0-1.474-2.29L6.397 8.167a.614.614 0 1 0-1.127.487l-.002-.004 1.611 3.759a2.133 2.133 0 0 0-.643.351l.004-.003a2.149 2.149 0 0 0-.516.585l-.005.01-2.412-5.638a.615.615 0 0 0-.809-.322l.004-.002a.615.615 0 0 0-.322.809l-.002-.004 2.41 5.633a2.118 2.118 0 0 0-.792-.029l.012-.001a2.143 2.143 0 0 0-.704.229l.012-.006-1.611-3.759a.614.614 0 1 0-1.127.487l-.002-.004 1.813 4.232a2.142 2.142 0 0 0 .642 2.646l1.052.787a2.14 2.14 0 0 0 .515 2.87l1.052.787c-.28.436-.397.97-.318 1.486.085.565.384 1.058.84 1.389l2.985 2.167c.29.225.647.378 1.036.425l.01.001a2.21 2.21 0 0 0 .473.003l-.009.001 1.385 3.231H4.643a.614.614 0 0 0 0 1.228h22.704zM16.027 15.358l-.024.042-.024-.042a2.159 2.159 0 0 0-.491-.58l-.004-.003 1.607-2.783c.121-.209.317-.359.553-.422s.481-.032.69.089a.91.91 0 0 1 .333 1.243l-.801 1.387a2.193 2.193 0 0 0-.555.077l.015-.004a2.123 2.123 0 0 0-1.299.994zm-2.689-2.455c-.251-.435-.101-.992.333-1.243s.992-.101 1.243.333l.379.656-.954 1.652a1.93 1.93 0 0 0-.2-.011l-.801-1.387zm4.305-5.312a.903.903 0 0 1 .69.089.91.91 0 0 1 .333 1.243l-.801 1.387a2.193 2.193 0 0 0-.555.077l.015-.004a2.123 2.123 0 0 0-1.299.994l-.024.042-.024-.042a2.159 2.159 0 0 0-.491-.58l-.004-.003 1.607-2.783a.903.903 0 0 1 .553-.422zm-2.728.423.379.655-.954 1.653a2.362 2.362 0 0 0-.199-.011h-.001l-.801-1.387a.91.91 0 0 1 1.576-.91zm-1.673 8.191a.91.91 0 0 1 1.672-.233l.379.656-1.036 1.794-.924-1.548a.866.866 0 0 1-.091-.669zm2.024 3.906-.01-.016a.927.927 0 0 1-.099-.229l-.002-.006a.903.903 0 0 1 .089-.69l1.846-3.196a.903.903 0 0 1 .553-.422.896.896 0 0 1 .69.089c.209.121.359.317.422.553s.032.481-.089.69l-1.845 3.196a.903.903 0 0 1-.553.422.903.903 0 0 1-.239.032h-.025.001-.004a.889.889 0 0 1-.426-.123l.004.002a.91.91 0 0 1-.31-.297l-.002-.004zm-5.23-1.911-.19 1.591a2.138 2.138 0 0 0-1.269 1.706l-.006.049-.039-.029a2.107 2.107 0 0 0-.669-.337l-.015-.004.381-3.191c.059-.498.513-.855 1.011-.796s.855.513.796 1.011zm-3.033-4.479a.9.9 0 0 1 .669-.19.911.911 0 0 1 .796 1.011l-.19 1.591a2.138 2.138 0 0 0-1.269 1.706l-.006.049-.039-.029a2.107 2.107 0 0 0-.669-.337l-.015-.004.381-3.191a.904.904 0 0 1 .342-.606zm-3.615 1.646c.145-.193.357-.319.599-.354s.481.026.671.167l.61.464-.225 1.887c-.064.02-.127.043-.188.069l-1.283-.96a.91.91 0 0 1-.183-1.274zm1.567 3.658a.91.91 0 0 1 1.274-.183l.607.454-.226 1.895a2.33 2.33 0 0 0-.188.068l-1.283-.96a.912.912 0 0 1-.184-1.274zm1.396 4.347a.905.905 0 0 1 .77-1.043.906.906 0 0 1 .675.17l.607.454-.245 2.057-1.459-1.059a.87.87 0 0 1-.348-.579zm3.398 2.793-.015-.011a.906.906 0 0 1-.184-.176l-.001-.002a.902.902 0 0 1-.19-.669l.437-3.665a.911.911 0 0 1 1.807.215l-.437 3.665a.904.904 0 0 1-.566.736l-.006.002-.002.001-.002.001a.907.907 0 0 1-.844-.1l.003.002zm14.578-12.634c.239-.029.477.039.669.19s.313.366.342.606l.381 3.191a2.134 2.134 0 0 0-.689.345l.005-.004-.039.029-.006-.049a2.14 2.14 0 0 0-1.269-1.706l-.19-1.591a.911.911 0 0 1 .796-1.011zm-1.567 3.657a.9.9 0 0 1 .278.01l-.006-.001.014.003a.912.912 0 0 1 .725.784l.381 3.191a2.134 2.134 0 0 0-.689.345l.005-.004-.039.029-.006-.049a2.138 2.138 0 0 0-1.269-1.706l-.19-1.591a.911.911 0 0 1 .796-1.011zm-1.351 9.074-.001-.001h-.001a.89.89 0 0 1-.233-.135l.002.001a.904.904 0 0 1-.342-.606l-.437-3.665a.911.911 0 0 1 .904-1.017c.454 0 .848.34.903.802l.437 3.665a.9.9 0 0 1-.373.845l-.003.002-.015.011a.885.885 0 0 1-.401.153h-.004a.9.9 0 0 1-.443-.058l.006.002zm4.24-2.891a.865.865 0 0 1-.348.579l-1.459 1.059-.245-2.057.607-.454c.193-.145.433-.205.675-.17s.454.16.599.354a.91.91 0 0 1 .171.689zm1.212-3.073-1.283.96a1.743 1.743 0 0 0-.173-.064l-.015-.004-.226-1.895.607-.454c.193-.145.433-.205.675-.17s.454.16.599.354a.912.912 0 0 1-.183 1.274zm1.921-4.256a.9.9 0 0 1-.354.599l-1.283.96a1.678 1.678 0 0 0-.174-.064l-.015-.004-.226-1.892.607-.457a.9.9 0 0 1 .675-.17.901.901 0 0 1 .769 1.029z"/></symbol><symbol id="icon-rapseed" viewBox="0 0 26 32"><path d="M24.028 13.647c-.433-1.371-1.16-2.067-2.162-2.067-.326 0-.669.08-1.017.219-.213-.136-.502-.212-.839-.212-.357 0-.743.083-1.116.239a3.075 3.075 0 0 0-.701.407l.007-.005a1.485 1.485 0 0 1-.453.228c-.13.044-.242.102-.344.173l.004-.003a8.27 8.27 0 0 0-.254-1.61l-.04-.136a3.51 3.51 0 0 0 .274-.162c.841-.551 1.286-1.309 1.015-1.729l-.001-.003v-.001c-.111-.169-.318-.259-.601-.259-.405 0-.913.18-1.392.494a3.682 3.682 0 0 0-.158.11 1.82 1.82 0 0 0-1.282-.511c-.513 0-1.096.189-1.734.56-1.005.578-1.537 1.248-1.594 1.997-.23-.725-.448-1.406-.639-2.004.23-.24.446-.474.656-.701.548-.592 1.018-1.099 1.434-1.399.12.203.352.332.616.332.144 0 .28-.036.399-.098l-.005.002a.855.855 0 0 1 .28-.096c.179-.026.341-.073.493-.138l-.012.005c.296-.125.548-.311.707-.526.171-.23.219-.466.135-.666l-.004-.008-.002-.004c-.105-.231-.379-.369-.74-.369-.223 0-.463.051-.694.148a1.895 1.895 0 0 0-.436.253l.004-.003a.879.879 0 0 1-.264.133.615.615 0 0 0-.068.026l.007-.002c-.353.148-.552.498-.488.821-.447.31-.935.838-1.507 1.454-.187.202-.378.409-.58.621l-.517-1.605a.845.845 0 0 0 .5-.179l-.002.001a.852.852 0 0 1 .258-.145c.171-.058.319-.132.455-.222l-.007.004c.575-.377.844-.95.619-1.313l-.002-.003-.005-.008c-.11-.168-.315-.261-.575-.261-.276 0-.599.107-.883.293a1.937 1.937 0 0 0-.378.322l-.001.002a.792.792 0 0 1-.168.138l-.003.002a1.466 1.466 0 0 0-.038-.02.88.88 0 0 1-.248-.162 1.907 1.907 0 0 0-.391-.292l-.01-.005a1.725 1.725 0 0 0-.823-.236c-.295 0-.527.111-.635.303l-.004.008-.001.003c-.099.187-.077.422.064.665.134.231.363.445.643.603.133.077.287.141.449.184l.013.003a.87.87 0 0 1 .267.128c.133.09.297.145.473.145a.788.788 0 0 0 .109-.008c.044.327.155.868.341 1.716a8.72 8.72 0 0 1-1.167-.7l.027.018c-.333-.229-.557-.383-1.075-.515.027-.318-.193-.639-.546-.76a.684.684 0 0 0-.057-.017l-.005-.001a.9.9 0 0 1-.273-.114 1.912 1.912 0 0 0-.434-.216l-.013-.004a1.85 1.85 0 0 0-.6-.104h-.001c-.408 0-.717.161-.815.422l-.002.005-.003.007c-.14.41.264.906.921 1.132.163.056.327.09.488.101.087.006.178.03.286.077a.848.848 0 0 0 .343.071c.302 0 .556-.158.662-.404.483.124.69.265 1.013.487.27.186.632.435 1.307.767l.204.915.026.114c-.682-.18-1.27-.296-1.819-.365a.896.896 0 0 0-.215-.29l-.001-.001a1.374 1.374 0 0 0-.851-.335h-.004a1.665 1.665 0 0 1-.467-.082 3.264 3.264 0 0 0-.706-.16l-.016-.002a3.38 3.38 0 0 0-.418-.025c-.837 0-1.458.306-1.514.745v.003l-.001.002c-.061.526.691 1.032 1.714 1.152a3.26 3.26 0 0 0 .754.008l-.014.001c.137-.014.289-.005.473.028.082.015.176.024.272.024h.002c.56 0 1.001-.301 1.049-.716a.736.736 0 0 0-.001-.148v.003c.544.072 1.132.193 1.812.376-.087-.6.098.221.278 1.043l.256 1.392a1.827 1.827 0 0 0-1.341.381 8.403 8.403 0 0 0-1.271-.356 1.035 1.035 0 0 0-.273-.602 1.3 1.3 0 0 0-.916-.414h-.002A1.498 1.498 0 0 1 7 12.068a2.98 2.98 0 0 0-.764-.192l-.014-.001a3.12 3.12 0 0 0-.376-.022c-.93 0-1.653.416-1.72.99v.012c-.033.325.141.651.492.918.34.259.811.434 1.325.495.273.032.547.029.802-.008.148-.021.31-.014.507.024.079.016.17.025.262.025h.001c.606 0 1.11-.4 1.173-.931a7.75 7.75 0 0 1 1.097.304c-.506.47-.85 1.172-1.074 1.802-.379 1.064-.55 2.31-.532 3.183a.98.98 0 0 0-.094.02 8.43 8.43 0 0 0-.592-1.107c-.885-1.407-2.314-2.91-3.67-2.91-.862 0-1.586.587-2.152 1.744-.532 1.07-.592 1.951-.177 2.62.719 1.16 2.618 1.333 3.686 1.333.635 0 1.266-.062 1.793-.162a.782.782 0 0 0-.097.186l-.002.006c-1.492.531-3.476 1.71-3.915 3.097-.302.955.141 1.858 1.317 2.684.675.48 1.301.724 1.861.724 1.016 0 1.809-.788 2.291-2.279.429-1.326.517-3.039.338-3.917a.815.815 0 0 0 .156.18c.138.409.424.926.702 1.352.923 1.414 2.406 2.926 3.796 2.926.89 0 1.616-.611 2.156-1.817.488-1.073.523-1.947.104-2.599-.279-.434-.729-.719-1.231-.905a9.823 9.823 0 0 0 1.703-1.885c.128-.185.435-.645.606-1.056 0 .078.012.154.033.226l-.001-.006c-.246.898-.24 2.744.166 4.133.425 1.455 1.193 2.224 2.221 2.224.53 0 1.131-.209 1.785-.62 1.247-.774 1.735-1.671 1.452-2.664-.434-1.522-2.584-2.832-4.025-3.372a.796.796 0 0 0-.038-.181l.002.006c.83.273 1.921.483 2.906.483 1.265 0 2.179-.337 2.644-.975.433-.596.478-1.441.133-2.512zm-8.54-7.532c-.22.242-.739.591-.935.642a.1.1 0 0 0-.066.094.1.1 0 0 0 .118.098h-.001c.216-.056.665-.354.932-.602a.653.653 0 0 1-.131.289c-.139.186-.36.35-.625.461a1.65 1.65 0 0 1-.421.119l-.009.001a1.062 1.062 0 0 0-.343.116.659.659 0 0 1-.303.074c-.217 0-.397-.108-.47-.282-.105-.251.05-.556.346-.68l.047-.018a1.04 1.04 0 0 0 .323-.164 1.66 1.66 0 0 1 .375-.219l.011-.004c.207-.087.421-.133.617-.133.253 0 .447.077.535.208zM7.503 8.421a.652.652 0 0 1-.269-.057l.004.002a1.053 1.053 0 0 0-.35-.092 1.706 1.706 0 0 1-.449-.094l.012.004c-.429-.147-.749-.436-.805-.697.284.229.752.496.972.538a.099.099 0 0 0 .12-.097.1.1 0 0 0-.083-.098h-.001c-.199-.038-.74-.35-.976-.577.088-.154.313-.248.607-.248.172 0 .357.032.536.094.153.052.285.119.407.2l-.006-.004c.091.061.197.106.333.142a.442.442 0 0 1 .048.015c.304.104.48.398.392.655-.066.191-.259.314-.494.314zm1.252 2.042c-.036.308-.402.541-.852.541-.084 0-.167-.008-.247-.023l.008.001a2.114 2.114 0 0 0-.379-.038h-.004c-.051 0-.102.003-.152.008l.006-.001a3.264 3.264 0 0 1-.713-.01l.016.002c-.761-.089-1.389-.419-1.517-.766.477.227 1.345.478 1.703.478.055 0 .099-.044.099-.099s-.044-.099-.099-.099c-.323 0-1.285-.274-1.712-.506.096-.3.625-.512 1.304-.512.13 0 .262.008.395.023.24.028.469.079.68.153.15.052.315.081.521.092.027.001.054.004.082.007.255.03.487.128.65.276.154.141.229.309.21.473zm-.269 2.891c-.05.432-.47.757-.976.757-.08 0-.158-.008-.234-.023l.008.001a1.88 1.88 0 0 0-.374-.04h-.005c-.069 0-.136.005-.202.015l.007-.001a2.887 2.887 0 0 1-.75.008c-.479-.056-.915-.218-1.228-.456-.275-.209-.42-.452-.417-.69.503-.182 1.598-.27 1.937-.18a.1.1 0 0 0 .118-.098.101.101 0 0 0-.066-.094h-.001c-.381-.101-1.383-.016-1.94.148.168-.384.75-.648 1.477-.648a2.887 2.887 0 0 1 1.081.2c.162.064.341.098.564.107a1.106 1.106 0 0 1 .779.35c.17.185.248.413.221.643zm9.425 3.035a.616.616 0 0 1-.343 1.132.618.618 0 0 1-.605-.492l-.001-.004a.618.618 0 0 1 .951-.635l-.002-.001zm2.938 6.304c-.622.391-1.187.59-1.679.59-1.175 0-1.752-1.132-2.03-2.081-.399-1.364-.371-2.939-.213-3.794a.815.815 0 0 0 1.32-.049l.002-.003a.802.802 0 0 0 .125-.32c1.385.537 3.437 1.8 3.842 3.217.256.898-.204 1.719-1.366 2.441zm-5.461.574c-.505 1.128-1.17 1.7-1.975 1.7-1.313 0-2.776-1.528-3.63-2.836a7 7 0 0 1-.596-1.088.819.819 0 0 0 1.076-.774.825.825 0 0 0-.073-.337 9.802 9.802 0 0 1 2.066-.222c.938 0 2.607.149 3.25 1.148.38.591.34 1.401-.119 2.409zm-7.156 1.296c-.316.977-.937 2.141-2.102 2.141-.518 0-1.105-.231-1.746-.687-1.097-.771-1.515-1.599-1.242-2.462.402-1.273 2.254-2.392 3.679-2.927l-.002.045a.819.819 0 0 0 .817.817.817.817 0 0 0 .733-1.176.138.138 0 0 1 .037.016h-.001c.302.219.416 2.408-.174 4.232zm-6.389-8.06c.53-1.084 1.194-1.633 1.974-1.633 1.276 0 2.646 1.455 3.502 2.817.252.4.444.771.577 1.079a.816.816 0 0 0-.32 1.087l-.032.01a.779.779 0 0 0-.249.07l.005-.002a9.129 9.129 0 0 1-2.126.239c-1.747 0-3.028-.452-3.517-1.239-.376-.606-.314-1.422.185-2.427zm9.039-6.162c-.174-.775-.343-1.528-.461-2.105-1.201-4.47-.643-2.761-.091-1.05l1.726 6.186a2.607 2.607 0 0 0-.531-.18l-.018-.003c-.483-2.448-.7-3.407-.923-4.364l.297 1.517zM8.226 5.923c.326.025.921.22 1.082.344a.099.099 0 0 0 .139-.018.098.098 0 0 0 .02-.06.099.099 0 0 0-.039-.079c-.177-.136-.687-.307-1.047-.366a.67.67 0 0 1 .329-.074c.227 0 .485.074.726.21.135.076.255.165.359.266.079.077.175.141.302.2l.045.023c.28.157.4.478.267.715a.478.478 0 0 1-.429.23.658.658 0 0 1-.366-.114l.002.001a1.048 1.048 0 0 0-.328-.154 1.736 1.736 0 0 1-.422-.172l.008.004a1.498 1.498 0 0 1-.568-.529c-.092-.159-.12-.308-.08-.426zm2.312.253c.099-.11.211-.205.333-.286l.007-.004c.253-.166.536-.261.775-.261.105 0 .196.019.269.054-.355.083-.852.289-1.02.436a.098.098 0 0 0-.034.075c0 .055.044.099.099.099h.001a.098.098 0 0 0 .066-.025c.152-.134.732-.37 1.056-.417.11.268-.141.708-.582.997a1.659 1.659 0 0 1-.389.192l-.012.004c-.105.035-.205.09-.317.176a.646.646 0 0 1-.35.135h-.002a.64.64 0 0 0 .146-.173c.158-.282.071-.643-.188-.874a.954.954 0 0 0 .145-.128zm4.426 2.843c.465 0 .832.172 1.123.436a3.239 3.239 0 0 0-.244.221 1.718 1.718 0 0 1-.373.275c-.034.019-.06.035-.085.052l.006-.004c-.302.198-.503.478-.569.75-.931.398-2.074.954-2.797 1.598a2.19 2.19 0 0 1-.13-.352l-.004-.016c-.245-.919.238-1.735 1.439-2.426.607-.354 1.157-.534 1.634-.534zm2.833-.094c.096 0 .212.013.307.06-.497.135-1.295.494-1.563.715a.099.099 0 1 0 .127.152c.242-.201 1.128-.602 1.592-.702.111.305-.235.91-.985 1.4-.198.13-.401.235-.605.314a1.917 1.917 0 0 0-.448.258.805.805 0 0 1-.061.043l-.005.003c-.203.133-.43.206-.638.206-.209 0-.372-.073-.46-.206-.181-.277.016-.728.439-1.005a.976.976 0 0 1 .069-.042c.175-.1.307-.197.416-.307.157-.157.331-.298.518-.421l.012-.008c.442-.289.922-.462 1.284-.462zm-.837 2.143c.153.557.233 1.146.262 1.709-.281.277-.412.659-.332 1.016-.893.339-1.631.68-2.342 1.066l.101-.05c-.99-.566-2.038-1.382-2.532-2.28.667-.614 1.762-1.157 2.681-1.554.006.11.037.214.096.305.123.188.351.296.626.296.246 0 .511-.085.746-.239l.076-.053c.146-.109.274-.183.401-.232.063-.025.126-.052.189-.081l.028.098zm.093 5.156a.613.613 0 0 1-.344-.105l.002.001a.613.613 0 0 1-.262-.389l-.001-.004a.618.618 0 1 1 .976.374l-.002.001a.81.81 0 0 0-.301.12l.003-.002a.72.72 0 0 1-.07.005zm-7.101 3.405c.097-.027.195-.056.296-.088.028.054.058.106.087.156a7.669 7.669 0 0 0-.257.055.793.793 0 0 0-.124-.122l-.002-.001zm.487-.151a9.855 9.855 0 0 0 1.842-.841l-.047.025c.029.299.049.583.061.849h-.039c-.585 0-1.184.056-1.713.147a3.86 3.86 0 0 1-.104-.18zm1.983-.929a6.17 6.17 0 0 0 .999-.759c.233.78.424 1.442.548 1.909a6.967 6.967 0 0 0-1.474-.185 16.288 16.288 0 0 0-.079-1.039l.006.073zm3.929-1.971a.618.618 0 0 1-.859.17l.002.001a.613.613 0 0 1-.262-.389l-.001-.004a.618.618 0 0 1 1.027-.573.811.811 0 0 0 .192.37l-.001-.001a.605.605 0 0 1-.099.427l.001-.002zm-2.191-1.209-.018-.046c.09-.057.255-.152.422-.243l.083-.042c.238.136.531.283.832.413l.06.023a.792.792 0 0 0-.196.111 9.448 9.448 0 0 0-1.133-.211l-.052-.005zm-.105-.226c-.211-.394-.558-.783-1.04-1.166a4.818 4.818 0 0 0-.686-.469l-.024-.013-.183-.58c.538.789 1.44 1.492 2.319 2.006-.132.073-.26.147-.387.222zm3.252-.313c.024-.126.044-.262.061-.405.079.045.164.081.254.106a6.58 6.58 0 0 0-.227.333.585.585 0 0 0-.082-.032l-.005-.002zm-.352-.846a.957.957 0 0 0 .23.309c-.02.182-.044.349-.072.5-.019-.001-.038-.004-.058-.004h-.002a.815.815 0 0 0-.811.727v.004l-.035-.011a.777.777 0 0 0-.241-.08l-.005-.001a8.275 8.275 0 0 1-1.102-.503c.562-.304 1.253-.62 1.963-.896l.132-.045zm4.011-1.787c-.347.406-1.26 1.022-1.599 1.111a.1.1 0 0 0 .03.195l.021-.002h-.001c.38-.1 1.21-.666 1.616-1.082.051.492-.478 1.107-1.284 1.446-.24.101-.483.168-.723.201a1.677 1.677 0 0 0-.543.184 1.132 1.132 0 0 1-.528.129c-.383 0-.701-.192-.831-.502-.187-.444.084-.983.603-1.201a.89.89 0 0 1 .074-.029l.008-.002a1.67 1.67 0 0 0 .512-.26c.188-.145.401-.271.631-.368l.019-.007a2.73 2.73 0 0 1 1.039-.224c.463 0 .815.152.958.411zm-8.075 1.934c1.028.817 1.403 1.651 1.114 2.479-.493 1.414-2.797 2.519-4.304 2.883a.8.8 0 0 0-.594.033l.005-.002c.001-.016.003-.033.003-.05a.817.817 0 0 0-.742-.813H8.37a9.473 9.473 0 0 1 .521-3.109c.359-1.009 1.032-2.213 2.196-2.213.543.001 1.149.267 1.803.792zm-4.592 4.725a.617.617 0 0 1 .582.825.815.815 0 0 0-.182.26l-.002.005a.618.618 0 0 1-1.015-.473c0-.341.277-.618.618-.618zm-.663 1.199c.034 0 .067.004.1.009a.81.81 0 0 0 .362.201.616.616 0 0 1-.463 1.026.618.618 0 0 1 0-1.236zm1.193.214a.618.618 0 0 1 1.236 0 .618.618 0 0 1-1.236 0zm5.36-.509a62.618 62.618 0 0 0-.609-2.13c.28-.298.495-.617.612-.954a1.799 1.799 0 0 0 .034-1.114l.003.013c.38.051.703.112 1.02.188l-.067-.014-.025.033a.805.805 0 0 0-.121.619l-.001-.005a.81.81 0 0 0 .348.519.816.816 0 0 0 1.261-.569v-.004a.17.17 0 0 1 .021.035v.001c.047.126-.096.622-.685 1.469a9.426 9.426 0 0 1-1.766 1.922l-.026-.008zm3.832-3.536a.815.815 0 0 0-.313-.125l-.005-.001c.01-.013.021-.026.03-.04a.817.817 0 0 0-.168-1.089l-.002-.001c.074-.115.159-.239.258-.373l.018-.024a1.334 1.334 0 0 0 .741-.149l-.007.004a1.51 1.51 0 0 1 .48-.164c.257-.035.517-.108.773-.215 1.018-.428 1.611-1.251 1.349-1.873a.775.775 0 0 0-.153-.231c.289-.104.573-.164.843-.164.906 0 1.57.649 1.973 1.929.324 1.008.289 1.794-.105 2.335-.538.739-1.648.893-2.484.893-1.105 0-2.254-.259-3.045-.544a.854.854 0 0 0-.18-.165l-.003-.002zm-9.435 4.014a.924.924 0 0 0 .047-.019c-.001.016-.003.033-.003.05l.002.042a.523.523 0 0 0-.047-.074l.001.001zm8.284-3.839a.704.704 0 0 0 .049.011c-.01.013-.021.026-.03.04l-.018.03.001-.039a.62.62 0 0 0-.002-.044v.002z"/></symbol><symbol id="icon-millet" viewBox="0 0 26 32"><path d="M12.736 3.581c-.508 0-.952.289-1.177.711a.802.802 0 0 0-1.221.679c0 .233.101.443.262.592a1.082 1.082 0 0 0-.227.994l-.002-.008a.805.805 0 0 0-.567.764.806.806 0 0 0 .421.704l.004.002a1.328 1.328 0 0 0 .112 1.433l-.002-.003a1.335 1.335 0 0 0-.391 1.669l-.004-.008a1.332 1.332 0 0 0 .049 1.961l.002.001a1.069 1.069 0 0 0-.458.875c0 .418.245.784.599.957a1.337 1.337 0 0 0 1.569 1.709l-.009.002c.089.389.391.699.775.798v2.296a17.698 17.698 0 0 0-.603-1.106l.048.088c-.663-1.136-1.578-2.433-2.691-3.074-2.285-1.32-3.705-2.55-4.764-6.505a.267.267 0 0 0-.524.07c0 2.681.229 4.583.876 6.064s1.717 2.518 3.309 3.437c1.421.82 4.16 2.291 4.402 2.421.099.811.335 1.585.685 2.302a6.128 6.128 0 0 0-1.384-.636l-.044-.012a5.325 5.325 0 0 0-1.596-.239 5.44 5.44 0 0 0-1.464.199l.038-.009c-1.124.268-2.417 1.004-3.679 2.284-.223.221.052.578.323.419 3.785-2.186 8.064-.793 8.734-.552 1.597 1.977 4.196 3.255 7.132 3.255a.267.267 0 1 0 0-.534c-2.75 0-5.162-1.173-6.659-2.982.241-2.407 1.475-3.791 2.921-5.407 1.461-1.633 3.124-3.485 3.996-6.743a.267.267 0 0 0-.394-.298l.001-.001c-2.248 1.298-4.442 2.779-5.869 4.777-1.235 1.729-1.885 3.806-1.465 6.46a6.655 6.655 0 0 1-.796-3.161v-2.814c.383-.101.684-.41.773-.797a1.337 1.337 0 0 0 1.559-1.721l.003.009c.353-.175.598-.539.598-.957 0-.361-.181-.681-.459-.875a1.328 1.328 0 0 0 .051-1.962 1.33 1.33 0 0 0-.39-1.657l-.003-.002a1.32 1.32 0 0 0 .108-1.438l.003.007a.807.807 0 0 0 .422-.705.803.803 0 0 0-.561-.762l-.006-.002a1.082 1.082 0 0 0-.23-.989l.001.001a.801.801 0 0 0 .262-.591.802.802 0 0 0-1.224-.677l.003-.002a1.343 1.343 0 0 0-1.179-.711zm.801 1.332v.003a.798.798 0 0 1-.798.798h-.006a.796.796 0 0 1-.796-.796v-.005c0-.437.383-.793.799-.793s.801.349.801.793zm-2.402-.207c.136 0 .248.095.268.222 0 .086.01.17.026.252h-.002c-.122 0-.239.02-.348.058l.008-.002a.262.262 0 0 1-.217-.258v-.006c0-.157.13-.265.265-.265zm3.467.265v.006a.262.262 0 0 1-.215.258h-.002a1.06 1.06 0 0 0-.341-.055h-.001c.017-.075.027-.162.027-.252 0-.053.068-.219.265-.219h.007a.26.26 0 0 1 .259.259v.003zm-3.185.741c.307.002.363.171.575.307a1.061 1.061 0 0 0-.323.761.78.78 0 0 0-.396.107l.004-.002a.823.823 0 0 0-.291-.272l-.004-.002a.552.552 0 0 1-.113-.335v-.004c0-.317.272-.562.549-.56zm2.628.002h.005c.306 0 .554.248.554.554v.007a.549.549 0 0 1-.115.337l.001-.001a.765.765 0 0 0-.292.272l-.002.003a.79.79 0 0 0-.393-.106c0-.298-.124-.567-.322-.76.214-.124.24-.306.564-.306zm-1.309.535c.298 0 .534.234.534.531s-.236.534-.534.534h-.003a.53.53 0 0 1-.53-.53V6.78c0-.297.236-.531.534-.531zm-2.134.799h.006c.145 0 .262.117.262.262v.003a.265.265 0 0 1-.268.268h-.003a.262.262 0 0 1-.262-.262v-.006a.26.26 0 0 1 .265-.265zm4.267 0a.26.26 0 0 1 .266.265v.006a.262.262 0 0 1-.262.262h-.007a.264.264 0 0 1-.264-.264V7.31c0-.145.117-.262.262-.262h.005zm-2.933.533v.004a.262.262 0 0 1-.262.262h-.009a.262.262 0 0 1-.262-.262v-.004a.27.27 0 0 1 .266-.268.27.27 0 0 1 .267.268zm1.867-.268c.15 0 .268.118.268.268s-.118.266-.268.266h-.004a.262.262 0 0 1-.262-.262v-.01c0-.145.117-.262.262-.262h.004zm-.799.802v.003a.262.262 0 0 1-.262.262h-.01a.261.261 0 0 1-.261-.261v-.004c0-.146.117-.264.265-.264h.006c.145 0 .262.117.262.262v.002zm1.472-.105c.048.027.101.05.154.068a.793.793 0 0 1 .239.568v.006c0 .221-.09.421-.236.566a1.337 1.337 0 0 0-.664.017l.009-.002a1.358 1.358 0 0 0-.572-.669l-.006-.003a.765.765 0 0 0 .107-.229l.001-.006a.8.8 0 0 0 .294.056h.011a.777.777 0 0 0 .661-.368l.002-.003zm-3.48 0a.804.804 0 0 0 .974.311l-.005.002c.023.085.06.164.108.236-.26.151-.467.388-.578.672a1.307 1.307 0 0 0-.665-.014l.009-.002a.788.788 0 0 1 .005-1.139.76.76 0 0 0 .155-.07l-.004.002zm1.74.904c.445 0 .801.357.801.801v.003c0 .44-.356.796-.796.796h-.009a.795.795 0 0 1-.795-.795V9.71c0-.44.356-.796.796-.796h.003zm-1.601.801c.095 0 .185.016.269.046.015.438.245.826.588 1.058a1.08 1.08 0 0 0-.194.256 1.054 1.054 0 0 0-.784.232l.002-.002a.796.796 0 0 1-.679-.786v-.005c0-.494.423-.789.798-.8zm3.201 0c.445 0 .799.355.799.799a.794.794 0 0 1-.679.791 1.052 1.052 0 0 0-.787-.229h.005a1.103 1.103 0 0 0-.193-.256c.343-.232.575-.62.59-1.058a.781.781 0 0 1 .266-.046zm-9.825 1.301c1.078 2.82 2.517 3.949 4.447 5.064.946.546 1.854 1.781 2.499 2.881.409.7.511.947.717 1.35a171.108 171.108 0 0 1-3.786-2.089c-1.534-.886-2.488-1.817-3.086-3.187-.435-.998-.686-2.298-.79-4.018zm8.225.032c.298 0 .534.235.534.533s-.236.534-.534.534h-.003a.53.53 0 0 1-.53-.53v-.004a.53.53 0 0 1 .534-.534zm2.459.484a.795.795 0 0 1-.27 1.271l-.005.002a1.092 1.092 0 0 0-.176-.183l-.002-.002a1.07 1.07 0 0 0 .048-.861l.002.007c.148-.054.284-.135.403-.236zm-4.919 0c.119.101.256.18.404.235a1.045 1.045 0 0 0 .053.859l-.003-.006a1.087 1.087 0 0 0-.177.182l-.002.003a.794.794 0 0 1-.482-.73v-.006c0-.207.078-.395.206-.538l-.001.001zm1.393.071c.007.339.174.641.428.832a.74.74 0 0 0-.065.102l-.002.004a.528.528 0 0 1-.346.129h-.007a.53.53 0 0 1-.53-.53v-.004c0-.319.261-.52.522-.533zm2.134 0a.53.53 0 0 1 .521.534v.004a.53.53 0 0 1-.529.529h-.005a.52.52 0 0 1-.347-.132h.001a.86.86 0 0 0-.07-.107l.001.002c.255-.192.42-.492.428-.83v-.001zm-1.067 1.045a.265.265 0 0 1 0 .53h-.004a.261.261 0 0 1-.261-.261v-.003a.26.26 0 0 1 .265-.266zm1.652.371c.13.098.214.253.214.427v.001a.528.528 0 0 1-.531.534c-.037 0-.075 0-.111.004a1.352 1.352 0 0 0-.554-.621l-.006-.003a.771.771 0 0 0 .095-.193l.002-.006a1.054 1.054 0 0 0 .894-.146l-.004.002zm-3.303 0a1.052 1.052 0 0 0 .899.14l-.007.002a.765.765 0 0 0 .097.199 1.347 1.347 0 0 0-.56.626 1.117 1.117 0 0 0-.104-.004h-.009a.53.53 0 0 1-.53-.53v-.004c.011-.197.041-.328.215-.428zm9.574.082c-.883 2.573-2.215 4.27-3.527 5.736-1.162 1.3-2.335 2.617-2.82 4.428-.345-2.439.247-4.432 1.386-6.026 1.19-1.668 3.024-2.965 4.961-4.137zm-5.525.382a.53.53 0 0 1 .269.464.53.53 0 0 1-.328.494 1.392 1.392 0 0 0-.257-.229l-.005-.003c.191-.186.311-.443.321-.726zm-4.797 0c.01.283.131.54.323.726a1.41 1.41 0 0 0-.261.23l-.001.002a.53.53 0 0 1-.327-.488v-.006c0-.201.106-.373.266-.464zm2.399.232h.005c.44 0 .796.356.796.796v.006c0 .44-.356.796-.796.796h-.01a.794.794 0 0 1-.794-.794v-.005c0-.445.355-.799.799-.799zm-1.333.799c0 .459.234.864.589 1.105a1.068 1.068 0 0 0-.269.429.798.798 0 0 1-1.121-.73v-.005c0-.441.425-.788.801-.799zm2.668 0c.444 0 .798.354.798.799v.007a.796.796 0 0 1-1.126.725l.005.002a1.072 1.072 0 0 0-.268-.429c.328-.188.591-.595.591-1.104zm-1.335 1.333a.53.53 0 0 1 .534.534v.003a.53.53 0 0 1-.53.53h-.008a.53.53 0 0 1-.529-.529v-.005a.53.53 0 0 1 .534-.533zm-1.11 7.423c.717.22 1.147.492 1.568.76-1.243-.336-4.029-.662-6.305.14.731-.479 1.245-.738 2.001-.959a5.065 5.065 0 0 1 1.262-.156c.526 0 1.033.078 1.511.224l-.037-.01z"/></symbol><symbol id="icon-corn" viewBox="0 0 26 32"><path d="M23.106 9.352c.246-.082.411-.246.575-.411.205-.205.493-.534.534-.986 0-.369-.164-.739-.534-1.108s-.739-.534-1.109-.534h-.041c.041-.369-.164-.739-.534-1.108-.945-.945-1.643-.452-2.053 0-.163.164-.3.353-.405.562l-.006.013c-.041-.041-.082-.123-.164-.164-.821-.821-1.56-.821-2.34 0-.246.246-.493.534-.534.903-.123-.041-.246-.123-.37-.123-.452-.082-.903.123-1.355.534-.452.452-.616.903-.534 1.355v.041c-.41-.082-.903.041-1.396.534s-.616.985-.534 1.396h-.041c-.452-.082-.904.123-1.355.534-.411.411-.616.862-.534 1.314-.287-.082-.616 0-.904.205a8.844 8.844 0 0 0-1.684-2.382v.001a.322.322 0 0 0-.452 0 .322.322 0 0 0 0 .452c.493.493.739.986.739 1.478 0 1.232-1.437 2.587-3.121 4.147-.452.452-.945.903-1.437 1.355-2.094 2.094-2.71 4.147-1.889 6.323.041.082.37 1.027.862 1.601 1.355 1.56 2.751 2.341 4.27 2.423h.164c1.848 0 3.778-1.068 6.077-3.367.616-.616 1.191-1.232 1.766-1.807 2.135-2.258 4.024-4.188 5.502-4.229.452 0 .944.205 1.355.616a.322.322 0 0 0 .452 0c.041-.041.082-.123.082-.205s-.041-.164-.082-.205c-.739-.739-1.889-1.478-3.408-1.889v-.041h.246c.37 0 .78-.206 1.15-.575.452-.452.616-.903.534-1.355v-.082c.082 0 .164.041.247.041.369 0 .739-.164 1.149-.575.657-.657.657-1.232.411-1.766.288-.041.575-.205.903-.534.78-.78.78-1.56-.041-2.382-.041.082-.082.041-.164 0zm-2.628 1.478h-.164v-.123c0-.082 0-.206-.041-.287h.123v.123a.59.59 0 0 0 .082.287zm-10.142 5.256h.246v.288h-.246v-.287zm8.089-7.555h.041v.164c-.082-.041-.205-.041-.287-.041h-.123c0-.041.041-.123.041-.164.123 0 .205.041.328.041zm.821 2.997c-.369.37-.534.411-.698.37-.247 0-.534-.205-.903-.616-.862-.862-.739-1.15-.246-1.602.287-.287.534-.452.78-.452.288 0 .575.164.944.534s.534.698.534.945c.041.287-.082.534-.411.821zm-1.93 1.93c-.493.493-.78.616-1.601-.247-.411-.411-.616-.698-.616-.944 0-.123 0-.328.369-.698.287-.287.534-.452.78-.452.287 0 .575.164.944.534.78.862.657 1.273.123 1.807zm-1.519 1.191c0 .247-.164.493-.452.78-.369.37-.534.411-.698.37-.246 0-.534-.205-.903-.616-.862-.862-.739-1.15-.247-1.601.287-.287.534-.452.78-.452.287 0 .575.164.944.575.411.328.575.657.575.944zm.657-4.065h-.329c.041-.123.041-.246 0-.328h.288c0 .082 0 .205.041.328zm-1.971 1.807c0 .041 0 .082.041.164h-.328c.041-.123.041-.246 0-.328h.287c-.041 0-.041.082 0 .164zm-1.93 2.094c-.082 0-.123-.041-.205-.041h-.123c.041-.123.041-.246 0-.328h.287c0 .123 0 .246.041.369zm-2.258 2.504c.246-.123.452-.082 1.108.575l.123.123a16.68 16.68 0 0 0-1.655 1.021l.054-.036c.138-.456.267-1.024.359-1.604l.01-.079zm1.806.411c-.082-.082-.205-.164-.287-.288-.411-.411-.616-.698-.616-.944 0-.123 0-.328.37-.698.287-.287.534-.452.78-.452.287 0 .575.164.945.534.575.575.575.903.534 1.149-.534.205-1.108.411-1.724.698zm2.382-1.027a.31.31 0 0 1 .164.041h.164v.123c-.123 0-.205.041-.328.082v-.246zm1.93-1.929c.082 0 .164.041.247.041h.082v.287h-.328v-.328zm1.93-1.93c.041 0 .123.041.164.041h.164v.246h-.329a.35.35 0 0 0 0-.287zm2.012-2.669c-.205 0-.452-.164-.78-.493s-.493-.575-.493-.739c0-.123.041-.287.369-.616.247-.246.493-.411.698-.411s.452.123.78.452c.288.287.452.575.452.78s-.123.411-.411.698c-.37.287-.534.328-.616.328zm2.257-2.874c.205 0 .411.123.616.369.247.246.37.452.37.657 0 .164-.123.329-.328.575-.247.246-.411.287-.493.287-.164 0-.37-.164-.616-.411s-.411-.452-.411-.616c0-.082.041-.205.288-.493.246-.246.411-.369.575-.369zm-2.216-1.314c.41-.411.657-.493 1.19 0 .534.534.452.78.041 1.191-.369.37-.534.452-1.108-.123s-.493-.698-.123-1.068zm-2.916.37c.247-.247.493-.411.698-.411s.452.123.78.452c.657.657.534 1.027.041 1.478-.451.452-.657.534-1.355-.164-.328-.329-.493-.575-.493-.739-.041-.123 0-.287.328-.616zm-2.628 2.176c-.041-.164 0-.411.37-.821.328-.329.575-.37.739-.37h.082c.247.041.534.246.904.616.657.657.698.986.082 1.601-.411.411-.657.452-.78.452-.205 0-.452-.164-.821-.534-.328-.411-.534-.698-.575-.944zm-1.56 1.108c.247-.246.493-.369.739-.369.287 0 .616.205 1.027.616.657.657.698.986.082 1.602-.411.41-.657.452-.78.452-.205 0-.452-.164-.821-.534-.78-.78-.821-1.191-.247-1.766zm-1.971 1.971c.329-.328.575-.37.739-.37h.082c.247.041.534.247.903.616.657.657.698.986.082 1.601-.41.411-.616.452-.78.452-.205 0-.452-.164-.821-.534s-.575-.657-.616-.904c.041-.246.041-.493.41-.862zm-1.068 1.478c.247.082.575.369.862.698.657.657.698.985.082 1.601-.452.452-.698.493-.862.411a8.55 8.55 0 0 0-.616-2.546c.247-.205.411-.205.534-.164zm-6.282 5.092c.452-.452.945-.903 1.396-1.355 1.683-1.56 3.121-2.957 3.285-4.352.164.246.287.534.411.78 0 0 0 .041.041.041.78 1.807.986 4.024-.082 6.365a22.011 22.011 0 0 0-1.807 1.642c-1.848 1.848-3.326 2.299-5.05 2.341-.616-1.848-.041-3.654 1.807-5.461zm10.306 4.27c-.575.575-1.15 1.191-1.766 1.807-2.217 2.217-4.106 3.244-5.748 3.203-1.314-.041-2.587-.78-3.818-2.176-.247-.288-.452-.698-.575-1.027 1.725-.082 3.326-.616 5.256-2.505 5.133-5.133 9.608-4.927 12.277-3.654-1.683.246-3.531 2.176-5.625 4.352zm3.655-5.625a9.694 9.694 0 0 0-1.579-.125c-.326 0-.648.016-.966.046l.041-.003c.041-.164.123-.328.452-.657.616-.616.903-.616 1.601.082.205.247.37.493.452.657zm2.053-1.684c.041.164 0 .411-.37.821s-.657.411-.821.37c-.246-.041-.534-.247-.903-.616s-.493-.616-.534-.821c0-.123.041-.369.452-.78s.616-.452.739-.452h.041c.206 0 .452.164.822.534.328.411.534.698.575.945zm1.56-1.108c-.575.575-.986.493-1.724-.246-.698-.698-.698-.945-.082-1.56.288-.287.534-.452.739-.452.246 0 .493.164.821.534.78.698.821 1.15.246 1.725zm1.355-2.259c-.452.452-.657.534-1.355-.164-.328-.328-.493-.575-.493-.739 0-.123.041-.287.37-.616.246-.247.493-.411.698-.411s.452.123.78.452c.616.616.452.986 0 1.478z"/></symbol><symbol id="icon-barley" viewBox="0 0 26 32"><path d="m10.623 11.805-.253-4.197v-.016c0-.14.109-.254.246-.262h.001a.267.267 0 0 1 .278.247l.253 4.197v.016c0 .14-.109.254-.246.262h-.001l-.016.001a.262.262 0 0 1-.262-.246v-.001zm4.189.247.017.001a.263.263 0 0 0 .262-.246l.272-4.196.001-.017a.264.264 0 0 0-.245-.263h-.015a.266.266 0 0 0-.265.245v.001l-.272 4.196-.001.017c0 .139.108.253.245.262h.001zm4.963-5.364-1.285 5.221c.542.845.325 2.059.115 2.785.286-.1.58-.147.875-.13a.263.263 0 0 1 .247.255c.025.957-.415 1.731-.815 2.244.127-.014.257-.035.393-.035h.009c.136 0 .25.092.262.228.077.913-.476 1.715-.975 2.24.101-.005.205-.005.312-.003a.265.265 0 0 1 .256.265v.014-.001c-.052 1.052-.607 1.747-1.111 2.167.077.006.153.013.233.023a.263.263 0 0 1 .217.339v-.002c-.773 2.553-2.674 2.885-3.238 2.926-.021.002-.043.029-.064.036l-.615 2.521h-.541l.652-2.67a3.536 3.536 0 0 1-1.212-1.393c-.117.052-.37.11-.37.127v3.936h-.512v-3.813c0-.032-.191-.077-.306-.134a3.595 3.595 0 0 1-1.148 1.278l.65 2.669h-.541l-.615-2.521c-.021-.007-.043-.023-.065-.025-.562-.041-2.462-.378-3.236-2.931a.27.27 0 0 1 .032-.223l-.001.001a.263.263 0 0 1 .187-.119c.08-.011.156-.017.233-.024-.504-.42-1.059-1.115-1.111-2.167v-.014c0-.143.114-.259.256-.262l.092-.001c.08 0 .159.002.238.007h-.011c-.501-.52-1.06-1.328-.983-2.244.012-.136.126-.228.261-.228h.009c.136 0 .266.021.393.035-.4-.512-.839-1.293-.815-2.249a.262.262 0 0 1 .247-.253 2.201 2.201 0 0 1 .888.129l-.015-.005c-.209-.727-.423-1.936.117-2.778l-1.286-5.22a.263.263 0 0 1 .51-.127v.002l1.252 5.083c1.021.559 1.37 1.716 1.489 2.424.158-.138.338-.256.534-.346l.014-.006a.26.26 0 0 1 .337.104c.209.375.319.762.367 1.133a.29.29 0 0 1 .119.003h-.002c.122.034.235.076.346.118-.258-.592-.48-1.438-.233-2.339a.264.264 0 0 1 .303-.189h-.002c.226.042.43.115.616.21-.052-.713.016-1.909.874-2.696l.008-.001v-5.1c0-.145.111-.263.256-.263s.256.117.256.263v5.248c.768.689.807 1.913.777 2.668.234-.156.509-.271.806-.328l.014-.002a.263.263 0 0 1 .301.188v.002c.247.901.025 1.747-.233 2.339.111-.043.225-.083.346-.118a.245.245 0 0 1 .142.005l-.002-.001c.047-.376.156-.768.368-1.148a.262.262 0 0 1 .337-.112c.21.096.39.213.55.353l-.003-.002c.12-.704.468-1.851 1.488-2.409l1.251-5.082a.262.262 0 0 1 .318-.192.261.261 0 0 1 .192.317zM16.991 14.6c.188.293.316.608.402.905.163-.171.34-.324.531-.46l.011-.008c.125-.323.686-1.895.138-2.81-.941.677-1.066 2.084-1.082 2.372zm-4.682-1.423c.251.239.451.512.606.78.112-.192.249-.393.416-.583.045-.347.212-2.003-.538-2.76-.749.881-.536 2.279-.483 2.562zm-.398 2.383c.46.35.784.773 1.006 1.171.214-.381.532-.81.996-1.167.111-.155.847-1.238.653-2.436-.684.235-1.111.867-1.365 1.418.122.304.177.528.184.556a.263.263 0 0 1-.511.123v-.002c-.004-.018-.411-1.678-1.612-2.094-.194 1.196.533 2.268.65 2.431zm-.184 2.419c.576.37.946.85 1.184 1.295a3.47 3.47 0 0 1 1.191-1.296c.14-.167 1.084-1.349.914-2.43-1.014.376-1.541 1.156-1.816 1.799.138.374.184.649.189.681a.263.263 0 0 1-.52.081v-.002a3.41 3.41 0 0 0-.19-.654l-.009-.024c-.246-.613-.772-1.479-1.858-1.882-.171 1.082.776 2.267.914 2.432zm-3.812-2.947c.206.146.386.302.55.474l.001.001c.086-.293.213-.602.397-.889-.016-.284-.142-1.705-1.082-2.383-.545.907.001 2.452.134 2.796zm-.02 2.286c.006.005.009.012.014.017.518.23.918.563 1.211.878.119-.442.331-.934.697-1.389.069-.173.527-1.402.052-2.521-1.07.691-1.064 2.42-1.064 2.438.002.145-.114.287-.26.287h-.003c-.144 0-.261-.136-.263-.281 0-.029-.001-.267.048-.606-.378-.475-.945-.988-1.668-1.052.106 1.3 1.223 2.219 1.235 2.228zm.381 2.377a3.485 3.485 0 0 1 1.45.957l.003.003a3.46 3.46 0 0 1 .626-1.277l-.006.008a2.868 2.868 0 0 1-.179-1.726l-.003.019a.264.264 0 0 1 .316-.206h-.002c.113.025.216.058.321.089a4.499 4.499 0 0 1-.314-.653l-.011-.032c-.646.626-.873 1.414-.949 1.966l-.002.01a3.39 3.39 0 0 0-.03.667l.001.024a.264.264 0 0 1-.525.024 3.756 3.756 0 0 1 .021-.701c-.42-.559-1.119-1.192-2.193-1.315.093 1.105 1.319 2.031 1.474 2.144zm2.156 4.983a4.027 4.027 0 0 1-.197-1.162c-.009-.009-.019-.015-.027-.026-.516-.739-1.274-1.087-2.255-1.037.644 1.735 1.89 2.134 2.479 2.225zm.166-2.595a4.472 4.472 0 0 1-.373-1.234 3.135 3.135 0 0 0-.072 1.069.263.263 0 0 1-.522.048v-.002a3.137 3.137 0 0 1-.013-.606 2.967 2.967 0 0 0-2.37-1.335h-.007c.228 1.383 1.567 1.939 1.582 1.945.018.007.03.02.046.03.64.139 1.109.451 1.445.795.064-.269.162-.506.292-.723l-.006.012zm.114-2.058c-.029-.04-.058-.079-.087-.122-.021.033-.044.066-.064.099l.15.023zm1.134 3.539a3.76 3.76 0 0 1-.924-.921l-.008-.012c-.279.716-.113 1.492.041 1.955.369-.269.669-.611.883-1.007l.008-.016zm.396-2.105c-.328-.466-.843-.769-1.531-.903.064.564.212 1.022.401 1.397l.007.014a3.145 3.145 0 0 0 1.525 1.459l.019.007c.045-.482.038-1.321-.421-1.974zm.605-.012a2.813 2.813 0 0 1 1.323-1.17 3.05 3.05 0 0 0 .762-.958l.008-.017c.004-.011.009-.019.013-.028l-.001.001c.159-.336.268-.745.23-1.219-1.192.357-1.74 1.188-1.992 1.872.109.339.135.575.136.583l.001.025a.263.263 0 0 1-.524.027v-.001c-.008-.081-.217-1.923-2.157-2.505a2.368 2.368 0 0 0 .252 1.265l.001.002c.309.619.786.976.819 1 .013.009.02.023.031.034.378.197.688.464.925.801.066.093.122.19.173.288zm2.223-.901a3.272 3.272 0 0 0-.628.186l-.023.017a.256.256 0 0 1-.106.043 2.278 2.278 0 0 0-1.185 1.282c-.006.017-.018.029-.027.043.103.416.118.819.103 1.141.616-.252 1.663-.936 1.867-2.712zm-.165 1.994a3.389 3.389 0 0 1-.937.909l-.013.008c.222.458.541.837.933 1.123l.008.006c.159-.475.337-1.303.008-2.045zm.374-2.557c-.02-.034-.043-.067-.065-.1-.028.043-.056.082-.084.122.049-.008.098-.016.149-.022zm2.622 2.47c-.984-.05-1.739.299-2.255 1.037-.009.013-.021.02-.032.03a4.136 4.136 0 0 1-.196 1.157c.59-.09 1.838-.488 2.483-2.225zm-.05-2.3a.23.23 0 0 1-.092.028h-.001a2.96 2.96 0 0 0-1.522 1.18c.023.347-.009.581-.013.605a.263.263 0 0 1-.522-.046l.002-.032v.001c.001-.008.071-.548-.121-1.205a4.46 4.46 0 0 1-.371 1.321c.146.227.26.491.327.774l.003.017a2.826 2.826 0 0 1 1.445-.795c.015-.011.028-.023.046-.031.058-.023 1.358-.572 1.582-1.945-.277.014-.538.06-.786.135l.023-.006zm-.993-1.291c.045.398.024.676.021.706a.262.262 0 0 1-.524-.03l.001-.019v.001c.002-.017.122-1.591-.999-2.662a4.59 4.59 0 0 1-.328.696c.101-.031.207-.058.316-.082a.265.265 0 0 1 .315.205v.002a2.85 2.85 0 0 1-.18 1.705l.007-.018c.288.364.508.796.631 1.268l.005.024a3.483 3.483 0 0 1 1.427-.953l.024-.007c.129-.094 1.382-1.032 1.477-2.148-1.075.123-1.774.754-2.193 1.313zm.672-2.72c.046.325.046.556.045.584a.263.263 0 0 1-.525-.003v-.002c0-.018.002-1.728-1.064-2.418-.473 1.114-.021 2.338.051 2.518.367.456.579.949.698 1.392a3.726 3.726 0 0 1 1.21-.878c.006-.005.008-.012.014-.017.012-.01 1.129-.925 1.235-2.225-.72.064-1.286.576-1.663 1.05zm-1.47-2.936a.263.263 0 0 0 .3-.217v-.002l.656-4.176a.263.263 0 0 0-.218-.301h-.002a.263.263 0 0 0-.3.217v.002l-.656 4.177a.265.265 0 0 0 .219.301zm5.018-3.707a.262.262 0 0 0-.332.163l-.001.002-1.36 4.003a.263.263 0 0 0 .498.17l.001-.002 1.36-4.003a.264.264 0 0 0-.163-.333l-.002-.001zM9.791 13.203a.263.263 0 0 0 .259-.31v.002l-.734-4.163a.262.262 0 0 0-.306-.213h.002a.264.264 0 0 0-.213.306v-.002l.734 4.163a.263.263 0 0 0 .259.217zm-3.469.791a.263.263 0 0 0 .162-.334L5.091 9.668a.263.263 0 0 0-.496.174V9.84l1.393 3.992a.263.263 0 0 0 .336.161l-.002.001z"/></symbol></defs></svg>