<svg aria-hidden="true" style="position:absolute;width:0;height:0;overflow:hidden" xmlns="http://www.w3.org/2000/svg"><defs>
<symbol id="icon-phone" fill='#fff' viewBox="0 0 32 32"><path d="M11.748 5.773S11.418 5 10.914 5c-.496 0-.754.229-.926.387S6.938 7.91 6.938 7.91s-.837.731-.773 2.106c.054 1.375.323 3.332 1.719 6.058 1.386 2.72 4.855 6.876 7.047 8.337 0 0 2.031 1.558 3.921 2.191.549.173 1.647.398 1.903.398.26 0 .719 0 1.246-.385.536-.389 3.543-2.807 3.543-2.807s.736-.665-.119-1.438c-.859-.773-3.467-2.492-4.025-2.944-.559-.459-1.355-.257-1.699.054-.343.313-.956.828-1.031.893-.112.086-.419.365-.763.226-.438-.173-2.234-1.148-3.899-3.426-1.655-2.276-1.837-3.02-2.084-3.824a.559.559 0 0 1 .223-.656l.002-.001c.248-.172 1.161-.933 1.161-.933s.591-.583.344-1.27-1.906-4.716-1.906-4.716z"/></symbol>
<symbol id="icon-triangle"  fill='#000' viewBox="0 0 32 32"><path d="M16 2.5a4.2 4.2 0 0 0-3.56 1.974l-.01.018 1.28.784-1.284-.776L1.064 23.266a4.087 4.087 0 0 0-.565 2.086 4.13 4.13 0 0 0 2.048 3.568l.02.011c.628.366 1.34.562 2.068.57h22.732a4.202 4.202 0 0 0 3.571-2.07l.011-.02a4.083 4.083 0 0 0 .552-2.062c0-.767-.209-1.486-.574-2.101l.011.019L19.572 4.493a4.171 4.171 0 0 0-3.555-1.992h-.016.001z"/></symbol>
<symbol id="icon-hand"  fill='#fff' viewBox="0 0 32 32"><path d="M1.254 21.083c.469-.013.804-.375.817-.857C2.218 14.4 5.218 10.088 9.772 8.4l3.121 8.571c.027.067.013.12-.054.147-.054.027-.094 0-.134-.04l-1.58-1.714c-1.031-1.112-2.344-1.192-3.362-.335-1.152.978-1.165 2.438-.04 3.817l4.487 5.424c3.388 4.098 7.366 5.37 11.812 3.75 5.317-1.929 7.58-6.804 5.437-12.696l-1.004-2.746c-1.044-2.906-3.04-4.098-5.384-3.281-.629-.817-1.594-1.098-2.638-.723-.362.134-.71.335-1.045.589-.683-.884-1.741-1.205-2.839-.817a3.697 3.697 0 0 0-.844.455l-1.527-4.178c-.576-1.594-2.022-2.263-3.509-1.728-1.5.549-2.17 1.982-1.594 3.576l.107.295C3.999 8.708.396 13.704.396 20.199c0 .482.402.897.857.884zm22.192 5.183c-3.509 1.286-6.804.63-9.897-3.107l-4.487-5.397c-.482-.562-.482-1.112-.054-1.487.402-.362.951-.241 1.393.214l3.094 3.201c.522.536.978.589 1.42.429.522-.188.75-.75.536-1.326L10.71 5.748c-.201-.536.04-1.045.549-1.232.522-.188 1.005.067 1.205.603l3.388 9.308c.161.442.656.643 1.098.482a.825.825 0 0 0 .496-1.058l-1.219-3.362a2.22 2.22 0 0 1 .696-.442c.63-.228 1.152.054 1.393.71l1.071 2.933c.161.455.656.63 1.085.469.415-.147.683-.589.509-1.058l-.871-2.37c.188-.188.442-.362.696-.455.63-.228 1.152.054 1.393.71l.71 1.955c.174.469.67.643 1.098.482a.826.826 0 0 0 .509-1.058l-.536-1.446c1.125-.402 2.183.509 2.906 2.518l.844 2.29c1.835 5.063.161 8.92-4.286 10.54z"/></symbol>
<symbol id="icon-burger-menu" fill="#91bd17" viewBox="0 0 32 32"><path d="M28.8 25.6H3.2c-1.766 0-3.2 1.434-3.2 3.2S1.434 32 3.2 32h25.6c1.766 0 3.2-1.434 3.2-3.2s-1.434-3.2-3.2-3.2zm0-12.8H3.2C1.434 12.8 0 14.234 0 16s1.434 3.2 3.2 3.2h25.6c1.766 0 3.2-1.434 3.2-3.2s-1.434-3.2-3.2-3.2zM3.2 6.4h25.6c1.766 0 3.2-1.434 3.2-3.2S30.566 0 28.8 0H3.2C1.434 0 0 1.434 0 3.2s1.434 3.2 3.2 3.2z"/></symbol>
<symbol id="icon-line" viewBox="0 0 32 32">
<path d="M2.667 16c0-0.736 0.597-1.333 1.333-1.333v0h24c0.736 0 1.333 0.597 1.333 1.333s-0.597 1.333-1.333 1.333v0h-24c-0.736 0-1.333-0.597-1.333-1.333v0z"></path>
</symbol>
<symbol id="icon-right" fill='#fff' viewBox="0 0 32 32">
<path d="M13.103 8.275l-1.931 1.931 5.794 5.794-5.794 5.794 1.931 1.931 7.725-7.725z"></path>
</symbol>
<symbol id="icon-left" fill='#fff' viewBox="0 0 32 32">
<path d="M18.897 23.725l1.931-1.931-5.794-5.794 5.794-5.794-1.931-1.931-7.725 7.725z"></path>
</symbol>
<symbol id="icon-close"  fill="#91bd17" viewBox="0 0 32 32">
<path d="M6.1 6.1c0.362-0.362 0.862-0.586 1.414-0.586s1.052 0.224 1.414 0.586l7.072 7.072 7.072-7.072c0.359-0.347 0.849-0.561 1.389-0.561 1.105 0 2 0.895 2 2 0 0.54-0.214 1.030-0.562 1.39l0.001-0.001-7.072 7.072 7.072 7.072c0.347 0.359 0.561 0.849 0.561 1.389 0 1.105-0.895 2-2 2-0.54 0-1.030-0.214-1.39-0.562l0.001 0.001-7.072-7.072-7.072 7.072c-0.359 0.347-0.849 0.561-1.389 0.561-1.105 0-2-0.895-2-2 0-0.54 0.214-1.030 0.562-1.39l-0.001 0.001 7.072-7.072-7.072-7.072c-0.362-0.362-0.586-0.862-0.586-1.414s0.224-1.052 0.586-1.414v0z"></path>
</symbol>
<symbol id="icon-wheat" viewBox="0 0 26 32">
<path d="M12.773 13.93l0.905-0.905c0.462-0.46 0.748-1.097 0.748-1.801 0-0.003 0-0.006-0-0.009v0.001c0-0.003 0-0.006 0-0.009 0-0.704-0.286-1.341-0.748-1.801l-0.905-0.905-0.905 0.905c-0.462 0.46-0.748 1.097-0.748 1.801 0 0.003 0 0.006 0 0.009v-0.001c0 0.003-0 0.006-0 0.009 0 0.704 0.286 1.341 0.748 1.801l0 0zM12.23 9.767l0.543-0.543 0.543 0.543c0.369 0.368 0.598 0.877 0.598 1.44 0 0.003 0 0.005-0 0.008v-0c0 0.002 0 0.005 0 0.008 0 0.563-0.229 1.072-0.598 1.44l-0.543 0.543-0.543-0.543c-0.369-0.368-0.598-0.878-0.598-1.441 0-0.003 0-0.005 0-0.008v0c0-0.002 0-0.004 0-0.007 0-0.563 0.229-1.073 0.598-1.441l0-0zM9.984 4.348h0.512v7.969h-0.512zM15.104 4.348h0.512v7.969h-0.512zM12.544 3.328h0.512v4.589h-0.512zM11.264 3.84h0.512v5.116h-0.512zM13.824 3.84h0.512v5.101h-0.512z"></path>
<path d="M12.8 14.763c-0.414-0.857-1.29-1.451-2.304-1.451h-1.28v1.28c0 0.723 0.3 1.375 0.783 1.839l0.001 0.001h-0.784v1.28c0 0.748 0.324 1.42 0.837 1.888h-0.837v1.28c0 0.756 0.332 1.435 0.855 1.904h-0.855v1.28c0 1.412 1.148 2.56 2.56 2.56h0.768v1.792h0.512v-1.792h0.768c1.412 0 2.56-1.148 2.56-2.56v-1.28h-0.855c0.523-0.469 0.855-1.147 0.855-1.904v-1.28h-0.837c0.513-0.468 0.837-1.14 0.837-1.888v-1.28h-0.784c0.484-0.465 0.784-1.117 0.784-1.84v0-1.28h-1.28c-1.014 0-1.89 0.594-2.304 1.451zM9.728 14.592v-0.768h0.768c1.129 0 2.048 0.919 2.048 2.048v0.768h-0.768c-0.122 0-0.24-0.013-0.356-0.033-0.124-0.050-0.271-0.095-0.423-0.125l-0.016-0.003c-0.735-0.311-1.252-1.040-1.252-1.887zM13.056 17.152h0.272c-0.213 0.206-0.39 0.448-0.521 0.716l-0.007 0.015c-0.138-0.283-0.315-0.525-0.527-0.731l-0.001-0.001h0.272zM9.728 17.712v-0.768h0.768c0.122 0 0.24 0.013 0.356 0.033 0.124 0.050 0.271 0.095 0.423 0.125l0.016 0.003c0.735 0.311 1.252 1.039 1.252 1.887v0.768h-0.768c-1.129 0-2.048-0.919-2.048-2.048zM13.056 20.272h0.325c-0.237 0.217-0.432 0.475-0.575 0.764l-0.007 0.015c-0.149-0.304-0.344-0.563-0.579-0.778l-0.002-0.002h0.325zM9.728 20.88v-0.768h0.768c1.129 0 2.048 0.919 2.048 2.048v0.768h-0.768c-1.129 0-2.048-0.919-2.048-2.048zM13.056 23.44h0.343c-0.245 0.22-0.446 0.484-0.592 0.78l-0.007 0.015c-0.152-0.311-0.353-0.575-0.596-0.793l-0.002-0.002h0.343zM12.544 26.112h-0.768c-1.129 0-2.048-0.919-2.048-2.048v-0.768h0.768c1.129 0 2.048 0.919 2.048 2.048zM15.872 24.064c0 1.129-0.919 2.048-2.048 2.048h-0.768v-0.268h-0v-0.5c0-1.129 0.919-2.048 2.048-2.048h0.768zM15.872 20.88c0 1.129-0.919 2.048-2.048 2.048h-0.768v-0.768c0-1.129 0.919-2.048 2.048-2.048h0.768zM15.104 16.944h0.768v0.768c0 1.129-0.919 2.048-2.048 2.048h-0.768v-0.768c0-0.848 0.517-1.576 1.253-1.887 0.168-0.033 0.315-0.078 0.456-0.134l-0.017 0.006c0.107-0.021 0.23-0.033 0.356-0.033h0zM15.872 14.592c0 0.847-0.517 1.576-1.253 1.887-0.168 0.033-0.316 0.078-0.457 0.134l0.017-0.006c-0.116 0.020-0.234 0.033-0.356 0.033h-0.768v-0.768c0-1.129 0.919-2.048 2.048-2.048h0.768zM4.325 17.002l0.905-0.905c0.462-0.46 0.748-1.097 0.748-1.801 0-0.003 0-0.006-0-0.009v0c0-0.003 0-0.006 0-0.009 0-0.704-0.286-1.341-0.748-1.801l-0.905-0.905-0.905 0.905c-0.998 0.998-0.998 2.622 0 3.62zM3.782 12.839l0.543-0.543 0.543 0.543c0.369 0.368 0.598 0.878 0.598 1.441 0 0.003 0 0.005 0 0.008v-0c0 0.548-0.212 1.062-0.598 1.448l-0.543 0.543-0.543-0.543c-0.369-0.368-0.598-0.877-0.598-1.44 0-0.003 0-0.005 0-0.008v0c0-0.548 0.212-1.063 0.598-1.448zM1.536 7.42h0.512v7.969h-0.512zM6.656 7.42h0.512v7.969h-0.512zM4.096 6.4h0.512v4.589h-0.512zM2.816 6.939h0.512v5.089h-0.512zM5.376 6.912h0.512v5.095h-0.512z"></path>
<path d="M4.352 17.836c-0.414-0.857-1.29-1.452-2.304-1.452h-1.28v1.28c0 0.781 0.351 1.481 0.904 1.949l0.004 0.003h-0.908v1.28c0 0.74 0.317 1.404 0.82 1.872h-0.82v1.28c0 1.412 1.148 2.56 2.56 2.56h0.768v1.691h0.512v-1.676h0.768c1.412 0 2.56-1.148 2.56-2.56v-1.28h-0.837c0.513-0.468 0.837-1.14 0.837-1.888v-1.28h-0.908c0.557-0.471 0.908-1.171 0.908-1.952v-1.28h-1.28c-1.014 0-1.89 0.594-2.304 1.452zM4.356 24.228c-0.146-0.3-0.336-0.556-0.566-0.77l-0.002-0.001h1.145c-0.238 0.218-0.435 0.478-0.577 0.772zM1.28 17.664v-0.768h0.768c1.129 0 2.048 0.919 2.048 2.048v0.768h-0.768c-1.129 0-2.048-0.919-2.048-2.048zM4.608 20.224h0.396c-0.27 0.23-0.489 0.511-0.645 0.828l-0.007 0.015c-0.162-0.333-0.382-0.613-0.648-0.841l-0.004-0.003h0.396zM1.28 20.896v-0.768h0.768c1.129 0 2.048 0.919 2.048 2.048v0.768h-0.768c-1.129 0-2.048-0.919-2.048-2.048zM3.328 26.096c-1.129 0-2.048-0.919-2.048-2.048v-0.768h0.768c1.129 0 2.048 0.919 2.048 2.048v0.768zM7.424 24.064c0 1.129-0.919 2.048-2.048 2.048h-0.768v-0.768c0-1.129 0.919-2.048 2.048-2.048h0.768zM7.424 20.896c0 1.129-0.919 2.048-2.048 2.048h-0.768v-0.768c0-1.129 0.919-2.048 2.048-2.048h0.768zM7.424 17.664c0 1.129-0.919 2.048-2.048 2.048h-0.768v-0.768c0-1.129 0.919-2.048 2.048-2.048h0.768zM21.221 17.002l0.905-0.905c0.998-0.998 0.998-2.622 0-3.62l-0.905-0.905-0.905 0.905c-0.462 0.46-0.748 1.097-0.748 1.801 0 0.003 0 0.006 0 0.010v-0.001c0 0.003-0 0.006-0 0.009 0 0.704 0.286 1.34 0.748 1.801l0 0zM20.678 12.839l0.543-0.543 0.543 0.543c0.369 0.368 0.598 0.878 0.598 1.441 0 0.003 0 0.005 0 0.008v-0c0 0.548-0.212 1.062-0.598 1.448l-0.543 0.543-0.543-0.543c-0.369-0.368-0.598-0.878-0.598-1.44 0-0.003 0-0.005 0-0.008v0c0-0.548 0.212-1.062 0.598-1.448zM18.432 7.42h0.512v7.969h-0.512zM23.552 7.42h0.512v7.969h-0.512zM20.992 6.4h0.512v4.589h-0.512zM19.712 6.912h0.512v5.116h-0.512zM22.272 6.912h0.512v5.102h-0.512z"></path>
<path d="M24.832 17.664v-1.28h-1.28c-1.014 0-1.89 0.594-2.304 1.452-0.414-0.857-1.29-1.452-2.304-1.452h-1.28v1.28c0 0.749 0.325 1.422 0.84 1.891h-0.84v1.28c0 0.759 0.334 1.44 0.861 1.909h-0.861v1.28c0 1.412 1.148 2.56 2.56 2.56h0.768v1.715h0.512v-1.715h0.768c1.412 0 2.56-1.148 2.56-2.56v-1.28h-0.861c0.527-0.469 0.861-1.15 0.861-1.909v-1.28h-0.84c0.514-0.468 0.84-1.142 0.84-1.891zM23.552 16.896h0.768v0.768c0 1.129-0.919 2.048-2.048 2.048h-0.768v-0.768c0-1.129 0.919-2.048 2.048-2.048zM21.832 20.224c-0.238 0.218-0.434 0.477-0.577 0.767l-0.007 0.015c-0.15-0.305-0.346-0.564-0.582-0.78l-0.002-0.002h0.84zM18.176 17.664v-0.768h0.768c1.129 0 2.048 0.919 2.048 2.048v0.768h-0.768c-1.129 0-2.048-0.919-2.048-2.048zM18.176 20.835v-0.768h0.768c1.129 0 2.048 0.919 2.048 2.048v0.768h-0.768c-1.129 0-2.048-0.919-2.048-2.047zM21.504 23.395h0.349c-0.248 0.222-0.451 0.487-0.598 0.786l-0.007 0.015c-0.154-0.314-0.357-0.579-0.602-0.799l-0.003-0.002h0.349zM20.992 26.072h-0.768c-1.129 0-2.048-0.919-2.048-2.048v-0.768h0.768c1.129 0 2.048 0.919 2.048 2.048zM24.32 24.024c0 1.129-0.919 2.048-2.048 2.048h-0.768v-0.344h-0v-0.424c0-1.129 0.919-2.048 2.048-2.048h0.768zM24.32 20.835c0 1.129-0.919 2.047-2.048 2.047h-0.768v-0.768c0-1.129 0.919-2.048 2.048-2.048h0.768z"></path>
</symbol>
<symbol id="icon-sunflower" viewBox="0 0 26 32">
<path d="M14.568 8.545c0.602-0.82 1.277-1.945 1.261-2.997-0.54 0.131-1.193 1.023-1.955 2.673 0.247 0.084 0.47 0.192 0.694 0.324zM10.247 17.039c-0.653-0.203-2.27-0.201-3.143-0.122 1.552-0.334 2.48-0.323 3.48-0.083-0.267-1.289-3.633-0.134-4.357 0.233 1.41 0.116 2.598 0.365 4.021-0.027zM10.869 17.018c0.313 0.405 0.503 0.955 0.632 1.448 0.050-1.299 0.096-2.6 0.187-3.897-0.302 0.358-0.564 0.752-0.829 1.137 0-0.607 0.001-1.17 0.128-1.771-0.536 0.027-1.115 0.402-1.539 0.718-0.004-0.563 0.018-0.848 0.393-1.416-1.061 0.171-1.457 0.307-2.173 1.128 0.031-1.053 0.274-1.505 1.056-2.181-0.775 0.308-1.431 0.509-2.247 0.668 0.38-0.711 0.778-1.231 1.413-1.751-0.794-0.063-1.481-0.216-2.123-0.702 0.716-0.46 1.334-0.491 2.172-0.438-0.693-0.259-1.461-0.288-2.207-0.546 0.486-0.307 0.84-0.481 1.417-0.614-0.323-0.343-0.55-0.615-0.93-0.903 0.535-0.308 0.95-0.41 1.562-0.303-0.173-0.428-0.484-0.762-0.785-1.103 0.502 0.025 1.050 0.030 1.538 0.159-0.272-0.43-0.389-0.78-0.32-1.284 0.509-0.065 0.867 0.032 1.295 0.323 0.068-0.459-0.032-0.907-0.12-1.355 0.447 0.293 0.988 0.612 1.335 1.009 0.071-0.525 0.146-0.947 0.396-1.42 0.63 0.207 0.823 0.473 0.921 1.107 0.098-0.366 0.212-0.724 0.333-1.084 0.48 0.257 0.694 0.509 0.851 1.049 0.131-0.34 0.281-0.561 0.495-0.843 0.28 0.48 0.395 0.813 0.368 1.37 0.171-0.238 0.34-0.394 0.565-0.574 0.213 0.257 0.36 0.455 0.423 0.788 0.321-0.328 0.557-0.479 1.011-0.483 0.035 0.442 0.008 0.785-0.114 1.218 0.458-0.316 0.779-0.455 1.329-0.505-0.066 0.509-0.159 0.923-0.379 1.394 0.385-0.13 0.708-0.066 1.084 0.037-0.157 0.459-0.344 0.935-0.682 1.293 0.64 0.065 1.116 0.398 1.589 0.803-0.086 0.076-0.172 0.153-0.263 0.224 0.418 0.257 0.693 0.466 0.812 0.954-0.421 0.105-0.842 0.209-1.27 0.283 0.811 0.281 1.303 0.754 1.697 1.502-0.508 0.314-0.904 0.402-1.488 0.334 0.484 0.361 0.719 0.686 0.761 1.285-0.534 0.035-0.902 0.002-1.389-0.214 0.442 0.593 0.524 0.889 0.599 1.583-0.263-0.252-0.523-0.508-0.802-0.744 0.241 0.467 0.343 0.765 0.193 1.268-0.375-0.267-0.748-0.521-1.15-0.746-0.031 0.135-0.070 0.262-0.115 0.392-0.585-0.297-1.239-0.734-1.736-1.163 0.136 0.576 0.165 0.955 0.050 1.537-0.806-0.243-2.25-0.567-1.967-1.704-0.030-0.049-0.059-0.098-0.085-0.147-0.107 1.689-0.207 3.379-0.3 5.069 0.161-0.215 0.359-0.384 0.516-0.495 0.070-2.62 2.943-0.895 4.449-2.418-0.981 1.34-2.466 2.943-4.305 2.653-0.327 0.235-0.645 0.598-0.689 1.013h-0.001c-0.053 1.754-0.068 3.245-0.046 4.473 0.405-1.239 1.042-1.346 1.572-2.369 1.050-3.011 4.718-0.716 6.407 0.415-3.179-0.67-7.529-1.032-7.942 3.149 0.035 0.762 0.083 1.795 0.313 2.525-0.385-0.052-0.866-0.063-1.235 0.057-0.158-1.257-0.191-2.52-0.194-3.786-0.021-1.264-0.441-3.315-2.066-3.295l-0.011 0.001v-0.004c-1.123 0.21-2.486 0.322-2.811-1.050 1.244-0.515 2.495-0.071 3.626 0.518 1.232-0.639 1.309 0.955 1.152 1.739 0.047 0.112 0.090 0.229 0.129 0.354 0.020-0.965 0.055-2.038 0.105-3.217-0.116-0.705-0.331-1.696-0.771-2.275-1.788 0.613-3.672 0.224-5.492-0.004 0.982-0.427 5.689-2.477 5.7-0.177zM15.724 11.199l-0.126 0.194 0.088 0.055c0.030-0.075 0.053-0.152 0.070-0.229zM15.448 11.623l-0.12 0.186 0.098 0.062c0.049-0.055 0.094-0.115 0.134-0.178zM15.178 12.040l-0.063 0.097c0.035-0.023 0.069-0.047 0.102-0.072zM14.648 12.352l0.059-0.091-0.101-0.063-0.1 0.155 0.041 0.027zM14.857 12.030l0.088-0.136-0.102-0.064-0.088 0.137zM15.095 11.663l0.12-0.185-0.104-0.064-0.119 0.185zM15.364 11.248l0.124-0.192-0.106-0.064-0.123 0.191zM15.638 10.826l0.126-0.194-0.109-0.063-0.125 0.193zM14.138 12.442c-0.037-0.026-0.073-0.048-0.111-0.072l-0.050 0.076c0.055 0 0.107-0.004 0.161-0.004zM14.276 12.204l0.097-0.15-0.098-0.060-0.097 0.148zM14.521 11.823l0.089-0.138-0.094-0.059-0.091 0.138zM14.759 11.453l0.118-0.184-0.090-0.056-0.12 0.182zM15.025 11.039l0.121-0.188-0.086-0.052-0.122 0.186zM15.295 10.619l0.123-0.191-0.083-0.048-0.124 0.188zM15.567 10.198l0.058-0.090c-0.014-0.033-0.029-0.067-0.045-0.099l-0.093 0.142zM13.699 12.37l0.098-0.149-0.152-0.098-0.096 0.146zM13.947 11.992l0.094-0.143-0.155-0.096-0.092 0.141zM14.192 11.619l0.092-0.139-0.154-0.096-0.092 0.14zM14.435 11.251l0.119-0.181-0.155-0.095-0.119 0.18zM14.705 10.84l0.121-0.184-0.155-0.094-0.119 0.182zM14.977 10.427l0.122-0.185-0.157-0.092-0.12 0.183zM15.25 10.012l0.097-0.148-0.157-0.091-0.097 0.148zM13.32 12.116l0.093-0.141-0.187-0.12-0.093 0.136zM13.564 11.746l0.090-0.136-0.183-0.113-0.090 0.131zM13.805 11.38l0.093-0.141-0.175-0.109-0.096 0.141zM14.049 11.009l0.118-0.179-0.168-0.104-0.121 0.176zM14.318 10.6l0.118-0.179-0.161-0.097-0.12 0.175zM14.586 10.191l0.118-0.18-0.155-0.091-0.12 0.176zM14.856 9.782l0.096-0.146-0.149-0.086-0.098 0.144zM15.103 9.406l0.033-0.047c-0.039-0.043-0.077-0.083-0.117-0.121l-0.001-0.001-0.059 0.086zM12.979 12.217l-0.024 0.035c0.053 0.020 0.105 0.038 0.158 0.055zM12.697 12.142l0.054-0.079-0.126-0.085-0.065 0.094c0.046 0.024 0.091 0.047 0.137 0.070zM12.906 11.837l0.090-0.132-0.128-0.083-0.088 0.129zM13.151 11.479l0.086-0.127-0.13-0.080-0.085 0.125zM13.392 11.125l0.097-0.142-0.129-0.081-0.098 0.142zM13.645 10.756l0.12-0.175-0.13-0.080-0.119 0.175zM13.92 10.354l0.118-0.172-0.131-0.079-0.117 0.171zM14.194 9.954l0.118-0.173-0.132-0.077-0.117 0.171zM14.467 9.554l0.097-0.142-0.132-0.076-0.096 0.141zM14.719 9.186l0.092-0.134c-0.039-0.032-0.080-0.063-0.12-0.094l-0.104 0.152zM12.322 11.933l0.074-0.109-0.135-0.090-0.073 0.107c0.044 0.031 0.088 0.062 0.134 0.091zM12.551 11.599l0.085-0.125-0.136-0.088-0.083 0.122zM12.791 11.247l0.082-0.12-0.138-0.085-0.080 0.117zM13.029 10.9l0.099-0.144-0.137-0.086-0.099 0.145zM13.283 10.53l0.119-0.174-0.138-0.085-0.119 0.173zM13.557 10.129l0.115-0.168-0.139-0.084-0.114 0.167zM13.827 9.733l0.115-0.168-0.14-0.082-0.113 0.166zM14.098 9.338l0.095-0.139-0.141-0.081-0.095 0.138zM14.348 8.972l0.116-0.168c-0.047-0.028-0.093-0.056-0.14-0.082l-0.116 0.17zM11.971 11.672l0.063-0.091-0.148-0.099-0.047 0.070c0.043 0.041 0.087 0.081 0.133 0.121zM12.188 11.355l0.080-0.118-0.151-0.097-0.079 0.115zM12.424 11.010l0.077-0.113-0.154-0.095-0.075 0.111zM12.657 10.671l0.1-0.146-0.154-0.096-0.1 0.147zM12.912 10.297l0.118-0.172-0.156-0.096-0.117 0.171zM13.185 9.899l0.112-0.165-0.158-0.095-0.111 0.163zM13.453 9.507l0.111-0.163-0.16-0.094-0.11 0.161zM13.72 9.117l0.094-0.138-0.162-0.093-0.093 0.136zM13.968 8.753l0.108-0.157c-0.038-0.018-0.096-0.043-0.156-0.066l-0.022-0.007-0.093 0.137zM11.643 11.348l0.014-0.019-0.068-0.046zM11.811 11.102l0.075-0.111-0.142-0.092-0.072 0.109zM12.041 10.764l0.072-0.106-0.147-0.091-0.070 0.104zM12.268 10.43l0.101-0.148-0.15-0.094-0.1 0.151zM12.524 10.055l0.116-0.171-0.154-0.096-0.114 0.171zM12.794 9.657l0.109-0.16-0.159-0.096-0.106 0.159zM13.058 9.269l0.107-0.158-0.164-0.096-0.105 0.157zM13.32 8.884l0.092-0.135-0.169-0.097-0.089 0.135zM13.567 8.522l0.061-0.090c-0.068-0.019-0.136-0.036-0.204-0.050l-0.028 0.042zM11.444 10.855l0.069-0.104-0.199-0.128-0.069 0.099zM11.666 10.522l0.067-0.1-0.196-0.121-0.066 0.095zM11.885 10.194l0.101-0.152-0.189-0.118-0.104 0.151zM12.138 9.814l0.113-0.17-0.183-0.113-0.116 0.168zM12.404 9.415l0.104-0.156-0.178-0.107-0.106 0.153zM12.662 9.030l0.103-0.154-0.174-0.102-0.104 0.15zM12.917 8.647l0.089-0.133-0.168-0.096-0.090 0.13zM11.24 10.248l0.063-0.091-0.109-0.067-0.057 0.092zM11.459 9.93l0.105-0.152-0.129-0.080-0.097 0.158zM11.72 9.552l0.115-0.166-0.15-0.093-0.106 0.171zM11.991 9.16l0.104-0.151-0.172-0.103-0.094 0.153zM12.252 8.783l0.102-0.147-0.194-0.113-0.092 0.149zM12.509 8.409l0.050-0.072-0.137 0.021zM10.782 9.64c-1.381-0.74-2.865-0.995-4.349-0.311 0.868 0.144 1.551 0.275 2.341 0.719l1.058 0.155-0 0.002c0.317-0.036 0.643-0.016 0.973 0.075-0.045-0.24-0.056-0.388-0.024-0.64zM11.104 9.712l0.098-0.159-0.11-0.069c-0.015 0.055-0.029 0.121-0.038 0.19l-0.001 0.008zM11.347 9.318l0.104-0.17-0.162-0.101c-0.033 0.049-0.066 0.105-0.095 0.164l-0.004 0.009zM11.596 8.915l0.093-0.151-0.086-0.052c-0.048 0.038-0.094 0.078-0.137 0.122zM7.534 7.843c-0.273-0.023-0.565 0.006-0.821 0.107 0.264 0.253 0.499 0.534 0.758 0.79 0.368-0.061 0.748-0.085 1.121-0.070-0.477-0.205-0.937-0.408-1.399-0.646zM8.836 7.067c-0.364-0.2-0.807-0.236-1.214-0.264 0.189 0.245 0.366 0.524 0.461 0.82 0.444-0.124 0.863-0.096 1.304 0.030-0.194-0.185-0.38-0.379-0.551-0.586zM11.733 27.877c0.212-0.030 0.43-0.034 0.643-0.026-0.532-2.364-0.165-9.813 0.126-13.927-0.156 0.058-0.314 0.138-0.525 0.337l0.011 0.001c-0.306 3.839-0.617 11.085-0.255 13.615zM10.676 21.498c-0.125-0.271-0.323-0.489-0.637-0.58-0.060 0.040-0.054 0.041-0.122 0.058 0.278 0.104 0.534 0.278 0.758 0.522zM10.277 20.792c0.363 0.155 0.588 0.44 0.721 0.793-0.009-0.437-0.136-1.029-0.721-0.793zM7.068 20.389c0.558-0.136 1.314 0.056 2.425 0.242-0.82-0.375-1.859-0.695-2.748-0.385 0.325 1.019 1.97 0.725 2.752 0.547-0.651-0.132-1.938-0.434-2.429-0.405zM13.265 18.358c0.69-0.533 1.897-0.461 2.785-0.98-0.876 0.649-2.268 0.875-2.739 1.317 1.158 0.099 2.381-0.739 3.129-1.56-1.009 0.396-2.991-0.144-3.174 1.223zM14.37 21.692c1.337-1.033 2.8-0.464 4.236 0.112-0.704-0.134-2.715-1.3-4.532 0.594 1.467-0.774 3.534-0.645 5.12-0.413-1.148-0.763-3.941-1.998-4.823-0.292zM13.303 7.998c0.067-0.656 0.19-1.22 0.371-1.689 0.149-0.524 0.222-1.116 0.012-1.634-0.445 0.734-0.573 1.842-0.383 3.323zM14.833 6.016c-0.015-0.256-0.071-0.464-0.22-0.674-0.723 0.67-0.961 1.85-1.046 2.791l0.042 0.010c0.431-0.938 0.839-1.646 1.224-2.127zM13.033 8.052c-0.127-0.982-0.119-1.812 0.026-2.49l-0.004 0c-0.069-0.578-0.245-0.979-0.529-1.202-0.327 1.010-0.832 2.79-0.239 3.745 0.247-0.053 0.494-0.069 0.746-0.053zM12.014 8.181c-0.337-0.607-0.299-1.439-0.195-2.113 0.007-0.564 0.064-1.531-0.562-1.802-0.328 0.766-0.36 2.145-0.361 2.972 0.222 0.34 0.446 0.727 0.672 1.16 0.137-0.089 0.287-0.162 0.447-0.217zM10.626 6.845c0.008-0.401 0.027-0.767 0.056-1.096-0.212-0.347-0.577-0.604-0.908-0.829 0.041 0.314 0.051 0.647-0.019 0.957 0.331 0.277 0.619 0.62 0.872 0.968zM11.018 8.962c-0.39-0.275-0.74-0.54-1.049-0.795-0.76-0.349-1.388-0.5-2.169-0.147 1.001 0.463 2.061 0.848 3.041 1.342 0.042-0.142 0.102-0.272 0.177-0.399zM11.346 8.568c-0.488-0.942-1.626-2.98-2.883-2.947-0.019 1.13 1.897 2.542 2.715 3.119 0.052-0.061 0.108-0.119 0.168-0.172zM9.125 10.375c-0.99-0.146-2.123-0.275-2.846 0.044 0.526 0.285 1.365 0.418 1.954 0.424 0.276-0.19 0.577-0.353 0.892-0.469zM11.346 11.417c-0.581 0.029-1.119 0.187-1.664 0.39l0.005 0.009c-0.636 0.408-1.439 1.031-1.669 1.79 0.559-0.441 1.376-0.586 2.062-0.681 0.415-0.481 1.058-0.916 1.675-1.077-0.152-0.135-0.289-0.279-0.409-0.431zM10.89 10.595c-1.502-0.531-3.084 0.674-3.874 1.867 1.4-0.332 2.748-1.18 4.145-1.307-0.111-0.175-0.204-0.365-0.271-0.561zM9.762 14.098c0.363-0.221 0.864-0.443 1.292-0.438 0.161-0.585 0.48-1.242 1.007-1.571l-0.026-0.018c-0.953 0.116-2.065 1.083-2.273 2.027zM12.328 12.259c-0.832 0.339-1.131 1.755-1.181 2.558 0.709-0.962 1.020-1.071 1.383-1.195-0.141-0.423-0.175-0.845-0.037-1.273-0.056-0.029-0.111-0.059-0.166-0.089zM13.093 14.652c0.076 0.584 1.039 0.843 1.507 0.988 0.065-0.493-0.076-1.081-0.217-1.547l-0.101-0.11c-0.040 0.582-0.246 0.939-0.797 1.149-0.137-0.156-0.268-0.313-0.392-0.48zM12.745 12.465c-0.251 0.852 0.289 1.713 0.818 2.338 0.421-0.22 0.469-0.741 0.444-1.164-0.22-0.317-0.35-0.631-0.386-0.94-0.289-0.035-0.585-0.112-0.876-0.233zM16.666 14.941c0.308 0.169 0.608 0.356 0.898 0.553-0.055-0.409-0.354-0.916-0.601-1.234-0.112-0.066-0.222-0.122-0.335-0.17 0.063 0.268 0.075 0.554 0.038 0.85zM13.902 12.719c0.165 1.050 1.589 2.005 2.434 2.496 0.313-1.274-0.354-2.171-1.523-2.628-0.292 0.101-0.602 0.141-0.911 0.132zM15.154 12.435c0.595 0.278 1.111 0.705 1.367 1.322 0.548 0.18 0.985 0.516 1.41 0.895-0.406-0.919-1.603-1.964-2.451-2.448-0.099 0.088-0.208 0.165-0.326 0.23zM15.676 12.001c0.508 0.299 1.116 0.775 1.62 1.303l0.001-0.002c0.513 0.302 0.951 0.528 1.561 0.519-0.242-1.014-2.276-1.639-3.133-1.881zM15.874 11.697c0.661 0.19 1.221 0.392 1.681 0.606l0.001-0.002c0.621 0.223 1.35 0.373 1.967 0.057-0.731-1.234-2.142-1.442-3.461-1.339-0.017 0.236-0.078 0.465-0.187 0.678zM16.061 10.744c0.423-0.032 0.815-0.029 1.176 0.008l0.001-0.005c0.503 0.070 1.375-0.147 1.872-0.268-0.141-0.237-0.471-0.451-0.703-0.585-0.702 0.454-1.544 0.622-2.37 0.646 0.012 0.068 0.020 0.136 0.024 0.204zM15.49 9.352c0.472-0.385 0.942-0.604 1.411-0.657 0.36-0.234 0.601-0.713 0.748-1.104-0.349-0.066-0.672-0.015-0.957 0.204-0.346 0.563-0.783 1.028-1.294 1.445 0.032 0.037 0.063 0.074 0.092 0.112zM15.973 10.267c0.89-0.018 1.802-0.208 2.515-0.769-0.937-0.733-1.884-0.707-2.839 0.078 0.092 0.142 0.17 0.288 0.232 0.436 0.035 0.085 0.066 0.17 0.091 0.255zM16.979 6.286c-0.416 0.099-0.834 0.383-1.163 0.646-0.246 0.623-0.624 1.224-1.019 1.763 0.149 0.106 0.286 0.222 0.411 0.344 0.883-0.715 1.566-1.62 1.77-2.754z"></path>
</symbol>
<symbol id="icon-rye" viewBox="0 0 32 32">
<path d="M27.352 32c0.339 0 0.614-0.275 0.614-0.614s-0.275-0.614-0.614-0.614v0h-7.209l1.385-3.231c0.069 0.007 0.138 0.011 0.207 0.011 0.085 0 0.17-0.005 0.256-0.015 0.399-0.048 0.756-0.201 1.051-0.43l-0.005 0.004 2.986-2.167c0.456-0.331 0.755-0.825 0.84-1.389 0.078-0.517-0.038-1.050-0.318-1.486l1.052-0.787c0.904-0.676 1.119-1.936 0.515-2.87l1.052-0.787c0.456-0.341 0.752-0.841 0.833-1.407 0.062-0.43-0.006-0.858-0.191-1.239l1.813-4.231c0.031-0.071 0.050-0.154 0.050-0.242 0-0.252-0.151-0.468-0.368-0.563l-0.004-0.002c-0.071-0.031-0.154-0.050-0.242-0.050-0.252 0-0.468 0.151-0.563 0.368l-0.002 0.004-1.611 3.758c-0.201-0.107-0.434-0.185-0.681-0.222l-0.012-0.001c-0.092-0.014-0.199-0.022-0.308-0.022-0.169 0-0.332 0.019-0.49 0.056l0.015-0.003 2.412-5.634c0.030-0.070 0.048-0.152 0.048-0.238 0-0.339-0.275-0.614-0.614-0.614-0.25 0-0.466 0.15-0.561 0.365l-0.002 0.004-2.413 5.636c-0.139-0.232-0.312-0.428-0.515-0.589l-0.005-0.003c-0.182-0.145-0.394-0.263-0.624-0.343l-0.015-0.005 1.611-3.759c0.031-0.071 0.049-0.154 0.049-0.24 0-0.339-0.275-0.614-0.614-0.614-0.251 0-0.467 0.151-0.562 0.367l-0.002 0.004-1.813 4.232c-0.957 0.305-1.597 1.256-1.474 2.29l0.156 1.305c-1.093 0.208-1.857 1.232-1.723 2.353l0.156 1.305c-1.093 0.207-1.857 1.232-1.723 2.353l0.437 3.665c0.066 0.555 0.342 1.053 0.778 1.405l-1.585 3.699h-2.191v-9.094c0.539-0.153 0.989-0.501 1.268-0.985l1.845-3.196c0.285-0.493 0.36-1.069 0.212-1.622-0.135-0.504-0.442-0.932-0.869-1.22l0.657-1.138c0.564-0.978 0.266-2.22-0.657-2.841l0.657-1.138c0.52-0.901 0.307-2.028-0.452-2.685v-4.604c0-0.339-0.275-0.614-0.614-0.614s-0.614 0.275-0.614 0.614v0 4.089c-0.049-0.004-0.107-0.006-0.165-0.006-0.199 0-0.391 0.027-0.574 0.078l0.015-0.004c-0.271 0.074-0.507 0.19-0.715 0.342l0.006-0.004v-6.13c0-0.339-0.275-0.614-0.614-0.614s-0.614 0.275-0.614 0.614v0 6.13c-0.35-0.258-0.79-0.412-1.266-0.412-0.059 0-0.117 0.002-0.175 0.007l0.008-0v-4.089c0-0.339-0.275-0.614-0.614-0.614s-0.614 0.275-0.614 0.614v0 4.604c-0.759 0.657-0.973 1.784-0.452 2.685l0.657 1.138c-0.923 0.621-1.221 1.864-0.657 2.841l0.657 1.138c-0.43 0.29-0.746 0.735-0.878 1.241-0.144 0.553-0.064 1.124 0.225 1.608l1.888 3.163c0.191 0.339 0.461 0.613 0.786 0.803l0.010 0.005c0.121 0.071 0.262 0.135 0.409 0.182l0.015 0.004v9.111h-2.196l-1.586-3.699c0.435-0.353 0.712-0.85 0.778-1.405l0.437-3.665c0.134-1.121-0.63-2.145-1.723-2.353l0.156-1.305c0.134-1.121-0.63-2.145-1.723-2.353l0.156-1.305c0.123-1.034-0.516-1.985-1.474-2.29l-1.813-4.232c-0.096-0.221-0.313-0.374-0.565-0.374-0.339 0-0.614 0.275-0.614 0.614 0 0.088 0.018 0.171 0.052 0.247l-0.002-0.004 1.611 3.759c-0.245 0.085-0.457 0.202-0.643 0.351l0.004-0.003c-0.208 0.164-0.382 0.361-0.516 0.585l-0.005 0.010-2.412-5.638c-0.096-0.221-0.313-0.373-0.564-0.373-0.087 0-0.17 0.018-0.245 0.051l0.004-0.002c-0.221 0.096-0.373 0.313-0.373 0.564 0 0.087 0.018 0.17 0.051 0.245l-0.002-0.004 2.41 5.633c-0.142-0.033-0.305-0.053-0.472-0.053-0.109 0-0.215 0.008-0.32 0.024l0.012-0.001c-0.259 0.038-0.492 0.116-0.704 0.229l0.012-0.006-1.611-3.759c-0.097-0.22-0.313-0.371-0.564-0.371-0.339 0-0.614 0.275-0.614 0.614 0 0.087 0.018 0.169 0.051 0.244l-0.002-0.004 1.813 4.232c-0.439 0.903-0.191 2.022 0.642 2.646l1.052 0.787c-0.603 0.934-0.389 2.194 0.515 2.87l1.052 0.787c-0.28 0.436-0.397 0.97-0.318 1.486 0.085 0.565 0.384 1.058 0.84 1.389l2.985 2.167c0.29 0.225 0.647 0.378 1.036 0.425l0.010 0.001c0.086 0.010 0.171 0.015 0.256 0.015 0.074-0 0.146-0.004 0.217-0.012l-0.009 0.001 1.385 3.231h-7.209c-0.339 0-0.614 0.275-0.614 0.614s0.275 0.614 0.614 0.614v0h22.704zM16.027 15.358l-0.024 0.042-0.024-0.042c-0.133-0.227-0.297-0.42-0.491-0.58l-0.004-0.003 1.607-2.783c0.121-0.209 0.317-0.359 0.553-0.422s0.481-0.032 0.69 0.089c0.435 0.251 0.584 0.809 0.333 1.243l-0.801 1.387c-0.193 0.002-0.379 0.029-0.555 0.077l0.015-0.004c-0.553 0.148-1.014 0.501-1.299 0.994zM13.338 12.903c-0.251-0.435-0.101-0.992 0.333-1.243s0.992-0.101 1.243 0.333l0.379 0.656-0.954 1.652c-0.067-0.007-0.134-0.011-0.2-0.011l-0.801-1.387zM17.643 7.591c0.236-0.063 0.481-0.032 0.69 0.089 0.435 0.251 0.584 0.809 0.333 1.243l-0.801 1.387c-0.193 0.002-0.379 0.029-0.555 0.077l0.015-0.004c-0.553 0.148-1.014 0.501-1.299 0.994l-0.024 0.042-0.024-0.042c-0.133-0.227-0.297-0.42-0.491-0.58l-0.004-0.003 1.607-2.783c0.121-0.209 0.317-0.359 0.553-0.422zM14.915 8.014l0.379 0.655-0.954 1.653c-0.059-0.006-0.129-0.010-0.199-0.011h-0.001l-0.801-1.387c-0.251-0.435-0.101-0.992 0.333-1.243s0.992-0.102 1.243 0.333zM13.242 16.205c0.063-0.242 0.215-0.443 0.429-0.566 0.209-0.121 0.454-0.152 0.69-0.089s0.432 0.213 0.553 0.422l0.379 0.656-1.036 1.794-0.924-1.548c-0.119-0.2-0.152-0.437-0.091-0.669zM15.266 20.111l-0.010-0.016c-0.041-0.068-0.076-0.146-0.099-0.229l-0.002-0.006c-0.063-0.236-0.032-0.481 0.089-0.69l1.846-3.196c0.121-0.209 0.317-0.359 0.553-0.422 0.072-0.020 0.154-0.032 0.24-0.032h0c0.157 0 0.312 0.041 0.45 0.121 0.209 0.121 0.359 0.317 0.422 0.553s0.032 0.481-0.089 0.69l-1.845 3.196c-0.121 0.209-0.317 0.359-0.553 0.422-0.072 0.020-0.154 0.032-0.239 0.032-0.008 0-0.017-0-0.025-0l0.001 0-0.002-0-0.002 0c-0.156-0.005-0.301-0.049-0.426-0.123l0.004 0.002c-0.128-0.075-0.233-0.176-0.31-0.297l-0.002-0.004zM10.036 18.2l-0.19 1.591c-0.672 0.294-1.176 0.926-1.269 1.706l-0.006 0.049-0.039-0.029c-0.195-0.147-0.422-0.264-0.669-0.337l-0.015-0.004 0.381-3.191c0.059-0.498 0.513-0.855 1.011-0.796s0.855 0.513 0.796 1.011zM7.003 13.721c0.192-0.151 0.429-0.219 0.669-0.19 0.498 0.059 0.855 0.513 0.796 1.011l-0.19 1.591c-0.672 0.294-1.176 0.926-1.269 1.706l-0.006 0.049-0.039-0.029c-0.195-0.147-0.422-0.264-0.669-0.337l-0.015-0.004 0.381-3.191c0.029-0.24 0.15-0.455 0.342-0.606zM3.388 15.367c0.145-0.193 0.357-0.319 0.599-0.354s0.481 0.026 0.671 0.167l0.61 0.464-0.225 1.887c-0.064 0.020-0.127 0.043-0.188 0.069l-1.283-0.96c-0.402-0.301-0.484-0.872-0.183-1.274zM4.955 19.025c0.301-0.402 0.872-0.484 1.274-0.183l0.607 0.454-0.226 1.895c-0.064 0.020-0.127 0.043-0.188 0.068l-1.283-0.96c-0.402-0.301-0.484-0.872-0.184-1.274zM6.351 23.372c-0.037-0.247 0.023-0.491 0.171-0.689 0.145-0.193 0.357-0.319 0.599-0.354s0.481 0.026 0.675 0.17l0.607 0.454-0.245 2.057-1.459-1.059c-0.188-0.137-0.312-0.342-0.348-0.579zM9.749 26.165l-0.015-0.011c-0.071-0.051-0.132-0.11-0.184-0.176l-0.001-0.002c-0.151-0.192-0.219-0.43-0.19-0.669l0.437-3.665c0.055-0.462 0.449-0.802 0.903-0.802 0.036 0 0.072 0.002 0.108 0.006 0.498 0.059 0.855 0.513 0.796 1.011l-0.437 3.665c-0.029 0.24-0.15 0.455-0.342 0.606-0.066 0.053-0.142 0.097-0.224 0.13l-0.006 0.002-0.002 0.001-0.002 0.001c-0.137 0.054-0.286 0.073-0.435 0.055-0.153-0.019-0.291-0.073-0.409-0.155l0.003 0.002zM24.327 13.531c0.239-0.029 0.477 0.039 0.669 0.19s0.313 0.366 0.342 0.606l0.381 3.191c-0.261 0.077-0.489 0.194-0.689 0.345l0.005-0.004-0.039 0.029-0.006-0.049c-0.093-0.78-0.597-1.411-1.269-1.706l-0.19-1.591c-0.059-0.498 0.298-0.952 0.796-1.011zM22.76 17.188c0.032-0.004 0.070-0.006 0.108-0.006 0.058 0 0.115 0.006 0.17 0.016l-0.006-0.001c0.005 0.001 0.009 0.002 0.014 0.003 0.375 0.076 0.677 0.384 0.725 0.784l0.381 3.191c-0.261 0.077-0.489 0.194-0.689 0.345l0.005-0.004-0.039 0.029-0.006-0.049c-0.093-0.78-0.597-1.412-1.269-1.706l-0.19-1.591c-0.059-0.498 0.298-0.952 0.796-1.011zM21.409 26.262l-0.001-0.001-0.001-0c-0.088-0.035-0.165-0.080-0.233-0.135l0.002 0.001c-0.192-0.151-0.313-0.366-0.342-0.606l-0.437-3.665c-0.059-0.498 0.298-0.952 0.796-1.011 0.036-0.004 0.073-0.006 0.108-0.006 0.454 0 0.848 0.34 0.903 0.802l0.437 3.665c0.029 0.24-0.039 0.477-0.19 0.669-0.054 0.068-0.115 0.126-0.183 0.176l-0.003 0.002-0.015 0.011c-0.114 0.080-0.252 0.135-0.401 0.153l-0.004 0c-0.032 0.004-0.070 0.006-0.108 0.006-0.118 0-0.231-0.023-0.335-0.064l0.006 0.002zM25.649 23.371c-0.036 0.237-0.159 0.443-0.348 0.579l-1.459 1.059-0.245-2.057 0.607-0.454c0.193-0.145 0.433-0.205 0.675-0.17s0.454 0.16 0.599 0.354c0.148 0.198 0.209 0.442 0.171 0.689zM26.861 20.298l-1.283 0.96c-0.047-0.021-0.11-0.044-0.173-0.064l-0.015-0.004-0.226-1.895 0.607-0.454c0.193-0.145 0.433-0.205 0.675-0.17s0.454 0.16 0.599 0.354c0.301 0.402 0.218 0.973-0.183 1.274zM28.782 16.042c-0.035 0.242-0.16 0.455-0.354 0.599l-1.283 0.96c-0.047-0.021-0.11-0.044-0.174-0.064l-0.015-0.004-0.226-1.892 0.607-0.457c0.193-0.145 0.433-0.205 0.675-0.17s0.454 0.16 0.599 0.354c0.145 0.193 0.205 0.433 0.17 0.675z"></path>
</symbol>
<symbol id="icon-rapeseed" viewBox="0 0 26 32">
<path d="M24.028 13.647c-0.433-1.371-1.16-2.067-2.162-2.067-0.326 0-0.669 0.080-1.017 0.219-0.213-0.136-0.502-0.212-0.839-0.212-0.357 0-0.743 0.083-1.116 0.239-0.265 0.112-0.494 0.246-0.701 0.407l0.007-0.005c-0.119 0.092-0.263 0.165-0.453 0.228-0.13 0.044-0.242 0.102-0.344 0.173l0.004-0.003c-0.037-0.556-0.118-1.115-0.254-1.61-0.013-0.047-0.027-0.090-0.040-0.136 0.092-0.049 0.184-0.103 0.274-0.162 0.841-0.551 1.286-1.309 1.015-1.729l-0.001-0.003-0-0.001c-0.111-0.169-0.318-0.259-0.601-0.259-0.405 0-0.913 0.18-1.392 0.494-0.054 0.036-0.107 0.072-0.158 0.11-0.358-0.336-0.788-0.511-1.282-0.511-0.513 0-1.096 0.189-1.734 0.56-1.005 0.578-1.537 1.248-1.594 1.997-0.23-0.725-0.448-1.406-0.639-2.004 0.23-0.24 0.446-0.474 0.656-0.701 0.548-0.592 1.018-1.099 1.434-1.399 0.12 0.203 0.352 0.332 0.616 0.332 0.144-0 0.28-0.036 0.399-0.098l-0.005 0.002c0.104-0.054 0.193-0.084 0.28-0.096 0.179-0.026 0.341-0.073 0.493-0.138l-0.012 0.005c0.296-0.125 0.548-0.311 0.707-0.526 0.171-0.23 0.219-0.466 0.135-0.666-0.001-0.003-0.003-0.005-0.004-0.008l-0.002-0.004c-0.105-0.231-0.379-0.369-0.74-0.369-0.223 0-0.463 0.051-0.694 0.148-0.165 0.069-0.307 0.153-0.436 0.253l0.004-0.003c-0.069 0.053-0.153 0.096-0.264 0.133-0.028 0.009-0.048 0.017-0.068 0.026l0.007-0.002c-0.353 0.148-0.552 0.498-0.488 0.821-0.447 0.31-0.935 0.838-1.507 1.454-0.187 0.202-0.378 0.409-0.58 0.621-0.22-0.686-0.4-1.244-0.517-1.605 0.189-0.005 0.362-0.071 0.5-0.179l-0.002 0.001c0.093-0.072 0.175-0.118 0.258-0.145 0.171-0.058 0.319-0.132 0.455-0.222l-0.007 0.004c0.575-0.377 0.844-0.95 0.619-1.313l-0.002-0.003c-0.002-0.003-0.003-0.006-0.005-0.008-0.11-0.168-0.315-0.261-0.575-0.261-0.276 0-0.599 0.107-0.883 0.293-0.144 0.094-0.268 0.201-0.378 0.322l-0.001 0.002c-0.050 0.054-0.106 0.1-0.168 0.138l-0.003 0.002c-0.013-0.007-0.026-0.014-0.038-0.020-0.107-0.050-0.185-0.101-0.248-0.162-0.116-0.113-0.248-0.211-0.391-0.292l-0.010-0.005c-0.27-0.152-0.562-0.236-0.823-0.236-0.295 0-0.527 0.111-0.635 0.303-0.002 0.003-0.003 0.006-0.004 0.008l-0.001 0.003c-0.099 0.187-0.077 0.422 0.064 0.665 0.134 0.231 0.363 0.445 0.643 0.603 0.133 0.077 0.287 0.141 0.449 0.184l0.013 0.003c0.084 0.022 0.169 0.062 0.267 0.128 0.133 0.090 0.297 0.145 0.473 0.145h0c0.037 0 0.073-0.003 0.109-0.008 0.044 0.327 0.155 0.868 0.341 1.716-0.44-0.221-0.813-0.448-1.167-0.7l0.027 0.018c-0.333-0.229-0.557-0.383-1.075-0.515 0.027-0.318-0.193-0.639-0.546-0.76-0.015-0.005-0.036-0.012-0.057-0.017l-0.005-0.001c-0.114-0.030-0.2-0.066-0.273-0.114-0.129-0.087-0.277-0.161-0.434-0.216l-0.013-0.004c-0.179-0.064-0.385-0.102-0.6-0.104h-0.001c-0.408 0-0.717 0.161-0.815 0.422l-0.002 0.005c-0.001 0.003-0.003 0.005-0.003 0.007-0.14 0.41 0.264 0.906 0.921 1.132 0.163 0.056 0.327 0.090 0.488 0.101 0.087 0.006 0.178 0.030 0.286 0.077 0.101 0.045 0.219 0.071 0.343 0.071h0c0.302 0 0.556-0.158 0.662-0.404 0.483 0.124 0.69 0.265 1.013 0.487 0.27 0.186 0.632 0.435 1.307 0.767 0.061 0.275 0.129 0.579 0.204 0.915l0.026 0.114c-0.682-0.18-1.27-0.296-1.819-0.365-0.054-0.114-0.126-0.211-0.215-0.29l-0.001-0.001c-0.194-0.176-0.464-0.292-0.761-0.327-0.025-0.003-0.057-0.006-0.090-0.008l-0.004-0c-0.187-0.010-0.335-0.036-0.467-0.082-0.209-0.074-0.453-0.131-0.706-0.16l-0.016-0.002c-0.125-0.016-0.271-0.025-0.418-0.025h-0c-0.837 0-1.458 0.306-1.514 0.745-0 0.001-0 0.002-0 0.003v0c-0 0.001-0 0.002-0.001 0.002l0-0c-0.061 0.526 0.691 1.032 1.714 1.152 0.123 0.016 0.266 0.025 0.41 0.025 0.116 0 0.231-0.006 0.344-0.017l-0.014 0.001c0.137-0.014 0.289-0.005 0.473 0.028 0.082 0.015 0.176 0.024 0.272 0.024 0.001 0 0.002 0 0.002 0h-0c0.56 0 1.001-0.301 1.049-0.716 0.002-0.021 0.004-0.045 0.004-0.070 0-0.026-0.002-0.052-0.005-0.078l0 0.003c0.544 0.072 1.132 0.193 1.812 0.376-0.087-0.6 0.098 0.221 0.278 1.043l0.256 1.392c-0.063-0.007-0.135-0.012-0.209-0.012h-0c-0.441 0-0.815 0.151-1.132 0.393-0.474-0.165-0.837-0.274-1.271-0.356-0.020-0.217-0.113-0.426-0.273-0.602-0.205-0.225-0.495-0.369-0.816-0.406-0.029-0.004-0.064-0.007-0.1-0.008l-0.002-0c-0.2-0.008-0.358-0.038-0.498-0.093-0.227-0.092-0.49-0.16-0.764-0.192l-0.014-0.001c-0.113-0.014-0.243-0.022-0.376-0.022h-0c-0.93 0-1.653 0.416-1.72 0.99l-0 0.009v0.003c-0.033 0.325 0.141 0.651 0.492 0.918 0.34 0.259 0.811 0.434 1.325 0.495 0.273 0.032 0.547 0.029 0.802-0.008 0.148-0.021 0.31-0.014 0.507 0.024 0.079 0.016 0.17 0.025 0.262 0.025 0 0 0.001 0 0.001 0h-0c0.606 0 1.11-0.4 1.173-0.931 0.371 0.071 0.693 0.166 1.097 0.304-0.506 0.47-0.85 1.172-1.074 1.802-0.379 1.064-0.55 2.31-0.532 3.183-0.032 0.005-0.063 0.012-0.094 0.020-0.152-0.353-0.365-0.746-0.592-1.107-0.885-1.407-2.314-2.91-3.67-2.91-0.862 0-1.586 0.587-2.152 1.744-0.532 1.070-0.592 1.951-0.177 2.62 0.719 1.16 2.618 1.333 3.686 1.333 0.635 0 1.266-0.062 1.793-0.162-0.039 0.055-0.073 0.119-0.097 0.186l-0.002 0.006c-1.492 0.531-3.476 1.71-3.915 3.097-0.302 0.955 0.141 1.858 1.317 2.684 0.675 0.48 1.301 0.724 1.861 0.724 1.016 0 1.809-0.788 2.291-2.279 0.429-1.326 0.517-3.039 0.338-3.917 0.043 0.068 0.096 0.128 0.156 0.18 0.138 0.409 0.424 0.926 0.702 1.352 0.923 1.414 2.406 2.926 3.796 2.926 0.89 0 1.616-0.611 2.156-1.817 0.488-1.073 0.523-1.947 0.104-2.599-0.279-0.434-0.729-0.719-1.231-0.905 0.66-0.551 1.257-1.243 1.703-1.885 0.128-0.185 0.435-0.645 0.606-1.056 0 0.078 0.012 0.154 0.033 0.226l-0.001-0.006c-0.246 0.898-0.24 2.744 0.166 4.133 0.425 1.455 1.193 2.224 2.221 2.224 0.53 0 1.131-0.209 1.785-0.62 1.247-0.774 1.735-1.671 1.452-2.664-0.434-1.522-2.584-2.832-4.025-3.372-0.006-0.065-0.019-0.124-0.038-0.181l0.002 0.006c0.83 0.273 1.921 0.483 2.906 0.483 1.265 0 2.179-0.337 2.644-0.975 0.433-0.596 0.478-1.441 0.133-2.512zM15.488 6.115c-0.22 0.242-0.739 0.591-0.935 0.642-0.039 0.014-0.066 0.051-0.066 0.094 0 0.055 0.045 0.1 0.1 0.1 0.006 0 0.012-0.001 0.018-0.002l-0.001 0c0.216-0.056 0.665-0.354 0.932-0.602-0.013 0.091-0.057 0.189-0.131 0.289-0.139 0.186-0.36 0.35-0.625 0.461-0.125 0.055-0.27 0.097-0.421 0.119l-0.009 0.001c-0.109 0.015-0.218 0.052-0.343 0.116-0.088 0.046-0.193 0.074-0.303 0.074h-0c-0.217 0-0.397-0.108-0.47-0.282-0.105-0.251 0.050-0.556 0.346-0.68 0.016-0.007 0.031-0.012 0.047-0.018 0.133-0.044 0.236-0.096 0.323-0.164 0.112-0.087 0.239-0.162 0.375-0.219l0.011-0.004c0.207-0.087 0.421-0.133 0.617-0.133 0.253-0 0.447 0.077 0.535 0.208zM7.503 8.421c-0.096-0-0.187-0.020-0.269-0.057l0.004 0.002c-0.127-0.055-0.242-0.085-0.35-0.092-0.16-0.012-0.309-0.044-0.449-0.094l0.012 0.004c-0.429-0.147-0.749-0.436-0.805-0.697 0.284 0.229 0.752 0.496 0.972 0.538 0.006 0.001 0.014 0.002 0.021 0.002 0.055 0 0.099-0.044 0.099-0.099 0-0.049-0.036-0.090-0.083-0.098l-0.001-0c-0.199-0.038-0.74-0.35-0.976-0.577 0.088-0.154 0.313-0.248 0.607-0.248 0.172 0 0.357 0.032 0.536 0.094 0.153 0.052 0.285 0.119 0.407 0.2l-0.006-0.004c0.091 0.061 0.197 0.106 0.333 0.142 0.016 0.004 0.032 0.009 0.048 0.015 0.304 0.104 0.48 0.398 0.392 0.655-0.066 0.191-0.259 0.314-0.494 0.314zM8.755 10.463c-0.036 0.308-0.402 0.541-0.852 0.541-0.084-0-0.167-0.008-0.247-0.023l0.008 0.001c-0.114-0.023-0.245-0.036-0.379-0.038h-0.001c-0.001 0-0.002 0-0.003 0-0.051 0-0.102 0.003-0.152 0.008l0.006-0.001c-0.093 0.009-0.2 0.015-0.309 0.015-0.137 0-0.271-0.008-0.404-0.025l0.016 0.002c-0.761-0.089-1.389-0.419-1.517-0.766 0.477 0.227 1.345 0.478 1.703 0.478h0c0.055 0 0.099-0.044 0.099-0.099s-0.044-0.099-0.099-0.099h-0c-0.323 0-1.285-0.274-1.712-0.506 0.096-0.3 0.625-0.512 1.304-0.512 0.13 0 0.262 0.008 0.395 0.023 0.24 0.028 0.469 0.079 0.68 0.153 0.15 0.052 0.315 0.081 0.521 0.092 0.027 0.001 0.054 0.004 0.082 0.007 0.255 0.030 0.487 0.128 0.65 0.276 0.154 0.141 0.229 0.309 0.21 0.473zM8.486 13.354c-0.050 0.432-0.47 0.757-0.976 0.757-0.080-0-0.158-0.008-0.234-0.023l0.008 0.001c-0.112-0.024-0.241-0.039-0.374-0.040h-0.001c-0.001 0-0.003 0-0.004 0-0.069 0-0.136 0.005-0.202 0.015l0.007-0.001c-0.237 0.035-0.494 0.038-0.75 0.008-0.479-0.056-0.915-0.218-1.228-0.456-0.275-0.209-0.42-0.452-0.417-0.69 0.503-0.182 1.598-0.27 1.937-0.18 0.005 0.001 0.012 0.002 0.018 0.002 0.055 0 0.1-0.045 0.1-0.1 0-0.043-0.028-0.080-0.066-0.094l-0.001-0c-0.381-0.101-1.383-0.016-1.94 0.148 0.168-0.384 0.75-0.648 1.477-0.648 0.116 0 0.235 0.007 0.353 0.020 0.258 0.030 0.503 0.091 0.728 0.18 0.162 0.064 0.341 0.098 0.564 0.107 0.029 0.001 0.058 0.003 0.087 0.007 0.274 0.032 0.519 0.154 0.692 0.343 0.17 0.185 0.248 0.413 0.221 0.643zM17.911 16.389c0.167 0.112 0.275 0.3 0.275 0.514 0 0.341-0.277 0.618-0.618 0.618-0.298 0-0.547-0.211-0.605-0.492l-0.001-0.004c-0.008-0.037-0.012-0.079-0.012-0.122 0-0.341 0.277-0.618 0.618-0.618 0.128 0 0.247 0.039 0.345 0.105l-0.002-0.001zM20.849 22.693c-0.622 0.391-1.187 0.59-1.679 0.59-1.175 0-1.752-1.132-2.030-2.081-0.399-1.364-0.371-2.939-0.213-3.794 0.151 0.191 0.382 0.312 0.642 0.312 0.282 0 0.531-0.143 0.678-0.361l0.002-0.003c0.067-0.1 0.107-0.209 0.125-0.32 1.385 0.537 3.437 1.8 3.842 3.217 0.256 0.898-0.204 1.719-1.366 2.441zM15.388 23.267c-0.505 1.128-1.17 1.7-1.975 1.7-1.313 0-2.776-1.528-3.63-2.836-0.284-0.435-0.476-0.802-0.596-1.088 0.081 0.027 0.168 0.043 0.259 0.043 0.451-0.001 0.816-0.366 0.817-0.817v-0c0-0.12-0.027-0.234-0.073-0.337 0.575-0.128 1.309-0.222 2.066-0.222 0.938 0 2.607 0.149 3.25 1.148 0.38 0.591 0.34 1.401-0.119 2.409zM8.232 24.563c-0.316 0.977-0.937 2.141-2.102 2.141-0.518 0-1.105-0.231-1.746-0.687-1.097-0.771-1.515-1.599-1.242-2.462 0.402-1.273 2.254-2.392 3.679-2.927-0.001 0.015-0.002 0.030-0.002 0.045 0.001 0.451 0.366 0.816 0.817 0.817h0c0.451-0.001 0.816-0.366 0.817-0.817v-0c0-0.129-0.031-0.25-0.084-0.359 0.014 0.004 0.026 0.009 0.037 0.016l-0.001-0c0.302 0.219 0.416 2.408-0.174 4.232zM1.843 16.503c0.53-1.084 1.194-1.633 1.974-1.633 1.276 0 2.646 1.455 3.502 2.817 0.252 0.4 0.444 0.771 0.577 1.079-0.248 0.143-0.413 0.407-0.413 0.709v0c0 0.136 0.034 0.265 0.093 0.378l-0.032 0.010c-0.090 0.010-0.173 0.034-0.249 0.070l0.005-0.002c-0.536 0.134-1.295 0.239-2.126 0.239-1.747 0-3.028-0.452-3.517-1.239-0.376-0.606-0.314-1.422 0.185-2.427zM10.882 10.341c-0.174-0.775-0.343-1.528-0.461-2.105-1.201-4.47-0.643-2.761-0.091-1.050l1.726 6.186c-0.157-0.074-0.34-0.137-0.531-0.18l-0.018-0.003c-0.483-2.448-0.7-3.407-0.923-4.364l0.297 1.517zM8.226 5.923c0.326 0.025 0.921 0.22 1.082 0.344 0.017 0.013 0.038 0.021 0.060 0.021 0.032 0 0.061-0.015 0.079-0.039l0-0c0.013-0.017 0.020-0.038 0.020-0.060 0-0.032-0.015-0.061-0.039-0.079l-0-0c-0.177-0.136-0.687-0.307-1.047-0.366 0.085-0.048 0.197-0.074 0.329-0.074 0.227 0 0.485 0.074 0.726 0.21 0.135 0.076 0.255 0.165 0.359 0.266 0.079 0.077 0.175 0.141 0.302 0.2 0.015 0.007 0.030 0.015 0.045 0.023 0.28 0.157 0.4 0.478 0.267 0.715-0.081 0.144-0.241 0.23-0.429 0.23-0.136-0.001-0.261-0.043-0.366-0.114l0.002 0.001c-0.117-0.078-0.221-0.127-0.328-0.154-0.157-0.042-0.295-0.099-0.422-0.172l0.008 0.004c-0.25-0.14-0.452-0.328-0.568-0.529-0.092-0.159-0.12-0.308-0.080-0.426zM10.538 6.176c0.099-0.11 0.211-0.205 0.333-0.286l0.007-0.004c0.253-0.166 0.536-0.261 0.775-0.261 0.105 0 0.196 0.019 0.269 0.054-0.355 0.083-0.852 0.289-1.020 0.436-0.021 0.018-0.034 0.045-0.034 0.075 0 0.055 0.044 0.099 0.099 0.099 0 0 0.001 0 0.001 0h-0c0 0 0 0 0 0 0.025 0 0.048-0.009 0.066-0.025l-0 0c0.152-0.134 0.732-0.37 1.056-0.417 0.11 0.268-0.141 0.708-0.582 0.997-0.116 0.078-0.248 0.144-0.389 0.192l-0.012 0.004c-0.105 0.035-0.205 0.090-0.317 0.176-0.097 0.076-0.218 0.125-0.35 0.135l-0.002 0c0.058-0.049 0.108-0.106 0.146-0.173 0.158-0.282 0.071-0.643-0.188-0.874 0.055-0.040 0.103-0.082 0.145-0.128zM14.964 9.019c0.465 0 0.832 0.172 1.123 0.436-0.086 0.071-0.168 0.144-0.244 0.221-0.096 0.097-0.215 0.184-0.373 0.275-0.034 0.019-0.060 0.035-0.085 0.052l0.006-0.004c-0.302 0.198-0.503 0.478-0.569 0.75-0.931 0.398-2.074 0.954-2.797 1.598-0.049-0.103-0.095-0.225-0.13-0.352l-0.004-0.016c-0.245-0.919 0.238-1.735 1.439-2.426 0.607-0.354 1.157-0.534 1.634-0.534zM17.797 8.925c0.096 0 0.212 0.013 0.307 0.060-0.497 0.135-1.295 0.494-1.563 0.715-0.022 0.018-0.036 0.046-0.036 0.076 0 0.055 0.044 0.099 0.099 0.099 0.024 0 0.046-0.009 0.064-0.023l-0 0c0.242-0.201 1.128-0.602 1.592-0.702 0.111 0.305-0.235 0.91-0.985 1.4-0.198 0.13-0.401 0.235-0.605 0.314-0.144 0.056-0.286 0.138-0.448 0.258-0.018 0.014-0.039 0.029-0.061 0.043l-0.005 0.003c-0.203 0.133-0.43 0.206-0.638 0.206-0.209 0-0.372-0.073-0.46-0.206-0.181-0.277 0.016-0.728 0.439-1.005 0.023-0.015 0.045-0.029 0.069-0.042 0.175-0.1 0.307-0.197 0.416-0.307 0.157-0.157 0.331-0.298 0.518-0.421l0.012-0.008c0.442-0.289 0.922-0.462 1.284-0.462zM16.96 11.068c0.153 0.557 0.233 1.146 0.262 1.709-0.281 0.277-0.412 0.659-0.332 1.016-0.893 0.339-1.631 0.68-2.342 1.066l0.101-0.050c-0.99-0.566-2.038-1.382-2.532-2.28 0.667-0.614 1.762-1.157 2.681-1.554 0.006 0.11 0.037 0.214 0.096 0.305 0.123 0.188 0.351 0.296 0.626 0.296 0.246 0 0.511-0.085 0.746-0.239 0.026-0.017 0.051-0.035 0.076-0.053 0.146-0.109 0.274-0.183 0.401-0.232 0.063-0.025 0.126-0.052 0.189-0.081 0.010 0.033 0.019 0.066 0.028 0.098zM17.053 16.224c-0 0-0 0-0 0-0.128 0-0.246-0.039-0.344-0.105l0.002 0.001c-0.134-0.090-0.23-0.228-0.262-0.389l-0.001-0.004c-0.008-0.037-0.012-0.079-0.012-0.121 0-0.341 0.277-0.618 0.618-0.618s0.618 0.277 0.618 0.618c0 0.203-0.097 0.382-0.248 0.495l-0.002 0.001c-0.113 0.021-0.213 0.062-0.301 0.12l0.003-0.002c-0.021 0.003-0.045 0.004-0.070 0.005h-0zM9.952 19.629c0.097-0.027 0.195-0.056 0.296-0.088 0.028 0.054 0.058 0.106 0.087 0.156-0.088 0.017-0.174 0.036-0.257 0.055-0.038-0.046-0.079-0.087-0.124-0.122l-0.002-0.001zM10.439 19.478c0.691-0.237 1.284-0.512 1.842-0.841l-0.047 0.025c0.029 0.299 0.049 0.583 0.061 0.849l-0.039-0c-0.585 0-1.184 0.056-1.713 0.147-0.036-0.058-0.070-0.118-0.104-0.18zM12.422 18.549c0.368-0.229 0.71-0.483 0.999-0.759 0.233 0.78 0.424 1.442 0.548 1.909-0.515-0.128-1.043-0.174-1.474-0.185-0.017-0.374-0.043-0.708-0.079-1.039l0.006 0.073zM16.351 16.578c-0.112 0.167-0.301 0.275-0.514 0.275-0.128 0-0.247-0.039-0.345-0.105l0.002 0.001c-0.134-0.090-0.23-0.228-0.262-0.389l-0.001-0.004c-0.008-0.036-0.012-0.078-0.012-0.121 0-0.341 0.277-0.618 0.618-0.618 0.163 0 0.311 0.063 0.421 0.166l-0-0c0.033 0.144 0.099 0.268 0.192 0.37l-0.001-0.001c0.004 0.025 0.006 0.055 0.006 0.084 0 0.127-0.038 0.245-0.105 0.343l0.001-0.002zM14.16 15.369c-0.006-0.015-0.011-0.030-0.018-0.046 0.090-0.057 0.255-0.152 0.422-0.243l0.083-0.042c0.238 0.136 0.531 0.283 0.832 0.413l0.060 0.023c-0.070 0.027-0.136 0.065-0.196 0.111-0.321-0.083-0.723-0.159-1.133-0.211l-0.052-0.005zM14.055 15.143c-0.211-0.394-0.558-0.783-1.040-1.166-0.208-0.171-0.44-0.33-0.686-0.469l-0.024-0.013-0.183-0.58c0.538 0.789 1.44 1.492 2.319 2.006-0.132 0.073-0.26 0.147-0.387 0.222zM17.307 14.83c0.024-0.126 0.044-0.262 0.061-0.405 0.079 0.045 0.164 0.081 0.254 0.106-0.065 0.090-0.146 0.205-0.227 0.333-0.023-0.011-0.052-0.023-0.082-0.032l-0.005-0.002zM16.955 13.984c0.055 0.118 0.133 0.222 0.23 0.309-0.020 0.182-0.044 0.349-0.072 0.5-0.019-0.001-0.038-0.004-0.058-0.004-0 0-0.001 0-0.002 0-0.421 0-0.767 0.318-0.811 0.727l-0 0.004-0.035-0.011c-0.071-0.038-0.154-0.066-0.241-0.080l-0.005-0.001c-0.323-0.116-0.704-0.288-1.102-0.503 0.562-0.304 1.253-0.62 1.963-0.896l0.132-0.045zM20.966 12.197c-0.347 0.406-1.26 1.022-1.599 1.111-0.041 0.013-0.070 0.051-0.070 0.095 0 0.055 0.045 0.1 0.1 0.1 0.007 0 0.014-0.001 0.021-0.002l-0.001 0c0.38-0.1 1.21-0.666 1.616-1.082 0.051 0.492-0.478 1.107-1.284 1.446-0.24 0.101-0.483 0.168-0.723 0.201-0.172 0.024-0.345 0.082-0.543 0.184-0.153 0.081-0.335 0.129-0.528 0.129h-0c-0.383 0-0.701-0.192-0.831-0.502-0.187-0.444 0.084-0.983 0.603-1.201 0.019-0.009 0.046-0.019 0.074-0.029l0.008-0.002c0.212-0.071 0.375-0.153 0.512-0.26 0.188-0.145 0.401-0.271 0.631-0.368l0.019-0.007c0.348-0.146 0.708-0.224 1.039-0.224 0.463-0 0.815 0.152 0.958 0.411zM12.891 14.131c1.028 0.817 1.403 1.651 1.114 2.479-0.493 1.414-2.797 2.519-4.304 2.883-0.076-0.026-0.164-0.041-0.255-0.041-0.121 0-0.236 0.026-0.339 0.074l0.005-0.002c0.001-0.016 0.003-0.033 0.003-0.050-0.001-0.426-0.326-0.775-0.742-0.813l-0.003-0c-0.013-0.807 0.131-2.013 0.521-3.109 0.359-1.009 1.032-2.213 2.196-2.213 0.543 0.001 1.149 0.267 1.803 0.792zM8.299 18.856c0.341 0 0.618 0.277 0.618 0.618v0c0 0.073-0.013 0.142-0.036 0.207-0.077 0.074-0.139 0.162-0.182 0.26l-0.002 0.005c-0.108 0.090-0.246 0.145-0.397 0.145-0.341-0-0.618-0.277-0.618-0.618v-0c0-0.341 0.277-0.618 0.618-0.618v0zM7.636 20.055c0.034 0 0.067 0.004 0.1 0.009 0.1 0.096 0.224 0.166 0.362 0.201 0.096 0.109 0.155 0.252 0.155 0.408-0 0.341-0.277 0.618-0.618 0.618h-0c-0.341-0-0.618-0.277-0.618-0.618v-0c0-0.341 0.277-0.618 0.618-0.618h0zM8.829 20.269c0-0.341 0.277-0.618 0.618-0.618h0c0.341 0 0.618 0.277 0.618 0.618v0c-0 0.341-0.277 0.618-0.618 0.618h-0c-0.341-0-0.618-0.277-0.618-0.618v-0zM14.189 19.76c-0.127-0.495-0.343-1.242-0.609-2.13 0.28-0.298 0.495-0.617 0.612-0.954 0.067-0.181 0.106-0.39 0.106-0.608 0-0.176-0.025-0.345-0.072-0.506l0.003 0.013c0.38 0.051 0.703 0.112 1.020 0.188l-0.067-0.014c-0.008 0.011-0.017 0.021-0.025 0.033-0.086 0.127-0.138 0.283-0.138 0.452 0 0.057 0.006 0.113 0.017 0.167l-0.001-0.005c0.043 0.214 0.166 0.398 0.348 0.519 0.127 0.086 0.284 0.137 0.453 0.137 0.413 0 0.755-0.308 0.808-0.706l0-0.004c0.008 0.010 0.015 0.022 0.021 0.035l0 0.001c0.047 0.126-0.096 0.622-0.685 1.469-0.482 0.694-1.105 1.391-1.766 1.922l-0.026-0.008zM18.021 16.224c-0.091-0.061-0.198-0.105-0.313-0.125l-0.005-0.001c0.010-0.013 0.021-0.026 0.030-0.040 0.086-0.127 0.137-0.284 0.137-0.452 0-0.257-0.119-0.487-0.305-0.637l-0.002-0.001c0.074-0.115 0.159-0.239 0.258-0.373l0.018-0.024c0.038 0.004 0.076 0.006 0.115 0.006 0.226-0 0.439-0.056 0.626-0.155l-0.007 0.004c0.178-0.091 0.331-0.143 0.48-0.164 0.257-0.035 0.517-0.108 0.773-0.215 1.018-0.428 1.611-1.251 1.349-1.873-0.039-0.089-0.090-0.166-0.153-0.231l0 0c0.289-0.104 0.573-0.164 0.843-0.164 0.906 0 1.57 0.649 1.973 1.929 0.324 1.008 0.289 1.794-0.105 2.335-0.538 0.739-1.648 0.893-2.484 0.893-1.105 0-2.254-0.259-3.045-0.544-0.052-0.064-0.113-0.119-0.18-0.165l-0.003-0.002zM8.586 20.238c0.016-0.006 0.031-0.012 0.047-0.019-0.001 0.016-0.003 0.033-0.003 0.050 0 0.014 0.002 0.028 0.002 0.042-0.015-0.028-0.030-0.052-0.047-0.074l0.001 0.001zM16.87 16.399c0.016 0.004 0.032 0.008 0.049 0.011-0.010 0.013-0.021 0.026-0.030 0.040-0.007 0.010-0.012 0.020-0.018 0.030 0.001-0.012 0.001-0.025 0.001-0.039 0-0.015-0.001-0.030-0.002-0.044l0 0.002z"></path>
</symbol>
<symbol id="icon-millet" viewBox="0 0 26 32">
<path d="M12.736 3.581c-0.508 0-0.952 0.289-1.177 0.711-0.119-0.074-0.264-0.118-0.419-0.118-0.441 0-0.8 0.357-0.802 0.797v0c0 0.233 0.101 0.443 0.262 0.592-0.164 0.189-0.265 0.438-0.265 0.71 0 0.098 0.013 0.194 0.038 0.284l-0.002-0.008c-0.33 0.104-0.565 0.406-0.567 0.764v0c0.002 0.304 0.171 0.568 0.421 0.704l0.004 0.002c-0.099 0.182-0.158 0.398-0.158 0.629 0 0.302 0.101 0.581 0.27 0.804l-0.002-0.003c-0.325 0.246-0.534 0.632-0.534 1.067 0 0.216 0.052 0.421 0.143 0.602l-0.004-0.008c-0.25 0.243-0.406 0.582-0.406 0.958 0 0.4 0.176 0.759 0.455 1.003l0.002 0.001c-0.278 0.195-0.457 0.514-0.458 0.875v0c0 0.418 0.245 0.784 0.599 0.957-0.040 0.121-0.062 0.259-0.062 0.404 0 0.739 0.599 1.337 1.337 1.337 0.101 0 0.199-0.011 0.294-0.032l-0.009 0.002c0.089 0.389 0.391 0.699 0.775 0.798v2.296c-0.225-0.446-0.409-0.779-0.603-1.106l0.048 0.088c-0.663-1.136-1.578-2.433-2.691-3.074-2.285-1.32-3.705-2.55-4.764-6.505-0.033-0.113-0.135-0.194-0.257-0.194-0.146 0-0.265 0.118-0.267 0.264v0c0 2.681 0.229 4.583 0.876 6.064s1.717 2.518 3.309 3.437c1.421 0.82 4.16 2.291 4.402 2.421 0.099 0.811 0.335 1.585 0.685 2.302-0.411-0.257-0.883-0.477-1.384-0.636l-0.044-0.012c-0.478-0.152-1.027-0.239-1.596-0.239-0.507 0-0.998 0.069-1.464 0.199l0.038-0.009c-1.124 0.268-2.417 1.004-3.679 2.284-0.223 0.221 0.052 0.578 0.323 0.419 3.785-2.186 8.064-0.793 8.734-0.552 1.597 1.977 4.196 3.255 7.132 3.255 0.148 0 0.267-0.12 0.267-0.267s-0.12-0.267-0.267-0.267v0c-2.75 0-5.162-1.173-6.659-2.982 0.241-2.407 1.475-3.791 2.921-5.407 1.461-1.633 3.124-3.485 3.996-6.743 0.006-0.020 0.009-0.044 0.009-0.068 0-0.148-0.12-0.267-0.267-0.267-0.050 0-0.096 0.014-0.136 0.037l0.001-0.001c-2.248 1.298-4.442 2.779-5.869 4.777-1.235 1.729-1.885 3.806-1.465 6.46-0.499-0.915-0.793-2.004-0.796-3.161v-2.814c0.383-0.101 0.684-0.41 0.773-0.797 0.086 0.020 0.186 0.031 0.288 0.031 0.739 0 1.337-0.599 1.337-1.337 0-0.145-0.023-0.284-0.066-0.415l0.003 0.009c0.353-0.175 0.598-0.539 0.598-0.957 0-0.361-0.181-0.681-0.459-0.875 0.281-0.245 0.458-0.604 0.458-1.004 0-0.376-0.156-0.716-0.407-0.958l-0-0c0.088-0.173 0.14-0.378 0.14-0.594 0-0.434-0.208-0.82-0.53-1.063l-0.003-0.002c0.168-0.22 0.27-0.499 0.27-0.802 0-0.231-0.059-0.447-0.162-0.636l0.003 0.007c0.252-0.139 0.421-0.402 0.422-0.705v-0c-0.002-0.358-0.237-0.66-0.561-0.762l-0.006-0.002c0.023-0.083 0.036-0.178 0.036-0.277 0-0.272-0.1-0.521-0.266-0.712l0.001 0.001c0.161-0.147 0.261-0.357 0.262-0.591v-0c-0.003-0.441-0.361-0.797-0.802-0.797-0.155 0-0.299 0.044-0.422 0.12l0.003-0.002c-0.229-0.425-0.671-0.709-1.179-0.711h-0zM13.537 4.913c0 0.001 0 0.002 0 0.003 0 0.441-0.357 0.798-0.798 0.798-0.001 0-0.002 0-0.003 0h0c-0.001 0-0.002 0-0.003 0-0.44 0-0.796-0.356-0.796-0.796 0-0.002 0-0.004 0-0.005v0c0-0.437 0.383-0.793 0.799-0.793s0.801 0.349 0.801 0.793zM11.135 4.706c0.136 0 0.248 0.095 0.268 0.222 0 0.086 0.010 0.17 0.026 0.252-0.001 0-0.002 0-0.002 0-0.122 0-0.239 0.020-0.348 0.058l0.008-0.002c-0.124-0.022-0.217-0.129-0.217-0.258 0-0.002 0-0.004 0-0.006v0c0-0.157 0.13-0.265 0.265-0.265zM14.602 4.971c0 0.002 0 0.004 0 0.006 0 0.129-0.093 0.236-0.215 0.258l-0.002 0c-0.102-0.035-0.219-0.055-0.341-0.055h-0.001c0.017-0.075 0.027-0.162 0.027-0.252v-0c0-0.053 0.068-0.219 0.265-0.219 0.002-0 0.005-0 0.007-0 0.143 0 0.259 0.116 0.259 0.259 0 0.001 0 0.002-0 0.003v-0zM11.417 5.712c0.307 0.002 0.363 0.171 0.575 0.307-0.199 0.194-0.323 0.464-0.323 0.761-0 0-0 0-0 0-0.145 0-0.28 0.039-0.396 0.107l0.004-0.002c-0.075-0.115-0.174-0.207-0.291-0.272l-0.004-0.002c-0.070-0.092-0.113-0.208-0.113-0.335 0-0.001 0-0.003 0-0.004v0c0-0.317 0.272-0.562 0.549-0.56zM14.045 5.714c0.002 0 0.003-0 0.005-0 0.306 0 0.554 0.248 0.554 0.554 0 0.001 0 0.003-0 0.004v-0c0 0.001 0 0.002 0 0.003 0 0.127-0.043 0.244-0.115 0.337l0.001-0.001c-0.122 0.065-0.222 0.159-0.292 0.272l-0.002 0.003c-0.113-0.066-0.248-0.105-0.393-0.106h-0c-0-0.298-0.124-0.567-0.322-0.76l-0-0c0.214-0.124 0.24-0.306 0.564-0.306zM12.736 6.249c0.298 0 0.534 0.234 0.534 0.531s-0.236 0.534-0.534 0.534c-0.001 0-0.002 0-0.003 0-0.293 0-0.53-0.237-0.53-0.53 0-0.001 0-0.003 0-0.004v0c0-0.297 0.236-0.531 0.534-0.531zM10.602 7.048c0.002-0 0.004-0 0.006-0 0.145 0 0.262 0.117 0.262 0.262 0 0.001 0 0.002-0 0.003v-0c0 0.151-0.118 0.268-0.268 0.268-0.001 0-0.002 0-0.003 0-0.145 0-0.262-0.117-0.262-0.262 0-0.002 0-0.004 0-0.006v0c0-0.15 0.115-0.265 0.265-0.265zM14.869 7.048c0.151 0 0.266 0.115 0.266 0.265 0 0.002 0 0.004 0 0.006 0 0.145-0.117 0.262-0.262 0.262-0.001 0-0.003 0-0.004-0h0c-0.001 0-0.002 0-0.003 0-0.146 0-0.264-0.118-0.264-0.264 0-0.001 0-0.003 0-0.004v0c0-0.001-0-0.002-0-0.003 0-0.145 0.117-0.262 0.262-0.262 0.002 0 0.004 0 0.005 0h-0zM11.936 7.581c0 0.001 0 0.003 0 0.004 0 0.145-0.117 0.262-0.262 0.262-0.002 0-0.004-0-0.005-0h0c-0.001 0-0.003 0-0.004 0-0.145 0-0.262-0.117-0.262-0.262 0-0.001 0-0.003 0-0.004v0c0-0.151 0.128-0.268 0.266-0.268 0.137 0 0.267 0.114 0.267 0.268zM13.803 7.313c0.15 0 0.268 0.118 0.268 0.268s-0.118 0.266-0.268 0.266c-0.001 0-0.003 0-0.004 0-0.145 0-0.262-0.117-0.262-0.262 0-0.001 0-0.003 0-0.004v0c-0-0.002-0-0.004-0-0.006 0-0.145 0.117-0.262 0.262-0.262 0.001 0 0.003 0 0.004 0h-0zM13.004 8.115c0 0.001 0 0.002 0 0.003 0 0.145-0.117 0.262-0.262 0.262-0.002 0-0.004-0-0.006-0h0c-0.001 0-0.003 0-0.004 0-0.144 0-0.261-0.117-0.261-0.261 0-0.001 0-0.003 0-0.004v0c0-0.146 0.117-0.264 0.265-0.264 0.002-0 0.004-0 0.006-0 0.145 0 0.262 0.117 0.262 0.262 0 0.001 0 0.001 0 0.002v-0zM14.476 8.010c0.048 0.027 0.101 0.050 0.154 0.068 0.147 0.144 0.239 0.345 0.239 0.568 0 0.001 0 0.003 0 0.004v-0c0 0.001 0 0.001 0 0.002 0 0.221-0.090 0.421-0.236 0.566l-0 0c-0.090-0.022-0.192-0.034-0.298-0.034-0.127 0-0.25 0.018-0.366 0.051l0.009-0.002c-0.115-0.287-0.317-0.519-0.572-0.669l-0.006-0.003c0.046-0.067 0.084-0.145 0.107-0.229l0.001-0.006c0.091 0.036 0.191 0.056 0.294 0.056 0.003 0 0.007 0 0.011 0 0.279 0 0.524-0.147 0.661-0.368l0.002-0.003zM10.996 8.010c0.145 0.223 0.393 0.369 0.675 0.369 0.106 0 0.207-0.021 0.299-0.058l-0.005 0.002c0.023 0.085 0.060 0.164 0.108 0.236-0.26 0.151-0.467 0.388-0.578 0.672-0.107-0.031-0.231-0.049-0.358-0.049-0.106 0-0.208 0.012-0.307 0.035l0.009-0.002c-0.148-0.144-0.239-0.345-0.239-0.567 0-0.225 0.094-0.427 0.244-0.572l0-0c0.058-0.019 0.108-0.042 0.155-0.070l-0.004 0.002zM12.736 8.914c0.445 0 0.801 0.357 0.801 0.801 0 0.001 0 0.002 0 0.003 0 0.44-0.356 0.796-0.796 0.796-0.002 0-0.004 0-0.005-0h0c-0.001 0-0.003 0-0.004 0-0.439 0-0.795-0.356-0.795-0.795 0-0.001 0-0.003 0-0.004v0c0-0.002-0-0.003-0-0.005 0-0.44 0.356-0.796 0.796-0.796 0.001 0 0.002 0 0.003 0h-0zM11.135 9.715c0.095 0 0.185 0.016 0.269 0.046 0.015 0.438 0.245 0.826 0.588 1.058-0.077 0.075-0.142 0.161-0.194 0.256-0.035-0.004-0.075-0.006-0.115-0.006-0.254 0-0.486 0.089-0.669 0.238l0.002-0.002c-0.386-0.058-0.679-0.388-0.679-0.786 0-0.002 0-0.003 0-0.005v0c0-0.494 0.423-0.789 0.798-0.8zM14.336 9.715c0.445 0 0.799 0.355 0.799 0.799 0 0.404-0.292 0.734-0.679 0.791-0.18-0.147-0.413-0.236-0.667-0.236-0.041 0-0.081 0.002-0.12 0.007l0.005-0c-0.054-0.098-0.118-0.182-0.193-0.256l-0-0c0.343-0.232 0.575-0.62 0.59-1.058 0.079-0.029 0.171-0.046 0.266-0.046h0zM4.511 11.016c1.078 2.82 2.517 3.949 4.447 5.064 0.946 0.546 1.854 1.781 2.499 2.881 0.409 0.7 0.511 0.947 0.717 1.35-0.732-0.393-2.565-1.385-3.786-2.089-1.534-0.886-2.488-1.817-3.086-3.187-0.435-0.998-0.686-2.298-0.79-4.018zM12.736 11.048c0.298 0 0.534 0.235 0.534 0.533s-0.236 0.534-0.534 0.534c-0.001 0-0.002 0-0.003 0-0.293 0-0.53-0.237-0.53-0.53 0-0.001 0-0.003 0-0.004v0c0-0.298 0.236-0.534 0.534-0.534zM15.195 11.532c0.131 0.141 0.211 0.331 0.211 0.54 0 0.328-0.198 0.609-0.481 0.731l-0.005 0.002c-0.053-0.069-0.111-0.13-0.176-0.183l-0.002-0.002c0.074-0.14 0.117-0.307 0.117-0.484 0-0.133-0.025-0.26-0.069-0.377l0.002 0.007c0.148-0.054 0.284-0.135 0.403-0.236zM10.276 11.532c0.119 0.101 0.256 0.18 0.404 0.235-0.042 0.11-0.067 0.237-0.067 0.37 0 0.177 0.043 0.343 0.12 0.489l-0.003-0.006c-0.067 0.055-0.126 0.115-0.177 0.182l-0.002 0.003c-0.286-0.124-0.482-0.404-0.482-0.73 0-0.002 0-0.004 0-0.006v0c0-0.207 0.078-0.395 0.206-0.538l-0.001 0.001zM11.669 11.603c0.007 0.339 0.174 0.641 0.428 0.832-0.023 0.031-0.046 0.065-0.065 0.102l-0.002 0.004c-0.092 0.080-0.214 0.129-0.346 0.129-0.001 0-0.002 0-0.004 0h0c-0.001 0-0.002 0-0.003 0-0.293 0-0.53-0.237-0.53-0.53 0-0.001 0-0.003 0-0.004v0c0-0.319 0.261-0.52 0.522-0.533zM13.803 11.603c0.292 0.006 0.521 0.24 0.521 0.534 0 0.001 0 0.003 0 0.004 0 0.292-0.237 0.529-0.529 0.529-0.001 0-0.003 0-0.004-0h0c-0 0-0.001 0-0.001 0-0.133 0-0.255-0.050-0.347-0.132l0.001 0c-0.022-0.040-0.045-0.074-0.070-0.107l0.001 0.002c0.255-0.192 0.42-0.492 0.428-0.83l0-0.001zM12.736 12.648c0.146 0 0.265 0.119 0.265 0.265s-0.119 0.265-0.265 0.265v0c-0.001 0-0.003 0-0.004 0-0.144 0-0.261-0.117-0.261-0.261 0-0.001 0-0.002 0-0.003v0c0-0.151 0.115-0.266 0.265-0.266zM14.388 13.019c0.13 0.098 0.214 0.253 0.214 0.427 0 0 0 0.001 0 0.001v-0c0 0.298-0.234 0.534-0.531 0.534-0.037 0-0.075 0-0.111 0.004-0.119-0.266-0.312-0.48-0.554-0.621l-0.006-0.003c0.039-0.057 0.072-0.123 0.095-0.193l0.002-0.006c0.088 0.026 0.189 0.041 0.293 0.041 0.223 0 0.43-0.069 0.601-0.187l-0.004 0.002zM11.085 13.019c0.167 0.115 0.374 0.184 0.596 0.184 0.105 0 0.207-0.015 0.303-0.044l-0.007 0.002c0.023 0.071 0.055 0.138 0.097 0.199-0.247 0.142-0.445 0.363-0.56 0.626-0.031-0.003-0.067-0.004-0.104-0.004-0.002 0-0.005 0-0.007 0h0c-0.001 0-0.001 0-0.002 0-0.293 0-0.53-0.237-0.53-0.53 0-0.001 0-0.003 0-0.004v0c0.011-0.197 0.041-0.328 0.215-0.428zM20.659 13.101c-0.883 2.573-2.215 4.27-3.527 5.736-1.162 1.3-2.335 2.617-2.82 4.428-0.345-2.439 0.247-4.432 1.386-6.026 1.19-1.668 3.024-2.965 4.961-4.137zM15.134 13.483c0.161 0.091 0.269 0.263 0.269 0.464 0 0.225-0.134 0.413-0.328 0.494-0.077-0.088-0.163-0.164-0.257-0.229l-0.005-0.003c0.191-0.186 0.311-0.443 0.321-0.726zM10.337 13.483c0.010 0.283 0.131 0.54 0.323 0.726-0.099 0.068-0.185 0.144-0.261 0.23l-0.001 0.002c-0.193-0.081-0.327-0.269-0.327-0.488 0-0.002 0-0.004 0-0.006v0c0-0.201 0.106-0.373 0.266-0.464zM12.736 13.715c0.002 0 0.003-0 0.005-0 0.44 0 0.796 0.356 0.796 0.796 0 0.001 0 0.002 0 0.003v-0c0 0.001 0 0.002 0 0.003 0 0.44-0.356 0.796-0.796 0.796-0.002 0-0.004 0-0.005-0h0c-0.002 0-0.003 0-0.005 0-0.439 0-0.794-0.356-0.794-0.794 0-0.002 0-0.004 0-0.005v0c0-0.445 0.355-0.799 0.799-0.799zM11.403 14.514c0 0.459 0.234 0.864 0.589 1.105-0.121 0.118-0.215 0.265-0.269 0.429-0.095 0.043-0.206 0.068-0.323 0.068-0.441 0-0.798-0.357-0.798-0.798 0-0.002 0-0.003 0-0.005v0c0-0.441 0.425-0.788 0.801-0.799zM14.071 14.514c0.444 0 0.798 0.354 0.798 0.799 0 0.002 0 0.004 0 0.007 0 0.44-0.356 0.796-0.796 0.796-0.118 0-0.229-0.025-0.33-0.071l0.005 0.002c-0.057-0.169-0.149-0.313-0.268-0.429l-0-0c0.328-0.188 0.591-0.595 0.591-1.104zM12.736 15.847c0.298 0 0.534 0.236 0.534 0.534 0 0.001 0 0.002 0 0.003 0 0.293-0.237 0.53-0.53 0.53-0.001 0-0.003 0-0.004-0h0c-0.001 0-0.003 0-0.004 0-0.292 0-0.529-0.237-0.529-0.529 0-0.002 0-0.004 0-0.005v0c0-0.297 0.236-0.533 0.534-0.533zM11.626 23.27c0.717 0.22 1.147 0.492 1.568 0.76-1.243-0.336-4.029-0.662-6.305 0.14 0.731-0.479 1.245-0.738 2.001-0.959 0.379-0.099 0.814-0.156 1.262-0.156 0.526 0 1.033 0.078 1.511 0.224l-0.037-0.010z"></path>
</symbol>
<symbol id="icon-corn" viewBox="0 0 26 32">
<path d="M23.106 9.352c0.246-0.082 0.411-0.246 0.575-0.411 0.205-0.205 0.493-0.534 0.534-0.986 0-0.369-0.164-0.739-0.534-1.108s-0.739-0.534-1.109-0.534h-0.041c0.041-0.369-0.164-0.739-0.534-1.108-0.945-0.945-1.643-0.452-2.053 0-0.163 0.164-0.3 0.353-0.405 0.562l-0.006 0.013c-0.041-0.041-0.082-0.123-0.164-0.164-0.821-0.821-1.56-0.821-2.34 0-0.246 0.246-0.493 0.534-0.534 0.903-0.123-0.041-0.246-0.123-0.37-0.123-0.452-0.082-0.903 0.123-1.355 0.534-0.452 0.452-0.616 0.903-0.534 1.355v0.041c-0.41-0.082-0.903 0.041-1.396 0.534s-0.616 0.985-0.534 1.396h-0.041c-0.452-0.082-0.904 0.123-1.355 0.534-0.411 0.411-0.616 0.862-0.534 1.314-0.287-0.082-0.616 0-0.904 0.205-0.448-0.918-1.011-1.705-1.684-2.382l0 0.001c-0.058-0.057-0.138-0.092-0.226-0.092s-0.168 0.035-0.226 0.092l0-0c-0.057 0.058-0.092 0.138-0.092 0.226s0.035 0.168 0.092 0.226l-0-0c0.493 0.493 0.739 0.986 0.739 1.478 0 1.232-1.437 2.587-3.121 4.147-0.452 0.452-0.945 0.903-1.437 1.355-2.094 2.094-2.71 4.147-1.889 6.323 0.041 0.082 0.37 1.027 0.862 1.601 1.355 1.56 2.751 2.341 4.27 2.423h0.164c1.848 0 3.778-1.068 6.077-3.367 0.616-0.616 1.191-1.232 1.766-1.807 2.135-2.258 4.024-4.188 5.502-4.229 0.452 0 0.944 0.205 1.355 0.616 0.058 0.057 0.138 0.092 0.226 0.092s0.168-0.035 0.226-0.092l-0 0c0.041-0.041 0.082-0.123 0.082-0.205s-0.041-0.164-0.082-0.205c-0.739-0.739-1.889-1.478-3.408-1.889v-0.041h0.246c0.37 0 0.78-0.206 1.15-0.575 0.452-0.452 0.616-0.903 0.534-1.355v-0.082c0.082 0 0.164 0.041 0.247 0.041 0.369 0 0.739-0.164 1.149-0.575 0.657-0.657 0.657-1.232 0.411-1.766 0.288-0.041 0.575-0.205 0.903-0.534 0.78-0.78 0.78-1.56-0.041-2.382-0.041 0.082-0.082 0.041-0.164 0zM20.478 10.83h-0.164v-0.123c0-0.082 0-0.206-0.041-0.287h0.123v0.123c0 0.123 0.041 0.206 0.082 0.287zM10.336 16.086h0.246v0.288h-0.246v-0.287zM18.425 8.531h0.041v0.164c-0.082-0.041-0.205-0.041-0.287-0.041h-0.123c0-0.041 0.041-0.123 0.041-0.164 0.123 0 0.205 0.041 0.328 0.041zM19.246 11.528c-0.369 0.37-0.534 0.411-0.698 0.37-0.247 0-0.534-0.205-0.903-0.616-0.862-0.862-0.739-1.15-0.246-1.602 0.287-0.287 0.534-0.452 0.78-0.452 0.288 0 0.575 0.164 0.944 0.534s0.534 0.698 0.534 0.945c0.041 0.287-0.082 0.534-0.411 0.821zM17.316 13.458c-0.493 0.493-0.78 0.616-1.601-0.247-0.411-0.411-0.616-0.698-0.616-0.944 0-0.123 0-0.328 0.369-0.698 0.287-0.287 0.534-0.452 0.78-0.452 0.287 0 0.575 0.164 0.944 0.534 0.78 0.862 0.657 1.273 0.123 1.807zM15.797 14.649c0 0.247-0.164 0.493-0.452 0.78-0.369 0.37-0.534 0.411-0.698 0.37-0.246 0-0.534-0.205-0.903-0.616-0.862-0.862-0.739-1.15-0.247-1.601 0.287-0.287 0.534-0.452 0.78-0.452 0.287 0 0.575 0.164 0.944 0.575 0.411 0.328 0.575 0.657 0.575 0.944zM16.454 10.584h-0.329c0.041-0.123 0.041-0.246 0-0.328h0.288c0 0.082 0 0.205 0.041 0.328zM14.483 12.391c0 0.041 0 0.082 0.041 0.164h-0.328c0.041-0.123 0.041-0.246 0-0.328h0.287c-0.041 0-0.041 0.082 0 0.164zM12.553 14.485c-0.082 0-0.123-0.041-0.205-0.041h-0.123c0.041-0.123 0.041-0.246 0-0.328h0.287c0 0.123 0 0.246 0.041 0.369zM10.295 16.989c0.246-0.123 0.452-0.082 1.108 0.575l0.123 0.123c-0.629 0.342-1.152 0.668-1.655 1.021l0.054-0.036c0.138-0.456 0.267-1.024 0.359-1.604l0.010-0.079zM12.101 17.4c-0.082-0.082-0.205-0.164-0.287-0.288-0.411-0.411-0.616-0.698-0.616-0.944 0-0.123 0-0.328 0.37-0.698 0.287-0.287 0.534-0.452 0.78-0.452 0.287 0 0.575 0.164 0.945 0.534 0.575 0.575 0.575 0.903 0.534 1.149-0.534 0.205-1.108 0.411-1.724 0.698zM14.483 16.373c0.041 0 0.082 0 0.164 0.041h0.164v0.123c-0.123 0-0.205 0.041-0.328 0.082v-0.246zM16.413 14.444c0.082 0 0.164 0.041 0.247 0.041h0.082v0.287h-0.328v-0.328zM18.343 12.514c0.041 0 0.123 0.041 0.164 0.041h0.164v0.246h-0.329c0.041-0.082 0.041-0.205 0-0.287zM20.355 9.845c-0.205 0-0.452-0.164-0.78-0.493s-0.493-0.575-0.493-0.739c0-0.123 0.041-0.287 0.369-0.616 0.247-0.246 0.493-0.411 0.698-0.411s0.452 0.123 0.78 0.452c0.288 0.287 0.452 0.575 0.452 0.78s-0.123 0.411-0.411 0.698c-0.37 0.287-0.534 0.328-0.616 0.328zM22.612 6.971c0.205 0 0.411 0.123 0.616 0.369 0.247 0.246 0.37 0.452 0.37 0.657 0 0.164-0.123 0.329-0.328 0.575-0.247 0.246-0.411 0.287-0.493 0.287-0.164 0-0.37-0.164-0.616-0.411s-0.411-0.452-0.411-0.616c0-0.082 0.041-0.205 0.288-0.493 0.246-0.246 0.411-0.369 0.575-0.369zM20.396 5.657c0.41-0.411 0.657-0.493 1.19 0 0.534 0.534 0.452 0.78 0.041 1.191-0.369 0.37-0.534 0.452-1.108-0.123s-0.493-0.698-0.123-1.068zM17.48 6.027c0.247-0.247 0.493-0.411 0.698-0.411s0.452 0.123 0.78 0.452c0.657 0.657 0.534 1.027 0.041 1.478-0.451 0.452-0.657 0.534-1.355-0.164-0.328-0.329-0.493-0.575-0.493-0.739-0.041-0.123 0-0.287 0.328-0.616zM14.852 8.203c-0.041-0.164 0-0.411 0.37-0.821 0.328-0.329 0.575-0.37 0.739-0.37h0.082c0.247 0.041 0.534 0.246 0.904 0.616 0.657 0.657 0.698 0.986 0.082 1.601-0.411 0.411-0.657 0.452-0.78 0.452-0.205 0-0.452-0.164-0.821-0.534-0.328-0.411-0.534-0.698-0.575-0.944zM13.292 9.311c0.247-0.246 0.493-0.369 0.739-0.369 0.287 0 0.616 0.205 1.027 0.616 0.657 0.657 0.698 0.986 0.082 1.602-0.411 0.41-0.657 0.452-0.78 0.452-0.205 0-0.452-0.164-0.821-0.534-0.78-0.78-0.821-1.191-0.247-1.766zM11.321 11.282c0.329-0.328 0.575-0.37 0.739-0.37h0.082c0.247 0.041 0.534 0.247 0.903 0.616 0.657 0.657 0.698 0.986 0.082 1.601-0.41 0.411-0.616 0.452-0.78 0.452-0.205 0-0.452-0.164-0.821-0.534s-0.575-0.657-0.616-0.904c0.041-0.246 0.041-0.493 0.41-0.862zM10.253 12.76c0.247 0.082 0.575 0.369 0.862 0.698 0.657 0.657 0.698 0.985 0.082 1.601-0.452 0.452-0.698 0.493-0.862 0.411-0.082-0.903-0.287-1.766-0.616-2.546 0.247-0.205 0.411-0.205 0.534-0.164zM3.971 17.852c0.452-0.452 0.945-0.903 1.396-1.355 1.683-1.56 3.121-2.957 3.285-4.352 0.164 0.246 0.287 0.534 0.411 0.78 0 0 0 0.041 0.041 0.041 0.78 1.807 0.986 4.024-0.082 6.365-0.616 0.493-1.191 1.027-1.807 1.642-1.848 1.848-3.326 2.299-5.050 2.341-0.616-1.848-0.041-3.654 1.807-5.461zM14.277 22.122c-0.575 0.575-1.15 1.191-1.766 1.807-2.217 2.217-4.106 3.244-5.748 3.203-1.314-0.041-2.587-0.78-3.818-2.176-0.247-0.288-0.452-0.698-0.575-1.027 1.725-0.082 3.326-0.616 5.256-2.505 5.133-5.133 9.608-4.927 12.277-3.654-1.683 0.246-3.531 2.176-5.625 4.352zM17.932 16.497c-0.475-0.080-1.021-0.125-1.579-0.125-0.326 0-0.648 0.016-0.966 0.046l0.041-0.003c0.041-0.164 0.123-0.328 0.452-0.657 0.616-0.616 0.903-0.616 1.601 0.082 0.205 0.247 0.37 0.493 0.452 0.657zM19.985 14.813c0.041 0.164 0 0.411-0.37 0.821s-0.657 0.411-0.821 0.37c-0.246-0.041-0.534-0.247-0.903-0.616s-0.493-0.616-0.534-0.821c0-0.123 0.041-0.369 0.452-0.78s0.616-0.452 0.739-0.452h0.041c0.206 0 0.452 0.164 0.822 0.534 0.328 0.411 0.534 0.698 0.575 0.945zM21.545 13.705c-0.575 0.575-0.986 0.493-1.724-0.246-0.698-0.698-0.698-0.945-0.082-1.56 0.288-0.287 0.534-0.452 0.739-0.452 0.246 0 0.493 0.164 0.821 0.534 0.78 0.698 0.821 1.15 0.246 1.725zM22.9 11.446c-0.452 0.452-0.657 0.534-1.355-0.164-0.328-0.328-0.493-0.575-0.493-0.739 0-0.123 0.041-0.287 0.37-0.616 0.246-0.247 0.493-0.411 0.698-0.411s0.452 0.123 0.78 0.452c0.616 0.616 0.452 0.986 0 1.478z"></path>
</symbol>
<symbol id="icon-barley" viewBox="0 0 26 32">
<path d="M10.623 11.805l-0.253-4.197c-0-0.005-0-0.010-0-0.016 0-0.14 0.109-0.254 0.246-0.262l0.001-0c0.142-0.005 0.27 0.102 0.278 0.247l0.253 4.197c0 0.005 0 0.010 0 0.016 0 0.14-0.109 0.254-0.246 0.262l-0.001 0-0.016 0.001c-0.14-0-0.254-0.109-0.262-0.246l-0-0.001zM14.812 12.052l0.017 0.001c0.137 0 0.253-0.107 0.262-0.246l0.272-4.196c0-0.005 0.001-0.011 0.001-0.017 0-0.139-0.108-0.253-0.245-0.263l-0.001-0c-0.004-0-0.009-0-0.014-0-0.14 0-0.254 0.108-0.265 0.245l-0 0.001-0.272 4.196c-0 0.005-0.001 0.011-0.001 0.017 0 0.139 0.108 0.253 0.245 0.262l0.001 0zM19.775 6.688l-1.285 5.221c0.542 0.845 0.325 2.059 0.115 2.785 0.286-0.1 0.58-0.147 0.875-0.13 0.136 0.008 0.243 0.119 0.247 0.255 0.025 0.957-0.415 1.731-0.815 2.244 0.127-0.014 0.257-0.035 0.393-0.035h0.009c0.136 0 0.25 0.092 0.262 0.228 0.077 0.913-0.476 1.715-0.975 2.24 0.101-0.005 0.205-0.005 0.312-0.003 0.143 0.005 0.256 0.122 0.256 0.265 0 0.005-0 0.009-0 0.014l0-0.001c-0.052 1.052-0.607 1.747-1.111 2.167 0.077 0.006 0.153 0.013 0.233 0.023 0.13 0.017 0.229 0.128 0.229 0.261 0 0.027-0.004 0.053-0.012 0.078l0-0.002c-0.773 2.553-2.674 2.885-3.238 2.926-0.021 0.002-0.043 0.029-0.064 0.036l-0.615 2.521h-0.541l0.652-2.67c-0.298-0.194-0.842-0.636-1.212-1.393-0.117 0.052-0.37 0.11-0.37 0.127v3.936h-0.512v-3.813c0-0.032-0.191-0.077-0.306-0.134-0.367 0.68-0.868 1.096-1.148 1.278l0.65 2.669h-0.541l-0.615-2.521c-0.021-0.007-0.043-0.023-0.065-0.025-0.562-0.041-2.462-0.378-3.236-2.931-0.007-0.023-0.011-0.050-0.011-0.077 0-0.054 0.016-0.104 0.043-0.146l-0.001 0.001c0.042-0.065 0.11-0.109 0.187-0.119 0.080-0.011 0.156-0.017 0.233-0.024-0.504-0.42-1.059-1.115-1.111-2.167-0-0.004-0-0.009-0-0.014 0-0.143 0.114-0.259 0.256-0.262h0c0.027-0.001 0.060-0.001 0.092-0.001 0.080 0 0.159 0.002 0.238 0.007l-0.011-0c-0.501-0.52-1.060-1.328-0.983-2.244 0.012-0.136 0.126-0.228 0.261-0.228h0.009c0.136 0 0.266 0.021 0.393 0.035-0.4-0.512-0.839-1.293-0.815-2.249 0.004-0.136 0.111-0.244 0.247-0.253 0.039-0.002 0.086-0.004 0.132-0.004 0.266 0 0.52 0.047 0.756 0.133l-0.015-0.005c-0.209-0.727-0.423-1.936 0.117-2.778l-1.286-5.22c-0.003-0.016-0.005-0.035-0.005-0.053 0-0.145 0.118-0.263 0.263-0.263 0.119 0 0.22 0.080 0.252 0.189l0 0.002 1.252 5.083c1.021 0.559 1.37 1.716 1.489 2.424 0.158-0.138 0.338-0.256 0.534-0.346l0.014-0.006c0.125-0.056 0.271-0.015 0.337 0.104 0.209 0.375 0.319 0.762 0.367 1.133 0.016-0.003 0.034-0.005 0.053-0.005 0.023 0 0.045 0.003 0.066 0.008l-0.002-0c0.122 0.034 0.235 0.076 0.346 0.118-0.258-0.592-0.48-1.438-0.233-2.339 0.032-0.113 0.133-0.194 0.254-0.194 0.017 0 0.033 0.002 0.049 0.005l-0.002-0c0.226 0.042 0.43 0.115 0.616 0.21-0.052-0.713 0.016-1.909 0.874-2.696 0.001-0 0.008-0.001 0.008-0.001v-5.1c0-0.145 0.111-0.263 0.256-0.263s0.256 0.117 0.256 0.263v5.248c0.768 0.689 0.807 1.913 0.777 2.668 0.234-0.156 0.509-0.271 0.806-0.328l0.014-0.002c0.014-0.003 0.031-0.004 0.048-0.004 0.12 0 0.222 0.081 0.253 0.192l0 0.002c0.247 0.901 0.025 1.747-0.233 2.339 0.111-0.043 0.225-0.083 0.346-0.118 0.019-0.005 0.040-0.008 0.062-0.008 0.028 0 0.055 0.005 0.080 0.013l-0.002-0.001c0.047-0.376 0.156-0.768 0.368-1.148 0.066-0.119 0.212-0.168 0.337-0.112 0.21 0.096 0.39 0.213 0.55 0.353l-0.003-0.002c0.12-0.704 0.468-1.851 1.488-2.409l1.251-5.082c0.035-0.141 0.177-0.228 0.318-0.192 0.141 0.034 0.227 0.177 0.192 0.317zM16.991 14.6c0.188 0.293 0.316 0.608 0.402 0.905 0.163-0.171 0.34-0.324 0.531-0.46l0.011-0.008c0.125-0.323 0.686-1.895 0.138-2.81-0.941 0.677-1.066 2.084-1.082 2.372zM12.309 13.177c0.251 0.239 0.451 0.512 0.606 0.78 0.112-0.192 0.249-0.393 0.416-0.583 0.045-0.347 0.212-2.003-0.538-2.76-0.749 0.881-0.536 2.279-0.483 2.562zM11.911 15.56c0.46 0.35 0.784 0.773 1.006 1.171 0.214-0.381 0.532-0.81 0.996-1.167 0.111-0.155 0.847-1.238 0.653-2.436-0.684 0.235-1.111 0.867-1.365 1.418 0.122 0.304 0.177 0.528 0.184 0.556 0.004 0.016 0.006 0.035 0.006 0.055 0 0.145-0.118 0.263-0.263 0.263-0.122 0-0.224-0.083-0.254-0.195l-0-0.002c-0.004-0.018-0.411-1.678-1.612-2.094-0.194 1.196 0.533 2.268 0.65 2.431zM11.727 17.979c0.576 0.37 0.946 0.85 1.184 1.295 0.233-0.435 0.605-0.921 1.191-1.296 0.14-0.167 1.084-1.349 0.914-2.43-1.014 0.376-1.541 1.156-1.816 1.799 0.138 0.374 0.184 0.649 0.189 0.681 0.002 0.012 0.003 0.026 0.003 0.040 0 0.145-0.118 0.263-0.263 0.263-0.131 0-0.24-0.096-0.26-0.222l-0-0.002c-0.005-0.031-0.050-0.297-0.19-0.654-0.004-0.008-0.006-0.016-0.009-0.024-0.246-0.613-0.772-1.479-1.858-1.882-0.171 1.082 0.776 2.267 0.914 2.432zM7.915 15.032c0.206 0.146 0.386 0.302 0.55 0.474l0.001 0.001c0.086-0.293 0.213-0.602 0.397-0.889-0.016-0.284-0.142-1.705-1.082-2.383-0.545 0.907 0.001 2.452 0.134 2.796zM7.895 17.318c0.006 0.005 0.009 0.012 0.014 0.017 0.518 0.23 0.918 0.563 1.211 0.878 0.119-0.442 0.331-0.934 0.697-1.389 0.069-0.173 0.527-1.402 0.052-2.521-1.070 0.691-1.064 2.42-1.064 2.438 0.002 0.145-0.114 0.287-0.26 0.287h-0.003c-0.144 0-0.261-0.136-0.263-0.281-0-0.029-0.001-0.267 0.048-0.606-0.378-0.475-0.945-0.988-1.668-1.052 0.106 1.3 1.223 2.219 1.235 2.228zM8.276 19.695c0.577 0.202 1.066 0.531 1.45 0.957l0.003 0.003c0.126-0.487 0.34-0.911 0.626-1.277l-0.006 0.008c-0.15-0.337-0.238-0.73-0.238-1.143 0-0.2 0.020-0.395 0.059-0.583l-0.003 0.019c0.025-0.122 0.131-0.212 0.258-0.212 0.020 0 0.039 0.002 0.058 0.006l-0.002-0c0.113 0.025 0.216 0.058 0.321 0.089-0.114-0.193-0.223-0.418-0.314-0.653l-0.011-0.032c-0.646 0.626-0.873 1.414-0.949 1.966l-0.002 0.010c-0.052 0.39-0.031 0.66-0.030 0.667s0.001 0.015 0.001 0.024c0 0.145-0.118 0.263-0.263 0.263v0c-0.134 0-0.249-0.102-0.262-0.239-0.003-0.031-0.024-0.306 0.021-0.701-0.42-0.559-1.119-1.192-2.193-1.315 0.093 1.105 1.319 2.031 1.474 2.144zM10.432 24.678c-0.098-0.308-0.192-0.715-0.197-1.162-0.009-0.009-0.019-0.015-0.027-0.026-0.516-0.739-1.274-1.087-2.255-1.037 0.644 1.735 1.89 2.134 2.479 2.225zM10.598 22.083c-0.166-0.349-0.298-0.757-0.373-1.234-0.136 0.58-0.075 1.032-0.074 1.039 0.001 0.009 0.002 0.020 0.002 0.030 0 0.145-0.118 0.263-0.263 0.263-0.129 0-0.236-0.093-0.259-0.215l-0-0.002c-0.004-0.024-0.035-0.259-0.013-0.606-0.307-0.452-0.796-0.943-1.546-1.186-0.246-0.082-0.529-0.135-0.824-0.149l-0.007-0c0.228 1.383 1.567 1.939 1.582 1.945 0.018 0.007 0.030 0.020 0.046 0.030 0.64 0.139 1.109 0.451 1.445 0.795 0.064-0.269 0.162-0.506 0.292-0.723l-0.006 0.012zM10.712 20.025c-0.029-0.040-0.058-0.079-0.087-0.122-0.021 0.033-0.044 0.066-0.064 0.099 0.051 0.007 0.101 0.015 0.15 0.023zM11.846 23.564c-0.366-0.257-0.675-0.566-0.924-0.921l-0.008-0.012c-0.279 0.716-0.113 1.492 0.041 1.955 0.369-0.269 0.669-0.611 0.883-1.007l0.008-0.016zM12.242 21.459c-0.328-0.466-0.843-0.769-1.531-0.903 0.064 0.564 0.212 1.022 0.401 1.397 0.003 0.004 0.004 0.009 0.007 0.014 0.33 0.646 0.784 1.037 1.159 1.267 0.108 0.068 0.235 0.135 0.366 0.192l0.019 0.007c0.045-0.482 0.038-1.321-0.421-1.974zM12.847 21.447c0.255-0.438 0.666-0.879 1.323-1.17 0.317-0.266 0.576-0.591 0.762-0.958l0.008-0.017c0.004-0.011 0.009-0.019 0.013-0.028l-0.001 0.001c0.159-0.336 0.268-0.745 0.23-1.219-1.192 0.357-1.74 1.188-1.992 1.872 0.109 0.339 0.135 0.575 0.136 0.583s0.001 0.017 0.001 0.025c0 0.145-0.118 0.263-0.263 0.263-0.136 0-0.248-0.104-0.261-0.236l-0-0.001c-0.008-0.081-0.217-1.923-2.157-2.505-0.039 0.481 0.074 0.894 0.237 1.233 0.005 0.009 0.011 0.020 0.015 0.032l0.001 0.002c0.309 0.619 0.786 0.976 0.819 1 0.013 0.009 0.020 0.023 0.031 0.034 0.378 0.197 0.688 0.464 0.925 0.801 0.066 0.093 0.122 0.19 0.173 0.288zM15.070 20.546c-0.228 0.044-0.436 0.107-0.628 0.186l-0.023 0.017c-0.033 0.024-0.069 0.036-0.106 0.043-0.559 0.266-0.958 0.692-1.185 1.282-0.006 0.017-0.018 0.029-0.027 0.043 0.103 0.416 0.118 0.819 0.103 1.141 0.616-0.252 1.663-0.936 1.867-2.712zM14.905 22.54c-0.256 0.367-0.572 0.672-0.937 0.909l-0.013 0.008c0.222 0.458 0.541 0.837 0.933 1.123l0.008 0.006c0.159-0.475 0.337-1.303 0.008-2.045zM15.279 19.983c-0.020-0.034-0.043-0.067-0.065-0.1-0.028 0.043-0.056 0.082-0.084 0.122 0.049-0.008 0.098-0.016 0.149-0.022zM17.901 22.453c-0.984-0.050-1.739 0.299-2.255 1.037-0.009 0.013-0.021 0.020-0.032 0.030-0.007 0.447-0.101 0.854-0.196 1.157 0.59-0.090 1.838-0.488 2.483-2.225zM17.851 20.153c-0.027 0.015-0.058 0.025-0.092 0.028l-0.001 0c-0.737 0.245-1.219 0.732-1.522 1.18 0.023 0.347-0.009 0.581-0.013 0.605-0.023 0.124-0.13 0.217-0.259 0.217-0.145 0-0.263-0.118-0.263-0.263 0-0.011 0.001-0.021 0.002-0.032l-0 0.001c0.001-0.008 0.071-0.548-0.121-1.205-0.067 0.519-0.2 0.953-0.371 1.321 0.146 0.227 0.26 0.491 0.327 0.774l0.003 0.017c0.336-0.344 0.805-0.656 1.445-0.795 0.015-0.011 0.028-0.023 0.046-0.031 0.058-0.023 1.358-0.572 1.582-1.945-0.277 0.014-0.538 0.060-0.786 0.135l0.023-0.006zM16.858 18.862c0.045 0.398 0.024 0.676 0.021 0.706-0.015 0.132-0.126 0.233-0.261 0.233-0.145 0-0.263-0.118-0.263-0.263 0-0.006 0-0.013 0.001-0.019l-0 0.001c0.002-0.017 0.122-1.591-0.999-2.662-0.094 0.255-0.21 0.491-0.328 0.696 0.101-0.031 0.207-0.058 0.316-0.082 0.017-0.004 0.037-0.006 0.057-0.006 0.127 0 0.233 0.091 0.258 0.211l0 0.002c0.036 0.17 0.056 0.365 0.056 0.565 0 0.405-0.084 0.791-0.236 1.14l0.007-0.018c0.288 0.364 0.508 0.796 0.631 1.268l0.005 0.024c0.387-0.429 0.875-0.758 1.427-0.953l0.024-0.007c0.129-0.094 1.382-1.032 1.477-2.148-1.075 0.123-1.774 0.754-2.193 1.313zM17.53 16.142c0.046 0.325 0.046 0.556 0.045 0.584-0.002 0.145-0.126 0.265-0.265 0.26-0.144-0.001-0.26-0.119-0.26-0.263 0-0.001 0-0.002 0-0.002v0c0-0.018 0.002-1.728-1.064-2.418-0.473 1.114-0.021 2.338 0.051 2.518 0.367 0.456 0.579 0.949 0.698 1.392 0.293-0.315 0.693-0.649 1.21-0.878 0.006-0.005 0.008-0.012 0.014-0.017 0.012-0.010 1.129-0.925 1.235-2.225-0.72 0.064-1.286 0.576-1.663 1.050zM16.060 13.206c0.012 0.002 0.026 0.003 0.040 0.003 0.131 0 0.239-0.095 0.26-0.22l0-0.002 0.656-4.176c0.002-0.012 0.003-0.026 0.003-0.041 0-0.131-0.095-0.239-0.221-0.26l-0.002-0c-0.012-0.002-0.026-0.003-0.040-0.003-0.131 0-0.239 0.095-0.26 0.22l-0 0.002-0.656 4.177c-0.022 0.143 0.076 0.278 0.219 0.301zM21.078 9.499c-0.025-0.009-0.054-0.014-0.084-0.014-0.115 0-0.213 0.074-0.248 0.177l-0.001 0.002-1.36 4.003c-0.008 0.024-0.012 0.051-0.012 0.079 0 0.145 0.118 0.263 0.263 0.263 0.113 0 0.21-0.072 0.247-0.172l0.001-0.002 1.36-4.003c0.009-0.025 0.014-0.054 0.014-0.084 0-0.115-0.074-0.213-0.177-0.249l-0.002-0.001zM9.791 13.203c0 0 0 0 0 0 0.145 0 0.263-0.118 0.263-0.263 0-0.016-0.001-0.032-0.004-0.047l0 0.002-0.734-4.163c-0.022-0.124-0.129-0.217-0.258-0.217-0.017 0-0.033 0.002-0.048 0.004l0.002-0c-0.124 0.023-0.217 0.13-0.217 0.259 0 0.016 0.001 0.032 0.004 0.047l-0-0.002 0.734 4.163c0.022 0.127 0.133 0.217 0.259 0.217zM6.322 13.994c0.137-0.048 0.209-0.197 0.162-0.334l-1.393-3.992c-0.040-0.097-0.134-0.164-0.244-0.164-0.145 0-0.263 0.118-0.263 0.263 0 0.026 0.004 0.051 0.011 0.075l-0-0.002 1.393 3.992c0.037 0.104 0.134 0.176 0.248 0.176 0.031 0 0.061-0.005 0.088-0.015l-0.002 0.001z"></path>
</symbol>
</defs></svg>