<svg aria-hidden="true" style="position:absolute;width:0;height:0;overflow:hidden" xmlns="http://www.w3.org/2000/svg"><defs>
<symbol id="icon-phone" fill='#fff' viewBox="0 0 32 32"><path d="M11.748 5.773S11.418 5 10.914 5c-.496 0-.754.229-.926.387S6.938 7.91 6.938 7.91s-.837.731-.773 2.106c.054 1.375.323 3.332 1.719 6.058 1.386 2.72 4.855 6.876 7.047 8.337 0 0 2.031 1.558 3.921 2.191.549.173 1.647.398 1.903.398.26 0 .719 0 1.246-.385.536-.389 3.543-2.807 3.543-2.807s.736-.665-.119-1.438c-.859-.773-3.467-2.492-4.025-2.944-.559-.459-1.355-.257-1.699.054-.343.313-.956.828-1.031.893-.112.086-.419.365-.763.226-.438-.173-2.234-1.148-3.899-3.426-1.655-2.276-1.837-3.02-2.084-3.824a.559.559 0 0 1 .223-.656l.002-.001c.248-.172 1.161-.933 1.161-.933s.591-.583.344-1.27-1.906-4.716-1.906-4.716z"/></symbol>
<symbol id="icon-triangle"  fill='#000' viewBox="0 0 32 32"><path d="M16 2.5a4.2 4.2 0 0 0-3.56 1.974l-.01.018 1.28.784-1.284-.776L1.064 23.266a4.087 4.087 0 0 0-.565 2.086 4.13 4.13 0 0 0 2.048 3.568l.02.011c.628.366 1.34.562 2.068.57h22.732a4.202 4.202 0 0 0 3.571-2.07l.011-.02a4.083 4.083 0 0 0 .552-2.062c0-.767-.209-1.486-.574-2.101l.011.019L19.572 4.493a4.171 4.171 0 0 0-3.555-1.992h-.016.001z"/></symbol>
<symbol id="icon-hand"  fill='#fff' viewBox="0 0 32 32"><path d="M1.254 21.083c.469-.013.804-.375.817-.857C2.218 14.4 5.218 10.088 9.772 8.4l3.121 8.571c.027.067.013.12-.054.147-.054.027-.094 0-.134-.04l-1.58-1.714c-1.031-1.112-2.344-1.192-3.362-.335-1.152.978-1.165 2.438-.04 3.817l4.487 5.424c3.388 4.098 7.366 5.37 11.812 3.75 5.317-1.929 7.58-6.804 5.437-12.696l-1.004-2.746c-1.044-2.906-3.04-4.098-5.384-3.281-.629-.817-1.594-1.098-2.638-.723-.362.134-.71.335-1.045.589-.683-.884-1.741-1.205-2.839-.817a3.697 3.697 0 0 0-.844.455l-1.527-4.178c-.576-1.594-2.022-2.263-3.509-1.728-1.5.549-2.17 1.982-1.594 3.576l.107.295C3.999 8.708.396 13.704.396 20.199c0 .482.402.897.857.884zm22.192 5.183c-3.509 1.286-6.804.63-9.897-3.107l-4.487-5.397c-.482-.562-.482-1.112-.054-1.487.402-.362.951-.241 1.393.214l3.094 3.201c.522.536.978.589 1.42.429.522-.188.75-.75.536-1.326L10.71 5.748c-.201-.536.04-1.045.549-1.232.522-.188 1.005.067 1.205.603l3.388 9.308c.161.442.656.643 1.098.482a.825.825 0 0 0 .496-1.058l-1.219-3.362a2.22 2.22 0 0 1 .696-.442c.63-.228 1.152.054 1.393.71l1.071 2.933c.161.455.656.63 1.085.469.415-.147.683-.589.509-1.058l-.871-2.37c.188-.188.442-.362.696-.455.63-.228 1.152.054 1.393.71l.71 1.955c.174.469.67.643 1.098.482a.826.826 0 0 0 .509-1.058l-.536-1.446c1.125-.402 2.183.509 2.906 2.518l.844 2.29c1.835 5.063.161 8.92-4.286 10.54z"/></symbol>
<symbol id="icon-burger-menu" fill="#91bd17" viewBox="0 0 32 32"><path d="M28.8 25.6H3.2c-1.766 0-3.2 1.434-3.2 3.2S1.434 32 3.2 32h25.6c1.766 0 3.2-1.434 3.2-3.2s-1.434-3.2-3.2-3.2zm0-12.8H3.2C1.434 12.8 0 14.234 0 16s1.434 3.2 3.2 3.2h25.6c1.766 0 3.2-1.434 3.2-3.2s-1.434-3.2-3.2-3.2zM3.2 6.4h25.6c1.766 0 3.2-1.434 3.2-3.2S30.566 0 28.8 0H3.2C1.434 0 0 1.434 0 3.2s1.434 3.2 3.2 3.2z"/></symbol>
<symbol id="icon-line" viewBox="0 0 32 32">
<path d="M2.667 16c0-0.736 0.597-1.333 1.333-1.333v0h24c0.736 0 1.333 0.597 1.333 1.333s-0.597 1.333-1.333 1.333v0h-24c-0.736 0-1.333-0.597-1.333-1.333v0z"></path>
</symbol>
<symbol id="icon-right" fill='#fff' viewBox="0 0 32 32">
<path d="M13.103 8.275l-1.931 1.931 5.794 5.794-5.794 5.794 1.931 1.931 7.725-7.725z"></path>
</symbol>
<symbol id="icon-left" fill='#fff' viewBox="0 0 32 32">
<path d="M18.897 23.725l1.931-1.931-5.794-5.794 5.794-5.794-1.931-1.931-7.725 7.725z"></path>
</symbol>
<symbol id="icon-close"  fill="#91bd17" viewBox="0 0 32 32">
<path d="M6.1 6.1c0.362-0.362 0.862-0.586 1.414-0.586s1.052 0.224 1.414 0.586l7.072 7.072 7.072-7.072c0.359-0.347 0.849-0.561 1.389-0.561 1.105 0 2 0.895 2 2 0 0.54-0.214 1.030-0.562 1.39l0.001-0.001-7.072 7.072 7.072 7.072c0.347 0.359 0.561 0.849 0.561 1.389 0 1.105-0.895 2-2 2-0.54 0-1.030-0.214-1.39-0.562l0.001 0.001-7.072-7.072-7.072 7.072c-0.359 0.347-0.849 0.561-1.389 0.561-1.105 0-2-0.895-2-2 0-0.54 0.214-1.030 0.562-1.39l-0.001 0.001 7.072-7.072-7.072-7.072c-0.362-0.362-0.586-0.862-0.586-1.414s0.224-1.052 0.586-1.414v0z"></path>
</symbol>

</defs></svg>